<?xml version="1.0" encoding="UTF-8"?>
<svg xmlns="http://www.w3.org/2000/svg" xmlns:xlink="http://www.w3.org/1999/xlink" width="1800pt" height="150pt" viewBox="0 0 1800 150" version="1.1">
<g id="surface16520">
<path style="fill:none;stroke-width:41.25;stroke-linecap:square;stroke-linejoin:miter;stroke:rgb(52.941176%,80.784314%,98.039216%);stroke-opacity:1;stroke-miterlimit:10;" d="M 25 25 L 100 25 L 125 50 L 125 125 L 50 125 L 25 100 L 25 75 L 75 75 "/>
<path style="fill:none;stroke-width:41.25;stroke-linecap:square;stroke-linejoin:miter;stroke:rgb(86.27451%,7.843137%,23.529412%);stroke-opacity:1;stroke-miterlimit:10;" d="M 275 100 L 275 125 L 175 125 L 175 50 L 200 25 "/>
<path style="fill:none;stroke-width:41.25;stroke-linecap:square;stroke-linejoin:miter;stroke:rgb(86.27451%,7.843137%,23.529412%);stroke-opacity:1;stroke-miterlimit:10;" d="M 325 125 L 400 125 L 425 100 L 425 75 L 325 75 L 325 50 L 350 25 L 425 25 "/>
<path style="fill:none;stroke-width:41.25;stroke-linecap:square;stroke-linejoin:miter;stroke:rgb(52.941176%,80.784314%,98.039216%);stroke-opacity:1;stroke-miterlimit:10;" d="M 475 25 L 550 25 L 575 50 L 575 125 L 500 125 L 475 100 Z "/>
<path style="fill:none;stroke-width:41.25;stroke-linecap:square;stroke-linejoin:miter;stroke:rgb(86.27451%,7.843137%,23.529412%);stroke-opacity:1;stroke-miterlimit:10;" d="M 625 125 L 700 125 L 725 100 L 725 75 L 625 75 L 625 50 L 650 25 L 725 25 "/>
<path style="fill:none;stroke-width:41.25;stroke-linecap:square;stroke-linejoin:miter;stroke:rgb(52.941176%,80.784314%,98.039216%);stroke-opacity:1;stroke-miterlimit:10;" d="M 775 25 L 850 25 L 875 50 L 875 75 L 825 75 L 825 125 L 775 125 L 775 75 "/>
<path style="fill:none;stroke-width:41.25;stroke-linecap:square;stroke-linejoin:miter;stroke:rgb(52.941176%,80.784314%,98.039216%);stroke-opacity:1;stroke-miterlimit:10;" d="M 1025 125 L 925 125 L 925 50 L 950 25 L 1025 25 L 1025 75 L 975 75 "/>
<path style="fill:none;stroke-width:41.25;stroke-linecap:square;stroke-linejoin:miter;stroke:rgb(86.27451%,7.843137%,23.529412%);stroke-opacity:1;stroke-miterlimit:10;" d="M 1075 25 L 1150 25 L 1175 50 L 1175 125 L 1100 125 L 1075 100 L 1075 75 L 1125 75 "/>
<path style="fill:none;stroke-width:41.25;stroke-linecap:square;stroke-linejoin:miter;stroke:rgb(52.941176%,80.784314%,98.039216%);stroke-opacity:1;stroke-miterlimit:10;" d="M 1225 125 L 1225 25 "/>
<path style="fill:none;stroke-width:41.25;stroke-linecap:square;stroke-linejoin:miter;stroke:rgb(52.941176%,80.784314%,98.039216%);stroke-opacity:1;stroke-miterlimit:10;" d="M 1225 125 L 1225 100 L 1300 25 L 1325 25 "/>
<path style="fill:none;stroke-width:41.25;stroke-linecap:square;stroke-linejoin:miter;stroke:rgb(52.941176%,80.784314%,98.039216%);stroke-opacity:1;stroke-miterlimit:10;" d="M 1275 50 L 1325 100 L 1325 125 "/>
<path style="fill:none;stroke-width:41.25;stroke-linecap:square;stroke-linejoin:miter;stroke:rgb(86.27451%,7.843137%,23.529412%);stroke-opacity:1;stroke-miterlimit:10;" d="M 1375 125 L 1475 125 "/>
<path style="fill:none;stroke-width:41.25;stroke-linecap:square;stroke-linejoin:miter;stroke:rgb(86.27451%,7.843137%,23.529412%);stroke-opacity:1;stroke-miterlimit:10;" d="M 1375 25 L 1475 25 "/>
<path style="fill:none;stroke-width:41.25;stroke-linecap:square;stroke-linejoin:miter;stroke:rgb(86.27451%,7.843137%,23.529412%);stroke-opacity:1;stroke-miterlimit:10;" d="M 1425 125 L 1425 25 "/>
<path style="fill:none;stroke-width:41.25;stroke-linecap:square;stroke-linejoin:miter;stroke:rgb(52.941176%,80.784314%,98.039216%);stroke-opacity:1;stroke-miterlimit:10;" d="M 1525 125 L 1525 25 L 1600 25 L 1625 50 L 1625 125 "/>
<path style="fill:none;stroke-width:41.25;stroke-linecap:square;stroke-linejoin:miter;stroke:rgb(86.27451%,7.843137%,23.529412%);stroke-opacity:1;stroke-miterlimit:10;" d="M 1725 75 L 1775 75 L 1775 125 L 1675 125 L 1675 50 L 1700 25 L 1775 25 "/>
<path style="fill:none;stroke-width:24.75;stroke-linecap:square;stroke-linejoin:miter;stroke:rgb(100%,100%,100%);stroke-opacity:1;stroke-miterlimit:10;" d="M 25 25 L 100 25 L 125 50 L 125 125 L 50 125 L 25 100 L 25 75 L 75 75 "/>
<path style="fill:none;stroke-width:24.75;stroke-linecap:square;stroke-linejoin:miter;stroke:rgb(100%,100%,100%);stroke-opacity:1;stroke-miterlimit:10;" d="M 275 100 L 275 125 L 175 125 L 175 50 L 200 25 "/>
<path style="fill:none;stroke-width:24.75;stroke-linecap:square;stroke-linejoin:miter;stroke:rgb(100%,100%,100%);stroke-opacity:1;stroke-miterlimit:10;" d="M 325 125 L 400 125 L 425 100 L 425 75 L 325 75 L 325 50 L 350 25 L 425 25 "/>
<path style="fill:none;stroke-width:24.75;stroke-linecap:square;stroke-linejoin:miter;stroke:rgb(100%,100%,100%);stroke-opacity:1;stroke-miterlimit:10;" d="M 475 25 L 550 25 L 575 50 L 575 125 L 500 125 L 475 100 Z "/>
<path style="fill:none;stroke-width:24.75;stroke-linecap:square;stroke-linejoin:miter;stroke:rgb(100%,100%,100%);stroke-opacity:1;stroke-miterlimit:10;" d="M 625 125 L 700 125 L 725 100 L 725 75 L 625 75 L 625 50 L 650 25 L 725 25 "/>
<path style="fill:none;stroke-width:24.75;stroke-linecap:square;stroke-linejoin:miter;stroke:rgb(100%,100%,100%);stroke-opacity:1;stroke-miterlimit:10;" d="M 775 25 L 850 25 L 875 50 L 875 75 L 825 75 L 825 125 L 775 125 L 775 75 "/>
<path style="fill:none;stroke-width:24.75;stroke-linecap:square;stroke-linejoin:miter;stroke:rgb(100%,100%,100%);stroke-opacity:1;stroke-miterlimit:10;" d="M 1025 125 L 925 125 L 925 50 L 950 25 L 1025 25 L 1025 75 L 975 75 "/>
<path style="fill:none;stroke-width:24.75;stroke-linecap:square;stroke-linejoin:miter;stroke:rgb(100%,100%,100%);stroke-opacity:1;stroke-miterlimit:10;" d="M 1075 25 L 1150 25 L 1175 50 L 1175 125 L 1100 125 L 1075 100 L 1075 75 L 1125 75 "/>
<path style="fill:none;stroke-width:24.75;stroke-linecap:square;stroke-linejoin:miter;stroke:rgb(100%,100%,100%);stroke-opacity:1;stroke-miterlimit:10;" d="M 1225 125 L 1225 25 "/>
<path style="fill:none;stroke-width:24.75;stroke-linecap:square;stroke-linejoin:miter;stroke:rgb(100%,100%,100%);stroke-opacity:1;stroke-miterlimit:10;" d="M 1225 125 L 1225 100 L 1300 25 L 1325 25 "/>
<path style="fill:none;stroke-width:24.75;stroke-linecap:square;stroke-linejoin:miter;stroke:rgb(100%,100%,100%);stroke-opacity:1;stroke-miterlimit:10;" d="M 1275 50 L 1325 100 L 1325 125 "/>
<path style="fill:none;stroke-width:24.75;stroke-linecap:square;stroke-linejoin:miter;stroke:rgb(100%,100%,100%);stroke-opacity:1;stroke-miterlimit:10;" d="M 1375 125 L 1475 125 "/>
<path style="fill:none;stroke-width:24.75;stroke-linecap:square;stroke-linejoin:miter;stroke:rgb(100%,100%,100%);stroke-opacity:1;stroke-miterlimit:10;" d="M 1375 25 L 1475 25 "/>
<path style="fill:none;stroke-width:24.75;stroke-linecap:square;stroke-linejoin:miter;stroke:rgb(100%,100%,100%);stroke-opacity:1;stroke-miterlimit:10;" d="M 1425 125 L 1425 25 "/>
<path style="fill:none;stroke-width:24.75;stroke-linecap:square;stroke-linejoin:miter;stroke:rgb(100%,100%,100%);stroke-opacity:1;stroke-miterlimit:10;" d="M 1525 125 L 1525 25 L 1600 25 L 1625 50 L 1625 125 "/>
<path style="fill:none;stroke-width:24.75;stroke-linecap:square;stroke-linejoin:miter;stroke:rgb(100%,100%,100%);stroke-opacity:1;stroke-miterlimit:10;" d="M 1725 75 L 1775 75 L 1775 125 L 1675 125 L 1675 50 L 1700 25 L 1775 25 "/>
<path style="fill:none;stroke-width:8.25;stroke-linecap:square;stroke-linejoin:miter;stroke:rgb(52.941176%,80.784314%,98.039216%);stroke-opacity:1;stroke-miterlimit:10;" d="M 25 25 L 100 25 L 125 50 L 125 125 L 50 125 L 25 100 L 25 75 L 75 75 "/>
<path style="fill:none;stroke-width:8.25;stroke-linecap:square;stroke-linejoin:miter;stroke:rgb(86.27451%,7.843137%,23.529412%);stroke-opacity:1;stroke-miterlimit:10;" d="M 275 100 L 275 125 L 175 125 L 175 50 L 200 25 "/>
<path style="fill:none;stroke-width:8.25;stroke-linecap:square;stroke-linejoin:miter;stroke:rgb(52.941176%,80.784314%,98.039216%);stroke-opacity:1;stroke-miterlimit:10;" d="M 325 125 L 400 125 L 425 100 L 425 75 L 325 75 L 325 50 L 350 25 L 425 25 "/>
<path style="fill:none;stroke-width:8.25;stroke-linecap:square;stroke-linejoin:miter;stroke:rgb(52.941176%,80.784314%,98.039216%);stroke-opacity:1;stroke-miterlimit:10;" d="M 475 25 L 550 25 L 575 50 L 575 125 L 500 125 L 475 100 Z "/>
<path style="fill:none;stroke-width:8.25;stroke-linecap:square;stroke-linejoin:miter;stroke:rgb(52.941176%,80.784314%,98.039216%);stroke-opacity:1;stroke-miterlimit:10;" d="M 625 125 L 700 125 L 725 100 L 725 75 L 625 75 L 625 50 L 650 25 L 725 25 "/>
<path style="fill:none;stroke-width:8.25;stroke-linecap:square;stroke-linejoin:miter;stroke:rgb(52.941176%,80.784314%,98.039216%);stroke-opacity:1;stroke-miterlimit:10;" d="M 775 25 L 850 25 L 875 50 L 875 75 L 825 75 L 825 125 L 775 125 L 775 75 "/>
<path style="fill:none;stroke-width:8.25;stroke-linecap:square;stroke-linejoin:miter;stroke:rgb(52.941176%,80.784314%,98.039216%);stroke-opacity:1;stroke-miterlimit:10;" d="M 1025 125 L 925 125 L 925 50 L 950 25 L 1025 25 L 1025 75 L 975 75 "/>
<path style="fill:none;stroke-width:8.25;stroke-linecap:square;stroke-linejoin:miter;stroke:rgb(86.27451%,7.843137%,23.529412%);stroke-opacity:1;stroke-miterlimit:10;" d="M 1075 25 L 1150 25 L 1175 50 L 1175 125 L 1100 125 L 1075 100 L 1075 75 L 1125 75 "/>
<path style="fill:none;stroke-width:8.25;stroke-linecap:square;stroke-linejoin:miter;stroke:rgb(52.941176%,80.784314%,98.039216%);stroke-opacity:1;stroke-miterlimit:10;" d="M 1225 125 L 1225 25 "/>
<path style="fill:none;stroke-width:8.25;stroke-linecap:square;stroke-linejoin:miter;stroke:rgb(52.941176%,80.784314%,98.039216%);stroke-opacity:1;stroke-miterlimit:10;" d="M 1225 125 L 1225 100 L 1300 25 L 1325 25 "/>
<path style="fill:none;stroke-width:8.25;stroke-linecap:square;stroke-linejoin:miter;stroke:rgb(52.941176%,80.784314%,98.039216%);stroke-opacity:1;stroke-miterlimit:10;" d="M 1275 50 L 1325 100 L 1325 125 "/>
<path style="fill:none;stroke-width:8.25;stroke-linecap:square;stroke-linejoin:miter;stroke:rgb(52.941176%,80.784314%,98.039216%);stroke-opacity:1;stroke-miterlimit:10;" d="M 1375 125 L 1475 125 "/>
<path style="fill:none;stroke-width:8.25;stroke-linecap:square;stroke-linejoin:miter;stroke:rgb(52.941176%,80.784314%,98.039216%);stroke-opacity:1;stroke-miterlimit:10;" d="M 1375 25 L 1475 25 "/>
<path style="fill:none;stroke-width:8.25;stroke-linecap:square;stroke-linejoin:miter;stroke:rgb(52.941176%,80.784314%,98.039216%);stroke-opacity:1;stroke-miterlimit:10;" d="M 1425 125 L 1425 25 "/>
<path style="fill:none;stroke-width:8.25;stroke-linecap:square;stroke-linejoin:miter;stroke:rgb(86.27451%,7.843137%,23.529412%);stroke-opacity:1;stroke-miterlimit:10;" d="M 1525 125 L 1525 25 L 1600 25 L 1625 50 L 1625 125 "/>
<path style="fill:none;stroke-width:8.25;stroke-linecap:square;stroke-linejoin:miter;stroke:rgb(86.27451%,7.843137%,23.529412%);stroke-opacity:1;stroke-miterlimit:10;" d="M 1725 75 L 1775 75 L 1775 125 L 1675 125 L 1675 50 L 1700 25 L 1775 25 "/>
</g>
</svg>
