<?xml version="1.0" encoding="UTF-8"?>
<svg height="150pt" version="1.1" viewBox="0 0 1800 150" width="1800pt" xmlns="http://www.w3.org/2000/svg" xmlns:xlink="http://www.w3.org/1999/xlink">
<g id="surface16520">
<path stroke-linejoin="miter" id="recolor3369" style="" stroke-opacity="1" stroke-width="41.25" stroke-linecap="square" stroke="rgb(52.941176%,80.784314%,98.039216%)" d="M 25 25 L 100 25 L 125 50 L 125 125 L 50 125 L 25 100 L 25 75 L 75 75 " stroke-miterlimit="10" fill="none"></path>
<path stroke-linejoin="miter" id="recolor3370" style="" stroke-opacity="1" stroke-width="41.25" stroke-linecap="square" stroke="rgb(86.27451%,7.843137%,23.529412%)" d="M 275 100 L 275 125 L 175 125 L 175 50 L 200 25 " stroke-miterlimit="10" fill="none"></path>
<path stroke-linejoin="miter" id="recolor3371" style="" stroke-opacity="1" stroke-width="41.25" stroke-linecap="square" stroke="rgb(52.941176%,80.784314%,98.039216%)" d="M 325 125 L 400 125 L 425 100 L 425 75 L 325 75 L 325 50 L 350 25 L 425 25 " stroke-miterlimit="10" fill="none"></path>
<path stroke-linejoin="miter" id="recolor3372" style="" stroke-opacity="1" stroke-width="41.25" stroke-linecap="square" stroke="rgb(52.941176%,80.784314%,98.039216%)" d="M 475 25 L 550 25 L 575 50 L 575 125 L 500 125 L 475 100 Z " stroke-miterlimit="10" fill="none"></path>
<path stroke-linejoin="miter" id="recolor3373" style="" stroke-opacity="1" stroke-width="41.25" stroke-linecap="square" stroke="rgb(86.27451%,7.843137%,23.529412%)" d="M 625 125 L 700 125 L 725 100 L 725 75 L 625 75 L 625 50 L 650 25 L 725 25 " stroke-miterlimit="10" fill="none"></path>
<path stroke-linejoin="miter" id="recolor3374" style="" stroke-opacity="1" stroke-width="41.25" stroke-linecap="square" stroke="rgb(86.27451%,7.843137%,23.529412%)" d="M 775 25 L 850 25 L 875 50 L 875 75 L 825 75 L 825 125 L 775 125 L 775 75 " stroke-miterlimit="10" fill="none"></path>
<path stroke-linejoin="miter" id="recolor3375" style="" stroke-opacity="1" stroke-width="41.25" stroke-linecap="square" stroke="rgb(52.941176%,80.784314%,98.039216%)" d="M 1025 125 L 925 125 L 925 50 L 950 25 L 1025 25 L 1025 75 L 975 75 " stroke-miterlimit="10" fill="none"></path>
<path stroke-linejoin="miter" id="recolor3376" style="" stroke-opacity="1" stroke-width="41.25" stroke-linecap="square" stroke="rgb(52.941176%,80.784314%,98.039216%)" d="M 1075 25 L 1150 25 L 1175 50 L 1175 125 L 1100 125 L 1075 100 L 1075 75 L 1125 75 " stroke-miterlimit="10" fill="none"></path>
<path stroke-linejoin="miter" id="recolor3377" style="" stroke-opacity="1" stroke-width="41.25" stroke-linecap="square" stroke="rgb(86.27451%,7.843137%,23.529412%)" d="M 1225 125 L 1225 25 " stroke-miterlimit="10" fill="none"></path>
<path stroke-linejoin="miter" id="recolor3378" style="" stroke-opacity="1" stroke-width="41.25" stroke-linecap="square" stroke="rgb(52.941176%,80.784314%,98.039216%)" d="M 1225 125 L 1225 100 L 1300 25 L 1325 25 " stroke-miterlimit="10" fill="none"></path>
<path stroke-linejoin="miter" id="recolor3379" style="" stroke-opacity="1" stroke-width="41.25" stroke-linecap="square" stroke="rgb(86.27451%,7.843137%,23.529412%)" d="M 1275 50 L 1325 100 L 1325 125 " stroke-miterlimit="10" fill="none"></path>
<path stroke-linejoin="miter" id="recolor3380" style="" stroke-opacity="1" stroke-width="41.25" stroke-linecap="square" stroke="rgb(52.941176%,80.784314%,98.039216%)" d="M 1375 125 L 1475 125 " stroke-miterlimit="10" fill="none"></path>
<path stroke-linejoin="miter" id="recolor3381" style="" stroke-opacity="1" stroke-width="41.25" stroke-linecap="square" stroke="rgb(86.27451%,7.843137%,23.529412%)" d="M 1375 25 L 1475 25 " stroke-miterlimit="10" fill="none"></path>
<path stroke-linejoin="miter" id="recolor3382" style="" stroke-opacity="1" stroke-width="41.25" stroke-linecap="square" stroke="rgb(52.941176%,80.784314%,98.039216%)" d="M 1425 125 L 1425 25 " stroke-miterlimit="10" fill="none"></path>
<path stroke-linejoin="miter" id="recolor3383" style="" stroke-opacity="1" stroke-width="41.25" stroke-linecap="square" stroke="rgb(52.941176%,80.784314%,98.039216%)" d="M 1525 125 L 1525 25 L 1600 25 L 1625 50 L 1625 125 " stroke-miterlimit="10" fill="none"></path>
<path stroke-linejoin="miter" id="recolor3384" style="" stroke-opacity="1" stroke-width="41.25" stroke-linecap="square" stroke="rgb(52.941176%,80.784314%,98.039216%)" d="M 1725 75 L 1775 75 L 1775 125 L 1675 125 L 1675 50 L 1700 25 L 1775 25 " stroke-miterlimit="10" fill="none"></path>
<path d="M 25 25 L 100 25 L 125 50 L 125 125 L 50 125 L 25 100 L 25 75 L 75 75 " style="fill:none;stroke-width:24.75;stroke-linecap:square;stroke-linejoin:miter;stroke:rgb(100%,100%,100%);stroke-opacity:1;stroke-miterlimit:10;"></path>
<path d="M 275 100 L 275 125 L 175 125 L 175 50 L 200 25 " style="fill:none;stroke-width:24.75;stroke-linecap:square;stroke-linejoin:miter;stroke:rgb(100%,100%,100%);stroke-opacity:1;stroke-miterlimit:10;"></path>
<path d="M 325 125 L 400 125 L 425 100 L 425 75 L 325 75 L 325 50 L 350 25 L 425 25 " style="fill:none;stroke-width:24.75;stroke-linecap:square;stroke-linejoin:miter;stroke:rgb(100%,100%,100%);stroke-opacity:1;stroke-miterlimit:10;"></path>
<path d="M 475 25 L 550 25 L 575 50 L 575 125 L 500 125 L 475 100 Z " style="fill:none;stroke-width:24.75;stroke-linecap:square;stroke-linejoin:miter;stroke:rgb(100%,100%,100%);stroke-opacity:1;stroke-miterlimit:10;"></path>
<path d="M 625 125 L 700 125 L 725 100 L 725 75 L 625 75 L 625 50 L 650 25 L 725 25 " style="fill:none;stroke-width:24.75;stroke-linecap:square;stroke-linejoin:miter;stroke:rgb(100%,100%,100%);stroke-opacity:1;stroke-miterlimit:10;"></path>
<path d="M 775 25 L 850 25 L 875 50 L 875 75 L 825 75 L 825 125 L 775 125 L 775 75 " style="fill:none;stroke-width:24.75;stroke-linecap:square;stroke-linejoin:miter;stroke:rgb(100%,100%,100%);stroke-opacity:1;stroke-miterlimit:10;"></path>
<path d="M 1025 125 L 925 125 L 925 50 L 950 25 L 1025 25 L 1025 75 L 975 75 " style="fill:none;stroke-width:24.75;stroke-linecap:square;stroke-linejoin:miter;stroke:rgb(100%,100%,100%);stroke-opacity:1;stroke-miterlimit:10;"></path>
<path d="M 1075 25 L 1150 25 L 1175 50 L 1175 125 L 1100 125 L 1075 100 L 1075 75 L 1125 75 " style="fill:none;stroke-width:24.75;stroke-linecap:square;stroke-linejoin:miter;stroke:rgb(100%,100%,100%);stroke-opacity:1;stroke-miterlimit:10;"></path>
<path d="M 1225 125 L 1225 25 " style="fill:none;stroke-width:24.75;stroke-linecap:square;stroke-linejoin:miter;stroke:rgb(100%,100%,100%);stroke-opacity:1;stroke-miterlimit:10;"></path>
<path d="M 1225 125 L 1225 100 L 1300 25 L 1325 25 " style="fill:none;stroke-width:24.75;stroke-linecap:square;stroke-linejoin:miter;stroke:rgb(100%,100%,100%);stroke-opacity:1;stroke-miterlimit:10;"></path>
<path d="M 1275 50 L 1325 100 L 1325 125 " style="fill:none;stroke-width:24.75;stroke-linecap:square;stroke-linejoin:miter;stroke:rgb(100%,100%,100%);stroke-opacity:1;stroke-miterlimit:10;"></path>
<path d="M 1375 125 L 1475 125 " style="fill:none;stroke-width:24.75;stroke-linecap:square;stroke-linejoin:miter;stroke:rgb(100%,100%,100%);stroke-opacity:1;stroke-miterlimit:10;"></path>
<path d="M 1375 25 L 1475 25 " style="fill:none;stroke-width:24.75;stroke-linecap:square;stroke-linejoin:miter;stroke:rgb(100%,100%,100%);stroke-opacity:1;stroke-miterlimit:10;"></path>
<path d="M 1425 125 L 1425 25 " style="fill:none;stroke-width:24.75;stroke-linecap:square;stroke-linejoin:miter;stroke:rgb(100%,100%,100%);stroke-opacity:1;stroke-miterlimit:10;"></path>
<path d="M 1525 125 L 1525 25 L 1600 25 L 1625 50 L 1625 125 " style="fill:none;stroke-width:24.75;stroke-linecap:square;stroke-linejoin:miter;stroke:rgb(100%,100%,100%);stroke-opacity:1;stroke-miterlimit:10;"></path>
<path d="M 1725 75 L 1775 75 L 1775 125 L 1675 125 L 1675 50 L 1700 25 L 1775 25 " style="fill:none;stroke-width:24.75;stroke-linecap:square;stroke-linejoin:miter;stroke:rgb(100%,100%,100%);stroke-opacity:1;stroke-miterlimit:10;"></path>
<path stroke-linejoin="miter" id="recolor3385" style="" stroke-opacity="1" stroke-width="8.25" stroke-linecap="square" stroke="rgb(86.27451%,7.843137%,23.529412%)" d="M 25 25 L 100 25 L 125 50 L 125 125 L 50 125 L 25 100 L 25 75 L 75 75 " stroke-miterlimit="10" fill="none"></path>
<path stroke-linejoin="miter" id="recolor3386" style="" stroke-opacity="1" stroke-width="8.25" stroke-linecap="square" stroke="rgb(52.941176%,80.784314%,98.039216%)" d="M 275 100 L 275 125 L 175 125 L 175 50 L 200 25 " stroke-miterlimit="10" fill="none"></path>
<path stroke-linejoin="miter" id="recolor3387" style="" stroke-opacity="1" stroke-width="8.25" stroke-linecap="square" stroke="rgb(86.27451%,7.843137%,23.529412%)" d="M 325 125 L 400 125 L 425 100 L 425 75 L 325 75 L 325 50 L 350 25 L 425 25 " stroke-miterlimit="10" fill="none"></path>
<path stroke-linejoin="miter" id="recolor3388" style="" stroke-opacity="1" stroke-width="8.25" stroke-linecap="square" stroke="rgb(52.941176%,80.784314%,98.039216%)" d="M 475 25 L 550 25 L 575 50 L 575 125 L 500 125 L 475 100 Z " stroke-miterlimit="10" fill="none"></path>
<path stroke-linejoin="miter" id="recolor3389" style="" stroke-opacity="1" stroke-width="8.25" stroke-linecap="square" stroke="rgb(86.27451%,7.843137%,23.529412%)" d="M 625 125 L 700 125 L 725 100 L 725 75 L 625 75 L 625 50 L 650 25 L 725 25 " stroke-miterlimit="10" fill="none"></path>
<path stroke-linejoin="miter" id="recolor3390" style="" stroke-opacity="1" stroke-width="8.25" stroke-linecap="square" stroke="rgb(86.27451%,7.843137%,23.529412%)" d="M 775 25 L 850 25 L 875 50 L 875 75 L 825 75 L 825 125 L 775 125 L 775 75 " stroke-miterlimit="10" fill="none"></path>
<path stroke-linejoin="miter" id="recolor3391" style="" stroke-opacity="1" stroke-width="8.25" stroke-linecap="square" stroke="rgb(52.941176%,80.784314%,98.039216%)" d="M 1025 125 L 925 125 L 925 50 L 950 25 L 1025 25 L 1025 75 L 975 75 " stroke-miterlimit="10" fill="none"></path>
<path stroke-linejoin="miter" id="recolor3392" style="" stroke-opacity="1" stroke-width="8.25" stroke-linecap="square" stroke="rgb(52.941176%,80.784314%,98.039216%)" d="M 1075 25 L 1150 25 L 1175 50 L 1175 125 L 1100 125 L 1075 100 L 1075 75 L 1125 75 " stroke-miterlimit="10" fill="none"></path>
<path stroke-linejoin="miter" id="recolor3393" style="" stroke-opacity="1" stroke-width="8.25" stroke-linecap="square" stroke="rgb(52.941176%,80.784314%,98.039216%)" d="M 1225 125 L 1225 25 " stroke-miterlimit="10" fill="none"></path>
<path stroke-linejoin="miter" id="recolor3394" style="" stroke-opacity="1" stroke-width="8.25" stroke-linecap="square" stroke="rgb(86.27451%,7.843137%,23.529412%)" d="M 1225 125 L 1225 100 L 1300 25 L 1325 25 " stroke-miterlimit="10" fill="none"></path>
<path stroke-linejoin="miter" id="recolor3395" style="" stroke-opacity="1" stroke-width="8.25" stroke-linecap="square" stroke="rgb(86.27451%,7.843137%,23.529412%)" d="M 1275 50 L 1325 100 L 1325 125 " stroke-miterlimit="10" fill="none"></path>
<path stroke-linejoin="miter" id="recolor3396" style="" stroke-opacity="1" stroke-width="8.25" stroke-linecap="square" stroke="rgb(86.27451%,7.843137%,23.529412%)" d="M 1375 125 L 1475 125 " stroke-miterlimit="10" fill="none"></path>
<path stroke-linejoin="miter" id="recolor3397" style="" stroke-opacity="1" stroke-width="8.25" stroke-linecap="square" stroke="rgb(52.941176%,80.784314%,98.039216%)" d="M 1375 25 L 1475 25 " stroke-miterlimit="10" fill="none"></path>
<path stroke-linejoin="miter" id="recolor3398" style="" stroke-opacity="1" stroke-width="8.25" stroke-linecap="square" stroke="rgb(52.941176%,80.784314%,98.039216%)" d="M 1425 125 L 1425 25 " stroke-miterlimit="10" fill="none"></path>
<path stroke-linejoin="miter" id="recolor3399" style="" stroke-opacity="1" stroke-width="8.25" stroke-linecap="square" stroke="rgb(52.941176%,80.784314%,98.039216%)" d="M 1525 125 L 1525 25 L 1600 25 L 1625 50 L 1625 125 " stroke-miterlimit="10" fill="none"></path>
<path stroke-linejoin="miter" id="recolor3400" style="" stroke-opacity="1" stroke-width="8.25" stroke-linecap="square" stroke="rgb(52.941176%,80.784314%,98.039216%)" d="M 1725 75 L 1775 75 L 1775 125 L 1675 125 L 1675 50 L 1700 25 L 1775 25 " stroke-miterlimit="10" fill="none"></path>
</g>
<style>path {
 transition: stroke 2s linear, stroke-width 2s linear;
}</style></svg>