<?xml version="1.0" encoding="UTF-8"?>
<svg xmlns="http://www.w3.org/2000/svg" xmlns:xlink="http://www.w3.org/1999/xlink" width="1050pt" height="450pt" viewBox="0 0 1050 450" version="1.1">
<g id="surface17314">
<path style="fill:none;stroke-width:41.25;stroke-linecap:square;stroke-linejoin:miter;stroke:rgb(86.27451%,7.843137%,23.529412%);stroke-opacity:1;stroke-miterlimit:10;" d="M 25 125 L 25 25 "/>
<path style="fill:none;stroke-width:41.25;stroke-linecap:square;stroke-linejoin:miter;stroke:rgb(86.27451%,7.843137%,23.529412%);stroke-opacity:1;stroke-miterlimit:10;" d="M 25 125 L 25 100 L 100 25 L 125 25 "/>
<path style="fill:none;stroke-width:41.25;stroke-linecap:square;stroke-linejoin:miter;stroke:rgb(86.27451%,7.843137%,23.529412%);stroke-opacity:1;stroke-miterlimit:10;" d="M 75 50 L 125 100 L 125 125 "/>
<path style="fill:none;stroke-width:41.25;stroke-linecap:square;stroke-linejoin:miter;stroke:rgb(52.941176%,80.784314%,98.039216%);stroke-opacity:1;stroke-miterlimit:10;" d="M 275 125 L 175 125 L 175 50 L 200 25 L 275 25 L 275 75 L 225 75 "/>
<path style="fill:none;stroke-width:41.25;stroke-linecap:square;stroke-linejoin:miter;stroke:rgb(86.27451%,7.843137%,23.529412%);stroke-opacity:1;stroke-miterlimit:10;" d="M 325 25 L 325 75 L 425 75 "/>
<path style="fill:none;stroke-width:41.25;stroke-linecap:square;stroke-linejoin:miter;stroke:rgb(86.27451%,7.843137%,23.529412%);stroke-opacity:1;stroke-miterlimit:10;" d="M 425 25 L 425 100 L 400 125 L 325 125 "/>
<path style="fill:none;stroke-width:41.25;stroke-linecap:square;stroke-linejoin:miter;stroke:rgb(86.27451%,7.843137%,23.529412%);stroke-opacity:1;stroke-miterlimit:10;" d="M 475 125 L 475 25 L 550 25 L 575 50 L 575 125 "/>
<path style="fill:none;stroke-width:41.25;stroke-linecap:square;stroke-linejoin:miter;stroke:rgb(52.941176%,80.784314%,98.039216%);stroke-opacity:1;stroke-miterlimit:10;" d="M 625 25 L 700 25 L 725 50 L 725 125 L 650 125 L 625 100 Z "/>
<path style="fill:none;stroke-width:41.25;stroke-linecap:square;stroke-linejoin:miter;stroke:rgb(86.27451%,7.843137%,23.529412%);stroke-opacity:1;stroke-miterlimit:10;" d="M 775 75 L 775 25 L 875 25 L 875 75 "/>
<path style="fill:none;stroke-width:41.25;stroke-linecap:square;stroke-linejoin:miter;stroke:rgb(86.27451%,7.843137%,23.529412%);stroke-opacity:1;stroke-miterlimit:10;" d="M 825 25 L 825 125 "/>
<path style="fill:none;stroke-width:41.25;stroke-linecap:square;stroke-linejoin:miter;stroke:rgb(86.27451%,7.843137%,23.529412%);stroke-opacity:1;stroke-miterlimit:10;" d="M 775 125 L 875 125 "/>
<path style="fill:none;stroke-width:41.25;stroke-linecap:square;stroke-linejoin:miter;stroke:rgb(52.941176%,80.784314%,98.039216%);stroke-opacity:1;stroke-miterlimit:10;" d="M 1025 125 L 925 125 L 925 50 L 950 25 L 1025 25 L 1025 75 L 975 75 "/>
<path style="fill:none;stroke-width:24.75;stroke-linecap:square;stroke-linejoin:miter;stroke:rgb(100%,100%,100%);stroke-opacity:1;stroke-miterlimit:10;" d="M 25 125 L 25 25 "/>
<path style="fill:none;stroke-width:24.75;stroke-linecap:square;stroke-linejoin:miter;stroke:rgb(100%,100%,100%);stroke-opacity:1;stroke-miterlimit:10;" d="M 25 125 L 25 100 L 100 25 L 125 25 "/>
<path style="fill:none;stroke-width:24.75;stroke-linecap:square;stroke-linejoin:miter;stroke:rgb(100%,100%,100%);stroke-opacity:1;stroke-miterlimit:10;" d="M 75 50 L 125 100 L 125 125 "/>
<path style="fill:none;stroke-width:24.75;stroke-linecap:square;stroke-linejoin:miter;stroke:rgb(100%,100%,100%);stroke-opacity:1;stroke-miterlimit:10;" d="M 275 125 L 175 125 L 175 50 L 200 25 L 275 25 L 275 75 L 225 75 "/>
<path style="fill:none;stroke-width:24.75;stroke-linecap:square;stroke-linejoin:miter;stroke:rgb(100%,100%,100%);stroke-opacity:1;stroke-miterlimit:10;" d="M 325 25 L 325 75 L 425 75 "/>
<path style="fill:none;stroke-width:24.75;stroke-linecap:square;stroke-linejoin:miter;stroke:rgb(100%,100%,100%);stroke-opacity:1;stroke-miterlimit:10;" d="M 425 25 L 425 100 L 400 125 L 325 125 "/>
<path style="fill:none;stroke-width:24.75;stroke-linecap:square;stroke-linejoin:miter;stroke:rgb(100%,100%,100%);stroke-opacity:1;stroke-miterlimit:10;" d="M 475 125 L 475 25 L 550 25 L 575 50 L 575 125 "/>
<path style="fill:none;stroke-width:24.75;stroke-linecap:square;stroke-linejoin:miter;stroke:rgb(100%,100%,100%);stroke-opacity:1;stroke-miterlimit:10;" d="M 625 25 L 700 25 L 725 50 L 725 125 L 650 125 L 625 100 Z "/>
<path style="fill:none;stroke-width:24.75;stroke-linecap:square;stroke-linejoin:miter;stroke:rgb(100%,100%,100%);stroke-opacity:1;stroke-miterlimit:10;" d="M 775 75 L 775 25 L 875 25 L 875 75 "/>
<path style="fill:none;stroke-width:24.75;stroke-linecap:square;stroke-linejoin:miter;stroke:rgb(100%,100%,100%);stroke-opacity:1;stroke-miterlimit:10;" d="M 825 25 L 825 125 "/>
<path style="fill:none;stroke-width:24.75;stroke-linecap:square;stroke-linejoin:miter;stroke:rgb(100%,100%,100%);stroke-opacity:1;stroke-miterlimit:10;" d="M 775 125 L 875 125 "/>
<path style="fill:none;stroke-width:24.75;stroke-linecap:square;stroke-linejoin:miter;stroke:rgb(100%,100%,100%);stroke-opacity:1;stroke-miterlimit:10;" d="M 1025 125 L 925 125 L 925 50 L 950 25 L 1025 25 L 1025 75 L 975 75 "/>
<path style="fill:none;stroke-width:8.25;stroke-linecap:square;stroke-linejoin:miter;stroke:rgb(86.27451%,7.843137%,23.529412%);stroke-opacity:1;stroke-miterlimit:10;" d="M 25 125 L 25 25 "/>
<path style="fill:none;stroke-width:8.25;stroke-linecap:square;stroke-linejoin:miter;stroke:rgb(86.27451%,7.843137%,23.529412%);stroke-opacity:1;stroke-miterlimit:10;" d="M 25 125 L 25 100 L 100 25 L 125 25 "/>
<path style="fill:none;stroke-width:8.25;stroke-linecap:square;stroke-linejoin:miter;stroke:rgb(86.27451%,7.843137%,23.529412%);stroke-opacity:1;stroke-miterlimit:10;" d="M 75 50 L 125 100 L 125 125 "/>
<path style="fill:none;stroke-width:8.25;stroke-linecap:square;stroke-linejoin:miter;stroke:rgb(86.27451%,7.843137%,23.529412%);stroke-opacity:1;stroke-miterlimit:10;" d="M 275 125 L 175 125 L 175 50 L 200 25 L 275 25 L 275 75 L 225 75 "/>
<path style="fill:none;stroke-width:8.25;stroke-linecap:square;stroke-linejoin:miter;stroke:rgb(52.941176%,80.784314%,98.039216%);stroke-opacity:1;stroke-miterlimit:10;" d="M 325 25 L 325 75 L 425 75 "/>
<path style="fill:none;stroke-width:8.25;stroke-linecap:square;stroke-linejoin:miter;stroke:rgb(52.941176%,80.784314%,98.039216%);stroke-opacity:1;stroke-miterlimit:10;" d="M 425 25 L 425 100 L 400 125 L 325 125 "/>
<path style="fill:none;stroke-width:8.25;stroke-linecap:square;stroke-linejoin:miter;stroke:rgb(86.27451%,7.843137%,23.529412%);stroke-opacity:1;stroke-miterlimit:10;" d="M 475 125 L 475 25 L 550 25 L 575 50 L 575 125 "/>
<path style="fill:none;stroke-width:8.25;stroke-linecap:square;stroke-linejoin:miter;stroke:rgb(86.27451%,7.843137%,23.529412%);stroke-opacity:1;stroke-miterlimit:10;" d="M 625 25 L 700 25 L 725 50 L 725 125 L 650 125 L 625 100 Z "/>
<path style="fill:none;stroke-width:8.25;stroke-linecap:square;stroke-linejoin:miter;stroke:rgb(86.27451%,7.843137%,23.529412%);stroke-opacity:1;stroke-miterlimit:10;" d="M 775 75 L 775 25 L 875 25 L 875 75 "/>
<path style="fill:none;stroke-width:8.25;stroke-linecap:square;stroke-linejoin:miter;stroke:rgb(86.27451%,7.843137%,23.529412%);stroke-opacity:1;stroke-miterlimit:10;" d="M 825 25 L 825 125 "/>
<path style="fill:none;stroke-width:8.25;stroke-linecap:square;stroke-linejoin:miter;stroke:rgb(86.27451%,7.843137%,23.529412%);stroke-opacity:1;stroke-miterlimit:10;" d="M 775 125 L 875 125 "/>
<path style="fill:none;stroke-width:8.25;stroke-linecap:square;stroke-linejoin:miter;stroke:rgb(52.941176%,80.784314%,98.039216%);stroke-opacity:1;stroke-miterlimit:10;" d="M 1025 125 L 925 125 L 925 50 L 950 25 L 1025 25 L 1025 75 L 975 75 "/>
<path style="fill:none;stroke-width:41.25;stroke-linecap:square;stroke-linejoin:miter;stroke:rgb(86.27451%,7.843137%,23.529412%);stroke-opacity:1;stroke-miterlimit:10;" d="M 125 175 L 50 175 L 25 200 L 25 275 L 125 275 "/>
<path style="fill:none;stroke-width:41.25;stroke-linecap:square;stroke-linejoin:miter;stroke:rgb(86.27451%,7.843137%,23.529412%);stroke-opacity:1;stroke-miterlimit:10;" d="M 25 225 L 125 225 "/>
<path style="fill:none;stroke-width:41.25;stroke-linecap:square;stroke-linejoin:miter;stroke:rgb(52.941176%,80.784314%,98.039216%);stroke-opacity:1;stroke-miterlimit:10;" d="M 175 275 L 175 175 L 250 175 L 275 200 L 275 275 "/>
<path style="fill:none;stroke-width:41.25;stroke-linecap:square;stroke-linejoin:miter;stroke:rgb(52.941176%,80.784314%,98.039216%);stroke-opacity:1;stroke-miterlimit:10;" d="M 225 175 L 225 275 "/>
<path style="fill:none;stroke-width:41.25;stroke-linecap:square;stroke-linejoin:miter;stroke:rgb(52.941176%,80.784314%,98.039216%);stroke-opacity:1;stroke-miterlimit:10;" d="M 325 275 L 425 275 "/>
<path style="fill:none;stroke-width:41.25;stroke-linecap:square;stroke-linejoin:miter;stroke:rgb(52.941176%,80.784314%,98.039216%);stroke-opacity:1;stroke-miterlimit:10;" d="M 325 175 L 425 175 "/>
<path style="fill:none;stroke-width:41.25;stroke-linecap:square;stroke-linejoin:miter;stroke:rgb(52.941176%,80.784314%,98.039216%);stroke-opacity:1;stroke-miterlimit:10;" d="M 375 275 L 375 175 "/>
<path style="fill:none;stroke-width:41.25;stroke-linecap:square;stroke-linejoin:miter;stroke:rgb(52.941176%,80.784314%,98.039216%);stroke-opacity:1;stroke-miterlimit:10;" d="M 475 275 L 475 175 L 550 175 L 575 200 L 575 275 "/>
<path style="fill:none;stroke-width:41.25;stroke-linecap:square;stroke-linejoin:miter;stroke:rgb(52.941176%,80.784314%,98.039216%);stroke-opacity:1;stroke-miterlimit:10;" d="M 625 175 L 700 175 L 725 200 L 725 275 L 650 275 L 625 250 L 625 225 L 675 225 "/>
<path style="fill:none;stroke-width:24.75;stroke-linecap:square;stroke-linejoin:miter;stroke:rgb(100%,100%,100%);stroke-opacity:1;stroke-miterlimit:10;" d="M 125 175 L 50 175 L 25 200 L 25 275 L 125 275 "/>
<path style="fill:none;stroke-width:24.75;stroke-linecap:square;stroke-linejoin:miter;stroke:rgb(100%,100%,100%);stroke-opacity:1;stroke-miterlimit:10;" d="M 25 225 L 125 225 "/>
<path style="fill:none;stroke-width:24.75;stroke-linecap:square;stroke-linejoin:miter;stroke:rgb(100%,100%,100%);stroke-opacity:1;stroke-miterlimit:10;" d="M 175 275 L 175 175 L 250 175 L 275 200 L 275 275 "/>
<path style="fill:none;stroke-width:24.75;stroke-linecap:square;stroke-linejoin:miter;stroke:rgb(100%,100%,100%);stroke-opacity:1;stroke-miterlimit:10;" d="M 225 175 L 225 275 "/>
<path style="fill:none;stroke-width:24.75;stroke-linecap:square;stroke-linejoin:miter;stroke:rgb(100%,100%,100%);stroke-opacity:1;stroke-miterlimit:10;" d="M 325 275 L 425 275 "/>
<path style="fill:none;stroke-width:24.75;stroke-linecap:square;stroke-linejoin:miter;stroke:rgb(100%,100%,100%);stroke-opacity:1;stroke-miterlimit:10;" d="M 325 175 L 425 175 "/>
<path style="fill:none;stroke-width:24.75;stroke-linecap:square;stroke-linejoin:miter;stroke:rgb(100%,100%,100%);stroke-opacity:1;stroke-miterlimit:10;" d="M 375 275 L 375 175 "/>
<path style="fill:none;stroke-width:24.75;stroke-linecap:square;stroke-linejoin:miter;stroke:rgb(100%,100%,100%);stroke-opacity:1;stroke-miterlimit:10;" d="M 475 275 L 475 175 L 550 175 L 575 200 L 575 275 "/>
<path style="fill:none;stroke-width:24.75;stroke-linecap:square;stroke-linejoin:miter;stroke:rgb(100%,100%,100%);stroke-opacity:1;stroke-miterlimit:10;" d="M 625 175 L 700 175 L 725 200 L 725 275 L 650 275 L 625 250 L 625 225 L 675 225 "/>
<path style="fill:none;stroke-width:8.25;stroke-linecap:square;stroke-linejoin:miter;stroke:rgb(86.27451%,7.843137%,23.529412%);stroke-opacity:1;stroke-miterlimit:10;" d="M 125 175 L 50 175 L 25 200 L 25 275 L 125 275 "/>
<path style="fill:none;stroke-width:8.25;stroke-linecap:square;stroke-linejoin:miter;stroke:rgb(86.27451%,7.843137%,23.529412%);stroke-opacity:1;stroke-miterlimit:10;" d="M 25 225 L 125 225 "/>
<path style="fill:none;stroke-width:8.25;stroke-linecap:square;stroke-linejoin:miter;stroke:rgb(86.27451%,7.843137%,23.529412%);stroke-opacity:1;stroke-miterlimit:10;" d="M 175 275 L 175 175 L 250 175 L 275 200 L 275 275 "/>
<path style="fill:none;stroke-width:8.25;stroke-linecap:square;stroke-linejoin:miter;stroke:rgb(86.27451%,7.843137%,23.529412%);stroke-opacity:1;stroke-miterlimit:10;" d="M 225 175 L 225 275 "/>
<path style="fill:none;stroke-width:8.25;stroke-linecap:square;stroke-linejoin:miter;stroke:rgb(52.941176%,80.784314%,98.039216%);stroke-opacity:1;stroke-miterlimit:10;" d="M 325 275 L 425 275 "/>
<path style="fill:none;stroke-width:8.25;stroke-linecap:square;stroke-linejoin:miter;stroke:rgb(52.941176%,80.784314%,98.039216%);stroke-opacity:1;stroke-miterlimit:10;" d="M 325 175 L 425 175 "/>
<path style="fill:none;stroke-width:8.25;stroke-linecap:square;stroke-linejoin:miter;stroke:rgb(52.941176%,80.784314%,98.039216%);stroke-opacity:1;stroke-miterlimit:10;" d="M 375 275 L 375 175 "/>
<path style="fill:none;stroke-width:8.25;stroke-linecap:square;stroke-linejoin:miter;stroke:rgb(52.941176%,80.784314%,98.039216%);stroke-opacity:1;stroke-miterlimit:10;" d="M 475 275 L 475 175 L 550 175 L 575 200 L 575 275 "/>
<path style="fill:none;stroke-width:8.25;stroke-linecap:square;stroke-linejoin:miter;stroke:rgb(52.941176%,80.784314%,98.039216%);stroke-opacity:1;stroke-miterlimit:10;" d="M 625 175 L 700 175 L 725 200 L 725 275 L 650 275 L 625 250 L 625 225 L 675 225 "/>
<path style="fill:none;stroke-width:41.25;stroke-linecap:square;stroke-linejoin:miter;stroke:rgb(52.941176%,80.784314%,98.039216%);stroke-opacity:1;stroke-miterlimit:10;" d="M 175 375 L 175 325 L 275 325 L 275 375 "/>
<path style="fill:none;stroke-width:41.25;stroke-linecap:square;stroke-linejoin:miter;stroke:rgb(52.941176%,80.784314%,98.039216%);stroke-opacity:1;stroke-miterlimit:10;" d="M 225 325 L 225 425 "/>
<path style="fill:none;stroke-width:41.25;stroke-linecap:square;stroke-linejoin:miter;stroke:rgb(52.941176%,80.784314%,98.039216%);stroke-opacity:1;stroke-miterlimit:10;" d="M 175 425 L 275 425 "/>
<path style="fill:none;stroke-width:41.25;stroke-linecap:square;stroke-linejoin:miter;stroke:rgb(52.941176%,80.784314%,98.039216%);stroke-opacity:1;stroke-miterlimit:10;" d="M 325 425 L 325 350 L 350 325 L 425 325 L 425 400 L 400 425 Z "/>
<path style="fill:none;stroke-width:41.25;stroke-linecap:square;stroke-linejoin:miter;stroke:rgb(86.27451%,7.843137%,23.529412%);stroke-opacity:1;stroke-miterlimit:10;" d="M 475 425 L 475 325 L 550 325 L 575 350 L 575 375 L 525 375 L 525 400 L 550 425 L 575 425 "/>
<path style="fill:none;stroke-width:41.25;stroke-linecap:square;stroke-linejoin:miter;stroke:rgb(52.941176%,80.784314%,98.039216%);stroke-opacity:1;stroke-miterlimit:10;" d="M 725 400 L 725 425 L 625 425 L 625 350 L 650 325 "/>
<path style="fill:none;stroke-width:41.25;stroke-linecap:square;stroke-linejoin:miter;stroke:rgb(86.27451%,7.843137%,23.529412%);stroke-opacity:1;stroke-miterlimit:10;" d="M 775 325 L 850 325 L 875 350 L 875 425 L 800 425 L 775 400 L 775 375 L 825 375 "/>
<path style="fill:none;stroke-width:41.25;stroke-linecap:square;stroke-linejoin:miter;stroke:rgb(86.27451%,7.843137%,23.529412%);stroke-opacity:1;stroke-miterlimit:10;" d="M 925 425 L 925 325 "/>
<path style="fill:none;stroke-width:41.25;stroke-linecap:square;stroke-linejoin:miter;stroke:rgb(86.27451%,7.843137%,23.529412%);stroke-opacity:1;stroke-miterlimit:10;" d="M 925 425 L 925 400 L 1000 325 L 1025 325 "/>
<path style="fill:none;stroke-width:41.25;stroke-linecap:square;stroke-linejoin:miter;stroke:rgb(86.27451%,7.843137%,23.529412%);stroke-opacity:1;stroke-miterlimit:10;" d="M 975 350 L 1025 400 L 1025 425 "/>
<path style="fill:none;stroke-width:24.75;stroke-linecap:square;stroke-linejoin:miter;stroke:rgb(100%,100%,100%);stroke-opacity:1;stroke-miterlimit:10;" d="M 175 375 L 175 325 L 275 325 L 275 375 "/>
<path style="fill:none;stroke-width:24.75;stroke-linecap:square;stroke-linejoin:miter;stroke:rgb(100%,100%,100%);stroke-opacity:1;stroke-miterlimit:10;" d="M 225 325 L 225 425 "/>
<path style="fill:none;stroke-width:24.75;stroke-linecap:square;stroke-linejoin:miter;stroke:rgb(100%,100%,100%);stroke-opacity:1;stroke-miterlimit:10;" d="M 175 425 L 275 425 "/>
<path style="fill:none;stroke-width:24.75;stroke-linecap:square;stroke-linejoin:miter;stroke:rgb(100%,100%,100%);stroke-opacity:1;stroke-miterlimit:10;" d="M 325 425 L 325 350 L 350 325 L 425 325 L 425 400 L 400 425 Z "/>
<path style="fill:none;stroke-width:24.75;stroke-linecap:square;stroke-linejoin:miter;stroke:rgb(100%,100%,100%);stroke-opacity:1;stroke-miterlimit:10;" d="M 475 425 L 475 325 L 550 325 L 575 350 L 575 375 L 525 375 L 525 400 L 550 425 L 575 425 "/>
<path style="fill:none;stroke-width:24.75;stroke-linecap:square;stroke-linejoin:miter;stroke:rgb(100%,100%,100%);stroke-opacity:1;stroke-miterlimit:10;" d="M 725 400 L 725 425 L 625 425 L 625 350 L 650 325 "/>
<path style="fill:none;stroke-width:24.75;stroke-linecap:square;stroke-linejoin:miter;stroke:rgb(100%,100%,100%);stroke-opacity:1;stroke-miterlimit:10;" d="M 775 325 L 850 325 L 875 350 L 875 425 L 800 425 L 775 400 L 775 375 L 825 375 "/>
<path style="fill:none;stroke-width:24.75;stroke-linecap:square;stroke-linejoin:miter;stroke:rgb(100%,100%,100%);stroke-opacity:1;stroke-miterlimit:10;" d="M 925 425 L 925 325 "/>
<path style="fill:none;stroke-width:24.75;stroke-linecap:square;stroke-linejoin:miter;stroke:rgb(100%,100%,100%);stroke-opacity:1;stroke-miterlimit:10;" d="M 925 425 L 925 400 L 1000 325 L 1025 325 "/>
<path style="fill:none;stroke-width:24.75;stroke-linecap:square;stroke-linejoin:miter;stroke:rgb(100%,100%,100%);stroke-opacity:1;stroke-miterlimit:10;" d="M 975 350 L 1025 400 L 1025 425 "/>
<path style="fill:none;stroke-width:8.25;stroke-linecap:square;stroke-linejoin:miter;stroke:rgb(52.941176%,80.784314%,98.039216%);stroke-opacity:1;stroke-miterlimit:10;" d="M 175 375 L 175 325 L 275 325 L 275 375 "/>
<path style="fill:none;stroke-width:8.25;stroke-linecap:square;stroke-linejoin:miter;stroke:rgb(52.941176%,80.784314%,98.039216%);stroke-opacity:1;stroke-miterlimit:10;" d="M 225 325 L 225 425 "/>
<path style="fill:none;stroke-width:8.25;stroke-linecap:square;stroke-linejoin:miter;stroke:rgb(52.941176%,80.784314%,98.039216%);stroke-opacity:1;stroke-miterlimit:10;" d="M 175 425 L 275 425 "/>
<path style="fill:none;stroke-width:8.25;stroke-linecap:square;stroke-linejoin:miter;stroke:rgb(52.941176%,80.784314%,98.039216%);stroke-opacity:1;stroke-miterlimit:10;" d="M 325 425 L 325 350 L 350 325 L 425 325 L 425 400 L 400 425 Z "/>
<path style="fill:none;stroke-width:8.25;stroke-linecap:square;stroke-linejoin:miter;stroke:rgb(86.27451%,7.843137%,23.529412%);stroke-opacity:1;stroke-miterlimit:10;" d="M 475 425 L 475 325 L 550 325 L 575 350 L 575 375 L 525 375 L 525 400 L 550 425 L 575 425 "/>
<path style="fill:none;stroke-width:8.25;stroke-linecap:square;stroke-linejoin:miter;stroke:rgb(86.27451%,7.843137%,23.529412%);stroke-opacity:1;stroke-miterlimit:10;" d="M 725 400 L 725 425 L 625 425 L 625 350 L 650 325 "/>
<path style="fill:none;stroke-width:8.25;stroke-linecap:square;stroke-linejoin:miter;stroke:rgb(52.941176%,80.784314%,98.039216%);stroke-opacity:1;stroke-miterlimit:10;" d="M 775 325 L 850 325 L 875 350 L 875 425 L 800 425 L 775 400 L 775 375 L 825 375 "/>
<path style="fill:none;stroke-width:8.25;stroke-linecap:square;stroke-linejoin:miter;stroke:rgb(86.27451%,7.843137%,23.529412%);stroke-opacity:1;stroke-miterlimit:10;" d="M 925 425 L 925 325 "/>
<path style="fill:none;stroke-width:8.25;stroke-linecap:square;stroke-linejoin:miter;stroke:rgb(86.27451%,7.843137%,23.529412%);stroke-opacity:1;stroke-miterlimit:10;" d="M 925 425 L 925 400 L 1000 325 L 1025 325 "/>
<path style="fill:none;stroke-width:8.25;stroke-linecap:square;stroke-linejoin:miter;stroke:rgb(86.27451%,7.843137%,23.529412%);stroke-opacity:1;stroke-miterlimit:10;" d="M 975 350 L 1025 400 L 1025 425 "/>
</g>
</svg>
