<?xml version="1.0" encoding="UTF-8"?>
<svg height="150pt" version="1.1" viewBox="0 0 1050 150" width="1050pt" xmlns="http://www.w3.org/2000/svg" xmlns:xlink="http://www.w3.org/1999/xlink">
<g id="surface5469">
<path d="M 25 125 L 25 25 " style="fill:none;stroke-width:41.25;stroke-linecap:square;stroke-linejoin:miter;stroke:rgb(0%,0%,0%);stroke-opacity:1;stroke-miterlimit:10;"></path>
<path d="M 25 125 L 25 100 L 100 25 L 125 25 " style="fill:none;stroke-width:41.25;stroke-linecap:square;stroke-linejoin:miter;stroke:rgb(0%,0%,0%);stroke-opacity:1;stroke-miterlimit:10;"></path>
<path d="M 75 50 L 125 100 L 125 125 " style="fill:none;stroke-width:41.25;stroke-linecap:square;stroke-linejoin:miter;stroke:rgb(0%,0%,0%);stroke-opacity:1;stroke-miterlimit:10;"></path>
<path d="M 275 25 L 200 25 L 175 50 L 175 125 L 275 125 " style="fill:none;stroke-width:41.25;stroke-linecap:square;stroke-linejoin:miter;stroke:rgb(0%,0%,0%);stroke-opacity:1;stroke-miterlimit:10;"></path>
<path d="M 175 75 L 275 75 " style="fill:none;stroke-width:41.25;stroke-linecap:square;stroke-linejoin:miter;stroke:rgb(0%,0%,0%);stroke-opacity:1;stroke-miterlimit:10;"></path>
<path d="M 325 25 L 325 75 L 425 75 " style="fill:none;stroke-width:41.25;stroke-linecap:square;stroke-linejoin:miter;stroke:rgb(0%,0%,0%);stroke-opacity:1;stroke-miterlimit:10;"></path>
<path d="M 425 25 L 425 100 L 400 125 L 325 125 " style="fill:none;stroke-width:41.25;stroke-linecap:square;stroke-linejoin:miter;stroke:rgb(0%,0%,0%);stroke-opacity:1;stroke-miterlimit:10;"></path>
<path d="M 475 125 L 475 25 L 550 25 L 575 50 L 575 125 " style="fill:none;stroke-width:41.25;stroke-linecap:square;stroke-linejoin:miter;stroke:rgb(0%,0%,0%);stroke-opacity:1;stroke-miterlimit:10;"></path>
<path d="M 625 25 L 700 25 L 725 50 L 725 125 L 650 125 L 625 100 Z " style="fill:none;stroke-width:41.25;stroke-linecap:square;stroke-linejoin:miter;stroke:rgb(0%,0%,0%);stroke-opacity:1;stroke-miterlimit:10;"></path>
<path d="M 775 25 L 875 25 " style="fill:none;stroke-width:41.25;stroke-linecap:square;stroke-linejoin:miter;stroke:rgb(0%,0%,0%);stroke-opacity:1;stroke-miterlimit:10;"></path>
<path d="M 825 25 L 825 125 " style="fill:none;stroke-width:41.25;stroke-linecap:square;stroke-linejoin:miter;stroke:rgb(0%,0%,0%);stroke-opacity:1;stroke-miterlimit:10;"></path>
<path d="M 1025 25 L 950 25 L 925 50 L 925 125 L 1025 125 " style="fill:none;stroke-width:41.25;stroke-linecap:square;stroke-linejoin:miter;stroke:rgb(0%,0%,0%);stroke-opacity:1;stroke-miterlimit:10;"></path>
<path d="M 925 75 L 1025 75 " style="fill:none;stroke-width:41.25;stroke-linecap:square;stroke-linejoin:miter;stroke:rgb(0%,0%,0%);stroke-opacity:1;stroke-miterlimit:10;"></path>
<path d="M 25 125 L 25 25 " style="fill:none;stroke-width:24.75;stroke-linecap:square;stroke-linejoin:miter;stroke:rgb(100%,100%,100%);stroke-opacity:1;stroke-miterlimit:10;"></path>
<path d="M 25 125 L 25 100 L 100 25 L 125 25 " style="fill:none;stroke-width:24.75;stroke-linecap:square;stroke-linejoin:miter;stroke:rgb(100%,100%,100%);stroke-opacity:1;stroke-miterlimit:10;"></path>
<path d="M 75 50 L 125 100 L 125 125 " style="fill:none;stroke-width:24.75;stroke-linecap:square;stroke-linejoin:miter;stroke:rgb(100%,100%,100%);stroke-opacity:1;stroke-miterlimit:10;"></path>
<path d="M 275 25 L 200 25 L 175 50 L 175 125 L 275 125 " style="fill:none;stroke-width:24.75;stroke-linecap:square;stroke-linejoin:miter;stroke:rgb(100%,100%,100%);stroke-opacity:1;stroke-miterlimit:10;"></path>
<path d="M 175 75 L 275 75 " style="fill:none;stroke-width:24.75;stroke-linecap:square;stroke-linejoin:miter;stroke:rgb(100%,100%,100%);stroke-opacity:1;stroke-miterlimit:10;"></path>
<path d="M 325 25 L 325 75 L 425 75 " style="fill:none;stroke-width:24.75;stroke-linecap:square;stroke-linejoin:miter;stroke:rgb(100%,100%,100%);stroke-opacity:1;stroke-miterlimit:10;"></path>
<path d="M 425 25 L 425 100 L 400 125 L 325 125 " style="fill:none;stroke-width:24.75;stroke-linecap:square;stroke-linejoin:miter;stroke:rgb(100%,100%,100%);stroke-opacity:1;stroke-miterlimit:10;"></path>
<path d="M 475 125 L 475 25 L 550 25 L 575 50 L 575 125 " style="fill:none;stroke-width:24.75;stroke-linecap:square;stroke-linejoin:miter;stroke:rgb(100%,100%,100%);stroke-opacity:1;stroke-miterlimit:10;"></path>
<path d="M 625 25 L 700 25 L 725 50 L 725 125 L 650 125 L 625 100 Z " style="fill:none;stroke-width:24.75;stroke-linecap:square;stroke-linejoin:miter;stroke:rgb(100%,100%,100%);stroke-opacity:1;stroke-miterlimit:10;"></path>
<path d="M 775 25 L 875 25 " style="fill:none;stroke-width:24.75;stroke-linecap:square;stroke-linejoin:miter;stroke:rgb(100%,100%,100%);stroke-opacity:1;stroke-miterlimit:10;"></path>
<path d="M 825 25 L 825 125 " style="fill:none;stroke-width:24.75;stroke-linecap:square;stroke-linejoin:miter;stroke:rgb(100%,100%,100%);stroke-opacity:1;stroke-miterlimit:10;"></path>
<path d="M 1025 25 L 950 25 L 925 50 L 925 125 L 1025 125 " style="fill:none;stroke-width:24.75;stroke-linecap:square;stroke-linejoin:miter;stroke:rgb(100%,100%,100%);stroke-opacity:1;stroke-miterlimit:10;"></path>
<path d="M 925 75 L 1025 75 " style="fill:none;stroke-width:24.75;stroke-linecap:square;stroke-linejoin:miter;stroke:rgb(100%,100%,100%);stroke-opacity:1;stroke-miterlimit:10;"></path>
<path stroke-linejoin="miter" id="recolor1800" style="" stroke-opacity="1" stroke-width="8.25" stroke-linecap="square" stroke="rgb(86.27451%,7.843137%,23.529412%)" d="M 25 125 L 25 25 " stroke-miterlimit="10" fill="none"></path>
<path stroke-linejoin="miter" id="recolor1801" style="" stroke-opacity="1" stroke-width="8.25" stroke-linecap="square" stroke="rgb(86.27451%,7.843137%,23.529412%)" d="M 25 125 L 25 100 L 100 25 L 125 25 " stroke-miterlimit="10" fill="none"></path>
<path stroke-linejoin="miter" id="recolor1802" style="" stroke-opacity="1" stroke-width="8.25" stroke-linecap="square" stroke="rgb(52.941176%,80.784314%,98.039216%)" d="M 75 50 L 125 100 L 125 125 " stroke-miterlimit="10" fill="none"></path>
<path stroke-linejoin="miter" id="recolor1803" style="" stroke-opacity="1" stroke-width="8.25" stroke-linecap="square" stroke="rgb(86.27451%,7.843137%,23.529412%)" d="M 275 25 L 200 25 L 175 50 L 175 125 L 275 125 " stroke-miterlimit="10" fill="none"></path>
<path stroke-linejoin="miter" id="recolor1804" style="" stroke-opacity="1" stroke-width="8.25" stroke-linecap="square" stroke="rgb(52.941176%,80.784314%,98.039216%)" d="M 175 75 L 275 75 " stroke-miterlimit="10" fill="none"></path>
<path stroke-linejoin="miter" id="recolor1805" style="" stroke-opacity="1" stroke-width="8.25" stroke-linecap="square" stroke="rgb(86.27451%,7.843137%,23.529412%)" d="M 325 25 L 325 75 L 425 75 " stroke-miterlimit="10" fill="none"></path>
<path stroke-linejoin="miter" id="recolor1806" style="" stroke-opacity="1" stroke-width="8.25" stroke-linecap="square" stroke="rgb(52.941176%,80.784314%,98.039216%)" d="M 425 25 L 425 100 L 400 125 L 325 125 " stroke-miterlimit="10" fill="none"></path>
<path stroke-linejoin="miter" id="recolor1807" style="" stroke-opacity="1" stroke-width="8.25" stroke-linecap="square" stroke="rgb(86.27451%,7.843137%,23.529412%)" d="M 475 125 L 475 25 L 550 25 L 575 50 L 575 125 " stroke-miterlimit="10" fill="none"></path>
<path stroke-linejoin="miter" id="recolor1808" style="" stroke-opacity="1" stroke-width="8.25" stroke-linecap="square" stroke="rgb(52.941176%,80.784314%,98.039216%)" d="M 625 25 L 700 25 L 725 50 L 725 125 L 650 125 L 625 100 Z " stroke-miterlimit="10" fill="none"></path>
<path stroke-linejoin="miter" id="recolor1809" style="" stroke-opacity="1" stroke-width="8.25" stroke-linecap="square" stroke="rgb(86.27451%,7.843137%,23.529412%)" d="M 775 25 L 875 25 " stroke-miterlimit="10" fill="none"></path>
<path stroke-linejoin="miter" id="recolor1810" style="" stroke-opacity="1" stroke-width="8.25" stroke-linecap="square" stroke="rgb(52.941176%,80.784314%,98.039216%)" d="M 825 25 L 825 125 " stroke-miterlimit="10" fill="none"></path>
<path stroke-linejoin="miter" id="recolor1811" style="" stroke-opacity="1" stroke-width="8.25" stroke-linecap="square" stroke="rgb(52.941176%,80.784314%,98.039216%)" d="M 1025 25 L 950 25 L 925 50 L 925 125 L 1025 125 " stroke-miterlimit="10" fill="none"></path>
<path stroke-linejoin="miter" id="recolor1812" style="" stroke-opacity="1" stroke-width="8.25" stroke-linecap="square" stroke="rgb(86.27451%,7.843137%,23.529412%)" d="M 925 75 L 1025 75 " stroke-miterlimit="10" fill="none"></path>
</g>
<style>path {
 transition: stroke 2s linear, stroke-width 2s linear;
}</style></svg>