<?xml version="1.0" encoding="UTF-8"?>
<svg height="150pt" version="1.1" viewBox="0 0 1050 150" width="1050pt" xmlns="http://www.w3.org/2000/svg" xmlns:xlink="http://www.w3.org/1999/xlink">
<g id="surface16819">
<path stroke-linejoin="miter" id="recolor19278" style="" stroke-opacity="1" stroke-width="41.25" stroke-linecap="square" stroke="rgb(86.27451%,7.843137%,23.529412%)" d="M 25 125 L 25 25 " stroke-miterlimit="10" fill="none"></path>
<path stroke-linejoin="miter" id="recolor19279" style="" stroke-opacity="1" stroke-width="41.25" stroke-linecap="square" stroke="rgb(86.27451%,7.843137%,23.529412%)" d="M 25 125 L 25 100 L 100 25 L 125 25 " stroke-miterlimit="10" fill="none"></path>
<path stroke-linejoin="miter" id="recolor19280" style="" stroke-opacity="1" stroke-width="41.25" stroke-linecap="square" stroke="rgb(86.27451%,7.843137%,23.529412%)" d="M 75 50 L 125 100 L 125 125 " stroke-miterlimit="10" fill="none"></path>
<path stroke-linejoin="miter" id="recolor19281" style="" stroke-opacity="1" stroke-width="41.25" stroke-linecap="square" stroke="rgb(86.27451%,7.843137%,23.529412%)" d="M 275 125 L 175 125 L 175 50 L 200 25 L 275 25 L 275 75 L 225 75 " stroke-miterlimit="10" fill="none"></path>
<path stroke-linejoin="miter" id="recolor19282" style="" stroke-opacity="1" stroke-width="41.25" stroke-linecap="square" stroke="rgb(52.941176%,80.784314%,98.039216%)" d="M 325 25 L 325 75 L 425 75 " stroke-miterlimit="10" fill="none"></path>
<path stroke-linejoin="miter" id="recolor19283" style="" stroke-opacity="1" stroke-width="41.25" stroke-linecap="square" stroke="rgb(52.941176%,80.784314%,98.039216%)" d="M 425 25 L 425 100 L 400 125 L 325 125 " stroke-miterlimit="10" fill="none"></path>
<path stroke-linejoin="miter" id="recolor19284" style="" stroke-opacity="1" stroke-width="41.25" stroke-linecap="square" stroke="rgb(86.27451%,7.843137%,23.529412%)" d="M 475 125 L 475 25 L 550 25 L 575 50 L 575 125 " stroke-miterlimit="10" fill="none"></path>
<path stroke-linejoin="miter" id="recolor19285" style="" stroke-opacity="1" stroke-width="41.25" stroke-linecap="square" stroke="rgb(86.27451%,7.843137%,23.529412%)" d="M 625 25 L 700 25 L 725 50 L 725 125 L 650 125 L 625 100 Z " stroke-miterlimit="10" fill="none"></path>
<path stroke-linejoin="miter" id="recolor19286" style="" stroke-opacity="1" stroke-width="41.25" stroke-linecap="square" stroke="rgb(52.941176%,80.784314%,98.039216%)" d="M 775 75 L 775 25 L 875 25 L 875 75 " stroke-miterlimit="10" fill="none"></path>
<path stroke-linejoin="miter" id="recolor19287" style="" stroke-opacity="1" stroke-width="41.25" stroke-linecap="square" stroke="rgb(52.941176%,80.784314%,98.039216%)" d="M 825 25 L 825 125 " stroke-miterlimit="10" fill="none"></path>
<path stroke-linejoin="miter" id="recolor19288" style="" stroke-opacity="1" stroke-width="41.25" stroke-linecap="square" stroke="rgb(52.941176%,80.784314%,98.039216%)" d="M 775 125 L 875 125 " stroke-miterlimit="10" fill="none"></path>
<path stroke-linejoin="miter" id="recolor19289" style="" stroke-opacity="1" stroke-width="41.25" stroke-linecap="square" stroke="rgb(86.27451%,7.843137%,23.529412%)" d="M 1025 125 L 925 125 L 925 50 L 950 25 L 1025 25 L 1025 75 L 975 75 " stroke-miterlimit="10" fill="none"></path>
<path d="M 25 125 L 25 25 " style="fill:none;stroke-width:24.75;stroke-linecap:square;stroke-linejoin:miter;stroke:rgb(100%,100%,100%);stroke-opacity:1;stroke-miterlimit:10;"></path>
<path d="M 25 125 L 25 100 L 100 25 L 125 25 " style="fill:none;stroke-width:24.75;stroke-linecap:square;stroke-linejoin:miter;stroke:rgb(100%,100%,100%);stroke-opacity:1;stroke-miterlimit:10;"></path>
<path d="M 75 50 L 125 100 L 125 125 " style="fill:none;stroke-width:24.75;stroke-linecap:square;stroke-linejoin:miter;stroke:rgb(100%,100%,100%);stroke-opacity:1;stroke-miterlimit:10;"></path>
<path d="M 275 125 L 175 125 L 175 50 L 200 25 L 275 25 L 275 75 L 225 75 " style="fill:none;stroke-width:24.75;stroke-linecap:square;stroke-linejoin:miter;stroke:rgb(100%,100%,100%);stroke-opacity:1;stroke-miterlimit:10;"></path>
<path d="M 325 25 L 325 75 L 425 75 " style="fill:none;stroke-width:24.75;stroke-linecap:square;stroke-linejoin:miter;stroke:rgb(100%,100%,100%);stroke-opacity:1;stroke-miterlimit:10;"></path>
<path d="M 425 25 L 425 100 L 400 125 L 325 125 " style="fill:none;stroke-width:24.75;stroke-linecap:square;stroke-linejoin:miter;stroke:rgb(100%,100%,100%);stroke-opacity:1;stroke-miterlimit:10;"></path>
<path d="M 475 125 L 475 25 L 550 25 L 575 50 L 575 125 " style="fill:none;stroke-width:24.75;stroke-linecap:square;stroke-linejoin:miter;stroke:rgb(100%,100%,100%);stroke-opacity:1;stroke-miterlimit:10;"></path>
<path d="M 625 25 L 700 25 L 725 50 L 725 125 L 650 125 L 625 100 Z " style="fill:none;stroke-width:24.75;stroke-linecap:square;stroke-linejoin:miter;stroke:rgb(100%,100%,100%);stroke-opacity:1;stroke-miterlimit:10;"></path>
<path d="M 775 75 L 775 25 L 875 25 L 875 75 " style="fill:none;stroke-width:24.75;stroke-linecap:square;stroke-linejoin:miter;stroke:rgb(100%,100%,100%);stroke-opacity:1;stroke-miterlimit:10;"></path>
<path d="M 825 25 L 825 125 " style="fill:none;stroke-width:24.75;stroke-linecap:square;stroke-linejoin:miter;stroke:rgb(100%,100%,100%);stroke-opacity:1;stroke-miterlimit:10;"></path>
<path d="M 775 125 L 875 125 " style="fill:none;stroke-width:24.75;stroke-linecap:square;stroke-linejoin:miter;stroke:rgb(100%,100%,100%);stroke-opacity:1;stroke-miterlimit:10;"></path>
<path d="M 1025 125 L 925 125 L 925 50 L 950 25 L 1025 25 L 1025 75 L 975 75 " style="fill:none;stroke-width:24.75;stroke-linecap:square;stroke-linejoin:miter;stroke:rgb(100%,100%,100%);stroke-opacity:1;stroke-miterlimit:10;"></path>
<path stroke-linejoin="miter" id="recolor19290" style="" stroke-opacity="1" stroke-width="8.25" stroke-linecap="square" stroke="rgb(52.941176%,80.784314%,98.039216%)" d="M 25 125 L 25 25 " stroke-miterlimit="10" fill="none"></path>
<path stroke-linejoin="miter" id="recolor19291" style="" stroke-opacity="1" stroke-width="8.25" stroke-linecap="square" stroke="rgb(52.941176%,80.784314%,98.039216%)" d="M 25 125 L 25 100 L 100 25 L 125 25 " stroke-miterlimit="10" fill="none"></path>
<path stroke-linejoin="miter" id="recolor19292" style="" stroke-opacity="1" stroke-width="8.25" stroke-linecap="square" stroke="rgb(52.941176%,80.784314%,98.039216%)" d="M 75 50 L 125 100 L 125 125 " stroke-miterlimit="10" fill="none"></path>
<path stroke-linejoin="miter" id="recolor19293" style="" stroke-opacity="1" stroke-width="8.25" stroke-linecap="square" stroke="rgb(86.27451%,7.843137%,23.529412%)" d="M 275 125 L 175 125 L 175 50 L 200 25 L 275 25 L 275 75 L 225 75 " stroke-miterlimit="10" fill="none"></path>
<path stroke-linejoin="miter" id="recolor19294" style="" stroke-opacity="1" stroke-width="8.25" stroke-linecap="square" stroke="rgb(86.27451%,7.843137%,23.529412%)" d="M 325 25 L 325 75 L 425 75 " stroke-miterlimit="10" fill="none"></path>
<path stroke-linejoin="miter" id="recolor19295" style="" stroke-opacity="1" stroke-width="8.25" stroke-linecap="square" stroke="rgb(86.27451%,7.843137%,23.529412%)" d="M 425 25 L 425 100 L 400 125 L 325 125 " stroke-miterlimit="10" fill="none"></path>
<path stroke-linejoin="miter" id="recolor19296" style="" stroke-opacity="1" stroke-width="8.25" stroke-linecap="square" stroke="rgb(52.941176%,80.784314%,98.039216%)" d="M 475 125 L 475 25 L 550 25 L 575 50 L 575 125 " stroke-miterlimit="10" fill="none"></path>
<path stroke-linejoin="miter" id="recolor19297" style="" stroke-opacity="1" stroke-width="8.25" stroke-linecap="square" stroke="rgb(86.27451%,7.843137%,23.529412%)" d="M 625 25 L 700 25 L 725 50 L 725 125 L 650 125 L 625 100 Z " stroke-miterlimit="10" fill="none"></path>
<path stroke-linejoin="miter" id="recolor19298" style="" stroke-opacity="1" stroke-width="8.25" stroke-linecap="square" stroke="rgb(86.27451%,7.843137%,23.529412%)" d="M 775 75 L 775 25 L 875 25 L 875 75 " stroke-miterlimit="10" fill="none"></path>
<path stroke-linejoin="miter" id="recolor19299" style="" stroke-opacity="1" stroke-width="8.25" stroke-linecap="square" stroke="rgb(86.27451%,7.843137%,23.529412%)" d="M 825 25 L 825 125 " stroke-miterlimit="10" fill="none"></path>
<path stroke-linejoin="miter" id="recolor19300" style="" stroke-opacity="1" stroke-width="8.25" stroke-linecap="square" stroke="rgb(86.27451%,7.843137%,23.529412%)" d="M 775 125 L 875 125 " stroke-miterlimit="10" fill="none"></path>
<path stroke-linejoin="miter" id="recolor19301" style="" stroke-opacity="1" stroke-width="8.25" stroke-linecap="square" stroke="rgb(52.941176%,80.784314%,98.039216%)" d="M 1025 125 L 925 125 L 925 50 L 950 25 L 1025 25 L 1025 75 L 975 75 " stroke-miterlimit="10" fill="none"></path>
</g>
<style>path {
 transition: stroke 2s linear;
}
path:hover {
 stroke-width: 25;
 transition: stroke-width 0.3s ease;
 }</style></svg>