<?xml version="1.0" encoding="UTF-8"?>
<svg xmlns="http://www.w3.org/2000/svg" xmlns:xlink="http://www.w3.org/1999/xlink" width="1050pt" height="150pt" viewBox="0 0 1050 150" version="1.1">
<g id="surface5469">
<path style="fill:none;stroke-width:41.25;stroke-linecap:square;stroke-linejoin:miter;stroke:rgb(0%,0%,0%);stroke-opacity:1;stroke-miterlimit:10;" d="M 25 125 L 25 25 "/>
<path style="fill:none;stroke-width:41.25;stroke-linecap:square;stroke-linejoin:miter;stroke:rgb(0%,0%,0%);stroke-opacity:1;stroke-miterlimit:10;" d="M 25 125 L 25 100 L 100 25 L 125 25 "/>
<path style="fill:none;stroke-width:41.25;stroke-linecap:square;stroke-linejoin:miter;stroke:rgb(0%,0%,0%);stroke-opacity:1;stroke-miterlimit:10;" d="M 75 50 L 125 100 L 125 125 "/>
<path style="fill:none;stroke-width:41.25;stroke-linecap:square;stroke-linejoin:miter;stroke:rgb(0%,0%,0%);stroke-opacity:1;stroke-miterlimit:10;" d="M 275 25 L 200 25 L 175 50 L 175 125 L 275 125 "/>
<path style="fill:none;stroke-width:41.25;stroke-linecap:square;stroke-linejoin:miter;stroke:rgb(0%,0%,0%);stroke-opacity:1;stroke-miterlimit:10;" d="M 175 75 L 275 75 "/>
<path style="fill:none;stroke-width:41.25;stroke-linecap:square;stroke-linejoin:miter;stroke:rgb(0%,0%,0%);stroke-opacity:1;stroke-miterlimit:10;" d="M 325 25 L 325 75 L 425 75 "/>
<path style="fill:none;stroke-width:41.25;stroke-linecap:square;stroke-linejoin:miter;stroke:rgb(0%,0%,0%);stroke-opacity:1;stroke-miterlimit:10;" d="M 425 25 L 425 100 L 400 125 L 325 125 "/>
<path style="fill:none;stroke-width:41.25;stroke-linecap:square;stroke-linejoin:miter;stroke:rgb(0%,0%,0%);stroke-opacity:1;stroke-miterlimit:10;" d="M 475 125 L 475 25 L 550 25 L 575 50 L 575 125 "/>
<path style="fill:none;stroke-width:41.25;stroke-linecap:square;stroke-linejoin:miter;stroke:rgb(0%,0%,0%);stroke-opacity:1;stroke-miterlimit:10;" d="M 625 25 L 700 25 L 725 50 L 725 125 L 650 125 L 625 100 Z "/>
<path style="fill:none;stroke-width:41.25;stroke-linecap:square;stroke-linejoin:miter;stroke:rgb(0%,0%,0%);stroke-opacity:1;stroke-miterlimit:10;" d="M 775 25 L 875 25 "/>
<path style="fill:none;stroke-width:41.25;stroke-linecap:square;stroke-linejoin:miter;stroke:rgb(0%,0%,0%);stroke-opacity:1;stroke-miterlimit:10;" d="M 825 25 L 825 125 "/>
<path style="fill:none;stroke-width:41.25;stroke-linecap:square;stroke-linejoin:miter;stroke:rgb(0%,0%,0%);stroke-opacity:1;stroke-miterlimit:10;" d="M 1025 25 L 950 25 L 925 50 L 925 125 L 1025 125 "/>
<path style="fill:none;stroke-width:41.25;stroke-linecap:square;stroke-linejoin:miter;stroke:rgb(0%,0%,0%);stroke-opacity:1;stroke-miterlimit:10;" d="M 925 75 L 1025 75 "/>
<path style="fill:none;stroke-width:24.75;stroke-linecap:square;stroke-linejoin:miter;stroke:rgb(100%,100%,100%);stroke-opacity:1;stroke-miterlimit:10;" d="M 25 125 L 25 25 "/>
<path style="fill:none;stroke-width:24.75;stroke-linecap:square;stroke-linejoin:miter;stroke:rgb(100%,100%,100%);stroke-opacity:1;stroke-miterlimit:10;" d="M 25 125 L 25 100 L 100 25 L 125 25 "/>
<path style="fill:none;stroke-width:24.75;stroke-linecap:square;stroke-linejoin:miter;stroke:rgb(100%,100%,100%);stroke-opacity:1;stroke-miterlimit:10;" d="M 75 50 L 125 100 L 125 125 "/>
<path style="fill:none;stroke-width:24.75;stroke-linecap:square;stroke-linejoin:miter;stroke:rgb(100%,100%,100%);stroke-opacity:1;stroke-miterlimit:10;" d="M 275 25 L 200 25 L 175 50 L 175 125 L 275 125 "/>
<path style="fill:none;stroke-width:24.75;stroke-linecap:square;stroke-linejoin:miter;stroke:rgb(100%,100%,100%);stroke-opacity:1;stroke-miterlimit:10;" d="M 175 75 L 275 75 "/>
<path style="fill:none;stroke-width:24.75;stroke-linecap:square;stroke-linejoin:miter;stroke:rgb(100%,100%,100%);stroke-opacity:1;stroke-miterlimit:10;" d="M 325 25 L 325 75 L 425 75 "/>
<path style="fill:none;stroke-width:24.75;stroke-linecap:square;stroke-linejoin:miter;stroke:rgb(100%,100%,100%);stroke-opacity:1;stroke-miterlimit:10;" d="M 425 25 L 425 100 L 400 125 L 325 125 "/>
<path style="fill:none;stroke-width:24.75;stroke-linecap:square;stroke-linejoin:miter;stroke:rgb(100%,100%,100%);stroke-opacity:1;stroke-miterlimit:10;" d="M 475 125 L 475 25 L 550 25 L 575 50 L 575 125 "/>
<path style="fill:none;stroke-width:24.75;stroke-linecap:square;stroke-linejoin:miter;stroke:rgb(100%,100%,100%);stroke-opacity:1;stroke-miterlimit:10;" d="M 625 25 L 700 25 L 725 50 L 725 125 L 650 125 L 625 100 Z "/>
<path style="fill:none;stroke-width:24.75;stroke-linecap:square;stroke-linejoin:miter;stroke:rgb(100%,100%,100%);stroke-opacity:1;stroke-miterlimit:10;" d="M 775 25 L 875 25 "/>
<path style="fill:none;stroke-width:24.75;stroke-linecap:square;stroke-linejoin:miter;stroke:rgb(100%,100%,100%);stroke-opacity:1;stroke-miterlimit:10;" d="M 825 25 L 825 125 "/>
<path style="fill:none;stroke-width:24.75;stroke-linecap:square;stroke-linejoin:miter;stroke:rgb(100%,100%,100%);stroke-opacity:1;stroke-miterlimit:10;" d="M 1025 25 L 950 25 L 925 50 L 925 125 L 1025 125 "/>
<path style="fill:none;stroke-width:24.75;stroke-linecap:square;stroke-linejoin:miter;stroke:rgb(100%,100%,100%);stroke-opacity:1;stroke-miterlimit:10;" d="M 925 75 L 1025 75 "/>
<path style="fill:none;stroke-width:8.25;stroke-linecap:square;stroke-linejoin:miter;stroke:rgb(86.27451%,7.843137%,23.529412%);stroke-opacity:1;stroke-miterlimit:10;" d="M 25 125 L 25 25 "/>
<path style="fill:none;stroke-width:8.25;stroke-linecap:square;stroke-linejoin:miter;stroke:rgb(86.27451%,7.843137%,23.529412%);stroke-opacity:1;stroke-miterlimit:10;" d="M 25 125 L 25 100 L 100 25 L 125 25 "/>
<path style="fill:none;stroke-width:8.25;stroke-linecap:square;stroke-linejoin:miter;stroke:rgb(86.27451%,7.843137%,23.529412%);stroke-opacity:1;stroke-miterlimit:10;" d="M 75 50 L 125 100 L 125 125 "/>
<path style="fill:none;stroke-width:8.25;stroke-linecap:square;stroke-linejoin:miter;stroke:rgb(52.941176%,80.784314%,98.039216%);stroke-opacity:1;stroke-miterlimit:10;" d="M 275 25 L 200 25 L 175 50 L 175 125 L 275 125 "/>
<path style="fill:none;stroke-width:8.25;stroke-linecap:square;stroke-linejoin:miter;stroke:rgb(52.941176%,80.784314%,98.039216%);stroke-opacity:1;stroke-miterlimit:10;" d="M 175 75 L 275 75 "/>
<path style="fill:none;stroke-width:8.25;stroke-linecap:square;stroke-linejoin:miter;stroke:rgb(52.941176%,80.784314%,98.039216%);stroke-opacity:1;stroke-miterlimit:10;" d="M 325 25 L 325 75 L 425 75 "/>
<path style="fill:none;stroke-width:8.25;stroke-linecap:square;stroke-linejoin:miter;stroke:rgb(52.941176%,80.784314%,98.039216%);stroke-opacity:1;stroke-miterlimit:10;" d="M 425 25 L 425 100 L 400 125 L 325 125 "/>
<path style="fill:none;stroke-width:8.25;stroke-linecap:square;stroke-linejoin:miter;stroke:rgb(52.941176%,80.784314%,98.039216%);stroke-opacity:1;stroke-miterlimit:10;" d="M 475 125 L 475 25 L 550 25 L 575 50 L 575 125 "/>
<path style="fill:none;stroke-width:8.25;stroke-linecap:square;stroke-linejoin:miter;stroke:rgb(86.27451%,7.843137%,23.529412%);stroke-opacity:1;stroke-miterlimit:10;" d="M 625 25 L 700 25 L 725 50 L 725 125 L 650 125 L 625 100 Z "/>
<path style="fill:none;stroke-width:8.25;stroke-linecap:square;stroke-linejoin:miter;stroke:rgb(52.941176%,80.784314%,98.039216%);stroke-opacity:1;stroke-miterlimit:10;" d="M 775 25 L 875 25 "/>
<path style="fill:none;stroke-width:8.25;stroke-linecap:square;stroke-linejoin:miter;stroke:rgb(52.941176%,80.784314%,98.039216%);stroke-opacity:1;stroke-miterlimit:10;" d="M 825 25 L 825 125 "/>
<path style="fill:none;stroke-width:8.25;stroke-linecap:square;stroke-linejoin:miter;stroke:rgb(52.941176%,80.784314%,98.039216%);stroke-opacity:1;stroke-miterlimit:10;" d="M 1025 25 L 950 25 L 925 50 L 925 125 L 1025 125 "/>
<path style="fill:none;stroke-width:8.25;stroke-linecap:square;stroke-linejoin:miter;stroke:rgb(52.941176%,80.784314%,98.039216%);stroke-opacity:1;stroke-miterlimit:10;" d="M 925 75 L 1025 75 "/>
</g>
</svg>
