<?xml version="1.0" encoding="UTF-8"?>
<svg height="450pt" version="1.1" viewBox="0 0 900 450" width="900pt" xmlns="http://www.w3.org/2000/svg" xmlns:xlink="http://www.w3.org/1999/xlink">
<g id="surface14990">
<path stroke-linejoin="miter" id="recolor3434" style="" stroke-opacity="1" stroke-width="41.25" stroke-linecap="square" stroke="rgb(52.941176%,80.784314%,98.039216%)" d="M 125 25 L 100 25 L 75 50 L 75 100 L 100 125 L 125 125 " stroke-miterlimit="10" fill="none"></path>
<path stroke-linejoin="miter" id="recolor3435" style="" stroke-opacity="1" stroke-width="41.25" stroke-linecap="square" stroke="rgb(52.941176%,80.784314%,98.039216%)" d="M 175 125 L 250 125 L 275 100 L 275 75 L 175 75 L 175 50 L 200 25 L 275 25 " stroke-miterlimit="10" fill="none"></path>
<path stroke-linejoin="miter" id="recolor3436" style="" stroke-opacity="1" stroke-width="41.25" stroke-linecap="square" stroke="rgb(52.941176%,80.784314%,98.039216%)" d="M 325 125 L 425 125 " stroke-miterlimit="10" fill="none"></path>
<path stroke-linejoin="miter" id="recolor3437" style="" stroke-opacity="1" stroke-width="41.25" stroke-linecap="square" stroke="rgb(86.27451%,7.843137%,23.529412%)" d="M 325 25 L 425 25 " stroke-miterlimit="10" fill="none"></path>
<path stroke-linejoin="miter" id="recolor3438" style="" stroke-opacity="1" stroke-width="41.25" stroke-linecap="square" stroke="rgb(86.27451%,7.843137%,23.529412%)" d="M 375 125 L 375 25 " stroke-miterlimit="10" fill="none"></path>
<path stroke-linejoin="miter" id="recolor3439" style="" stroke-opacity="1" stroke-width="41.25" stroke-linecap="square" stroke="rgb(86.27451%,7.843137%,23.529412%)" d="M 475 25 L 475 50 L 500 75 L 550 75 L 575 100 L 575 125 " stroke-miterlimit="10" fill="none"></path>
<path stroke-linejoin="miter" id="recolor3440" style="" stroke-opacity="1" stroke-width="41.25" stroke-linecap="square" stroke="rgb(86.27451%,7.843137%,23.529412%)" d="M 475 125 L 475 100 L 500 75 L 550 75 L 575 50 L 575 25 " stroke-miterlimit="10" fill="none"></path>
<path stroke-linejoin="miter" id="recolor3441" style="" stroke-opacity="1" stroke-width="41.25" stroke-linecap="square" stroke="rgb(52.941176%,80.784314%,98.039216%)" d="M 625 75 L 625 25 L 725 25 L 725 75 " stroke-miterlimit="10" fill="none"></path>
<path stroke-linejoin="miter" id="recolor3442" style="" stroke-opacity="1" stroke-width="41.25" stroke-linecap="square" stroke="rgb(86.27451%,7.843137%,23.529412%)" d="M 675 25 L 675 125 " stroke-miterlimit="10" fill="none"></path>
<path stroke-linejoin="miter" id="recolor3443" style="" stroke-opacity="1" stroke-width="41.25" stroke-linecap="square" stroke="rgb(52.941176%,80.784314%,98.039216%)" d="M 625 125 L 725 125 " stroke-miterlimit="10" fill="none"></path>
<path stroke-linejoin="miter" id="recolor3444" style="" stroke-opacity="1" stroke-width="41.25" stroke-linecap="square" stroke="rgb(86.27451%,7.843137%,23.529412%)" d="M 775 125 L 775 25 " stroke-miterlimit="10" fill="none"></path>
<path stroke-linejoin="miter" id="recolor3445" style="" stroke-opacity="1" stroke-width="41.25" stroke-linecap="square" stroke="rgb(52.941176%,80.784314%,98.039216%)" d="M 875 125 L 875 25 " stroke-miterlimit="10" fill="none"></path>
<path stroke-linejoin="miter" id="recolor3446" style="" stroke-opacity="1" stroke-width="41.25" stroke-linecap="square" stroke="rgb(86.27451%,7.843137%,23.529412%)" d="M 775 75 L 875 75 " stroke-miterlimit="10" fill="none"></path>
<path d="M 125 25 L 100 25 L 75 50 L 75 100 L 100 125 L 125 125 " style="fill:none;stroke-width:24.75;stroke-linecap:square;stroke-linejoin:miter;stroke:rgb(100%,100%,100%);stroke-opacity:1;stroke-miterlimit:10;"></path>
<path d="M 175 125 L 250 125 L 275 100 L 275 75 L 175 75 L 175 50 L 200 25 L 275 25 " style="fill:none;stroke-width:24.75;stroke-linecap:square;stroke-linejoin:miter;stroke:rgb(100%,100%,100%);stroke-opacity:1;stroke-miterlimit:10;"></path>
<path d="M 325 125 L 425 125 " style="fill:none;stroke-width:24.75;stroke-linecap:square;stroke-linejoin:miter;stroke:rgb(100%,100%,100%);stroke-opacity:1;stroke-miterlimit:10;"></path>
<path d="M 325 25 L 425 25 " style="fill:none;stroke-width:24.75;stroke-linecap:square;stroke-linejoin:miter;stroke:rgb(100%,100%,100%);stroke-opacity:1;stroke-miterlimit:10;"></path>
<path d="M 375 125 L 375 25 " style="fill:none;stroke-width:24.75;stroke-linecap:square;stroke-linejoin:miter;stroke:rgb(100%,100%,100%);stroke-opacity:1;stroke-miterlimit:10;"></path>
<path d="M 475 25 L 475 50 L 500 75 L 550 75 L 575 100 L 575 125 " style="fill:none;stroke-width:24.75;stroke-linecap:square;stroke-linejoin:miter;stroke:rgb(100%,100%,100%);stroke-opacity:1;stroke-miterlimit:10;"></path>
<path d="M 475 125 L 475 100 L 500 75 L 550 75 L 575 50 L 575 25 " style="fill:none;stroke-width:24.75;stroke-linecap:square;stroke-linejoin:miter;stroke:rgb(100%,100%,100%);stroke-opacity:1;stroke-miterlimit:10;"></path>
<path d="M 625 75 L 625 25 L 725 25 L 725 75 " style="fill:none;stroke-width:24.75;stroke-linecap:square;stroke-linejoin:miter;stroke:rgb(100%,100%,100%);stroke-opacity:1;stroke-miterlimit:10;"></path>
<path d="M 675 25 L 675 125 " style="fill:none;stroke-width:24.75;stroke-linecap:square;stroke-linejoin:miter;stroke:rgb(100%,100%,100%);stroke-opacity:1;stroke-miterlimit:10;"></path>
<path d="M 625 125 L 725 125 " style="fill:none;stroke-width:24.75;stroke-linecap:square;stroke-linejoin:miter;stroke:rgb(100%,100%,100%);stroke-opacity:1;stroke-miterlimit:10;"></path>
<path d="M 775 125 L 775 25 " style="fill:none;stroke-width:24.75;stroke-linecap:square;stroke-linejoin:miter;stroke:rgb(100%,100%,100%);stroke-opacity:1;stroke-miterlimit:10;"></path>
<path d="M 875 125 L 875 25 " style="fill:none;stroke-width:24.75;stroke-linecap:square;stroke-linejoin:miter;stroke:rgb(100%,100%,100%);stroke-opacity:1;stroke-miterlimit:10;"></path>
<path d="M 775 75 L 875 75 " style="fill:none;stroke-width:24.75;stroke-linecap:square;stroke-linejoin:miter;stroke:rgb(100%,100%,100%);stroke-opacity:1;stroke-miterlimit:10;"></path>
<path stroke-linejoin="miter" id="recolor3447" style="" stroke-opacity="1" stroke-width="8.25" stroke-linecap="square" stroke="rgb(52.941176%,80.784314%,98.039216%)" d="M 125 25 L 100 25 L 75 50 L 75 100 L 100 125 L 125 125 " stroke-miterlimit="10" fill="none"></path>
<path stroke-linejoin="miter" id="recolor3448" style="" stroke-opacity="1" stroke-width="8.25" stroke-linecap="square" stroke="rgb(52.941176%,80.784314%,98.039216%)" d="M 175 125 L 250 125 L 275 100 L 275 75 L 175 75 L 175 50 L 200 25 L 275 25 " stroke-miterlimit="10" fill="none"></path>
<path stroke-linejoin="miter" id="recolor3449" style="" stroke-opacity="1" stroke-width="8.25" stroke-linecap="square" stroke="rgb(86.27451%,7.843137%,23.529412%)" d="M 325 125 L 425 125 " stroke-miterlimit="10" fill="none"></path>
<path stroke-linejoin="miter" id="recolor3450" style="" stroke-opacity="1" stroke-width="8.25" stroke-linecap="square" stroke="rgb(52.941176%,80.784314%,98.039216%)" d="M 325 25 L 425 25 " stroke-miterlimit="10" fill="none"></path>
<path stroke-linejoin="miter" id="recolor3451" style="" stroke-opacity="1" stroke-width="8.25" stroke-linecap="square" stroke="rgb(86.27451%,7.843137%,23.529412%)" d="M 375 125 L 375 25 " stroke-miterlimit="10" fill="none"></path>
<path stroke-linejoin="miter" id="recolor3452" style="" stroke-opacity="1" stroke-width="8.25" stroke-linecap="square" stroke="rgb(86.27451%,7.843137%,23.529412%)" d="M 475 25 L 475 50 L 500 75 L 550 75 L 575 100 L 575 125 " stroke-miterlimit="10" fill="none"></path>
<path stroke-linejoin="miter" id="recolor3453" style="" stroke-opacity="1" stroke-width="8.25" stroke-linecap="square" stroke="rgb(52.941176%,80.784314%,98.039216%)" d="M 475 125 L 475 100 L 500 75 L 550 75 L 575 50 L 575 25 " stroke-miterlimit="10" fill="none"></path>
<path stroke-linejoin="miter" id="recolor3454" style="" stroke-opacity="1" stroke-width="8.25" stroke-linecap="square" stroke="rgb(52.941176%,80.784314%,98.039216%)" d="M 625 75 L 625 25 L 725 25 L 725 75 " stroke-miterlimit="10" fill="none"></path>
<path stroke-linejoin="miter" id="recolor3455" style="" stroke-opacity="1" stroke-width="8.25" stroke-linecap="square" stroke="rgb(52.941176%,80.784314%,98.039216%)" d="M 675 25 L 675 125 " stroke-miterlimit="10" fill="none"></path>
<path stroke-linejoin="miter" id="recolor3456" style="" stroke-opacity="1" stroke-width="8.25" stroke-linecap="square" stroke="rgb(86.27451%,7.843137%,23.529412%)" d="M 625 125 L 725 125 " stroke-miterlimit="10" fill="none"></path>
<path stroke-linejoin="miter" id="recolor3457" style="" stroke-opacity="1" stroke-width="8.25" stroke-linecap="square" stroke="rgb(52.941176%,80.784314%,98.039216%)" d="M 775 125 L 775 25 " stroke-miterlimit="10" fill="none"></path>
<path stroke-linejoin="miter" id="recolor3458" style="" stroke-opacity="1" stroke-width="8.25" stroke-linecap="square" stroke="rgb(86.27451%,7.843137%,23.529412%)" d="M 875 125 L 875 25 " stroke-miterlimit="10" fill="none"></path>
<path stroke-linejoin="miter" id="recolor3459" style="" stroke-opacity="1" stroke-width="8.25" stroke-linecap="square" stroke="rgb(86.27451%,7.843137%,23.529412%)" d="M 775 75 L 875 75 " stroke-miterlimit="10" fill="none"></path>
<path stroke-linejoin="miter" id="recolor3460" style="" stroke-opacity="1" stroke-width="41.25" stroke-linecap="square" stroke="rgb(52.941176%,80.784314%,98.039216%)" d="M 25 275 L 25 175 L 100 175 L 125 200 L 125 225 L 75 225 L 75 250 L 100 275 L 125 275 " stroke-miterlimit="10" fill="none"></path>
<path stroke-linejoin="miter" id="recolor3461" style="" stroke-opacity="1" stroke-width="41.25" stroke-linecap="square" stroke="rgb(86.27451%,7.843137%,23.529412%)" d="M 175 175 L 250 175 L 275 200 L 275 275 L 200 275 L 175 250 L 175 225 L 225 225 " stroke-miterlimit="10" fill="none"></path>
<path stroke-linejoin="miter" id="recolor3462" style="" stroke-opacity="1" stroke-width="41.25" stroke-linecap="square" stroke="rgb(86.27451%,7.843137%,23.529412%)" d="M 425 250 L 425 275 L 325 275 L 325 200 L 350 175 L 425 175 L 425 200 " stroke-miterlimit="10" fill="none"></path>
<path stroke-linejoin="miter" id="recolor3463" style="" stroke-opacity="1" stroke-width="41.25" stroke-linecap="square" stroke="rgb(86.27451%,7.843137%,23.529412%)" d="M 475 275 L 475 175 " stroke-miterlimit="10" fill="none"></path>
<path stroke-linejoin="miter" id="recolor3464" style="" stroke-opacity="1" stroke-width="41.25" stroke-linecap="square" stroke="rgb(52.941176%,80.784314%,98.039216%)" d="M 475 275 L 475 250 L 550 175 L 575 175 " stroke-miterlimit="10" fill="none"></path>
<path stroke-linejoin="miter" id="recolor3465" style="" stroke-opacity="1" stroke-width="41.25" stroke-linecap="square" stroke="rgb(86.27451%,7.843137%,23.529412%)" d="M 525 200 L 575 250 L 575 275 " stroke-miterlimit="10" fill="none"></path>
<path stroke-linejoin="miter" id="recolor3466" style="" stroke-opacity="1" stroke-width="41.25" stroke-linecap="square" stroke="rgb(86.27451%,7.843137%,23.529412%)" d="M 725 175 L 650 175 L 625 200 L 625 275 L 725 275 " stroke-miterlimit="10" fill="none"></path>
<path stroke-linejoin="miter" id="recolor3467" style="" stroke-opacity="1" stroke-width="41.25" stroke-linecap="square" stroke="rgb(86.27451%,7.843137%,23.529412%)" d="M 625 225 L 725 225 " stroke-miterlimit="10" fill="none"></path>
<path stroke-linejoin="miter" id="recolor3468" style="" stroke-opacity="1" stroke-width="41.25" stroke-linecap="square" stroke="rgb(86.27451%,7.843137%,23.529412%)" d="M 775 225 L 775 175 L 875 175 L 875 225 " stroke-miterlimit="10" fill="none"></path>
<path stroke-linejoin="miter" id="recolor3469" style="" stroke-opacity="1" stroke-width="41.25" stroke-linecap="square" stroke="rgb(86.27451%,7.843137%,23.529412%)" d="M 825 175 L 825 275 " stroke-miterlimit="10" fill="none"></path>
<path stroke-linejoin="miter" id="recolor3470" style="" stroke-opacity="1" stroke-width="41.25" stroke-linecap="square" stroke="rgb(52.941176%,80.784314%,98.039216%)" d="M 775 275 L 875 275 " stroke-miterlimit="10" fill="none"></path>
<path d="M 25 275 L 25 175 L 100 175 L 125 200 L 125 225 L 75 225 L 75 250 L 100 275 L 125 275 " style="fill:none;stroke-width:24.75;stroke-linecap:square;stroke-linejoin:miter;stroke:rgb(100%,100%,100%);stroke-opacity:1;stroke-miterlimit:10;"></path>
<path d="M 175 175 L 250 175 L 275 200 L 275 275 L 200 275 L 175 250 L 175 225 L 225 225 " style="fill:none;stroke-width:24.75;stroke-linecap:square;stroke-linejoin:miter;stroke:rgb(100%,100%,100%);stroke-opacity:1;stroke-miterlimit:10;"></path>
<path d="M 425 250 L 425 275 L 325 275 L 325 200 L 350 175 L 425 175 L 425 200 " style="fill:none;stroke-width:24.75;stroke-linecap:square;stroke-linejoin:miter;stroke:rgb(100%,100%,100%);stroke-opacity:1;stroke-miterlimit:10;"></path>
<path d="M 475 275 L 475 175 " style="fill:none;stroke-width:24.75;stroke-linecap:square;stroke-linejoin:miter;stroke:rgb(100%,100%,100%);stroke-opacity:1;stroke-miterlimit:10;"></path>
<path d="M 475 275 L 475 250 L 550 175 L 575 175 " style="fill:none;stroke-width:24.75;stroke-linecap:square;stroke-linejoin:miter;stroke:rgb(100%,100%,100%);stroke-opacity:1;stroke-miterlimit:10;"></path>
<path d="M 525 200 L 575 250 L 575 275 " style="fill:none;stroke-width:24.75;stroke-linecap:square;stroke-linejoin:miter;stroke:rgb(100%,100%,100%);stroke-opacity:1;stroke-miterlimit:10;"></path>
<path d="M 725 175 L 650 175 L 625 200 L 625 275 L 725 275 " style="fill:none;stroke-width:24.75;stroke-linecap:square;stroke-linejoin:miter;stroke:rgb(100%,100%,100%);stroke-opacity:1;stroke-miterlimit:10;"></path>
<path d="M 625 225 L 725 225 " style="fill:none;stroke-width:24.75;stroke-linecap:square;stroke-linejoin:miter;stroke:rgb(100%,100%,100%);stroke-opacity:1;stroke-miterlimit:10;"></path>
<path d="M 775 225 L 775 175 L 875 175 L 875 225 " style="fill:none;stroke-width:24.75;stroke-linecap:square;stroke-linejoin:miter;stroke:rgb(100%,100%,100%);stroke-opacity:1;stroke-miterlimit:10;"></path>
<path d="M 825 175 L 825 275 " style="fill:none;stroke-width:24.75;stroke-linecap:square;stroke-linejoin:miter;stroke:rgb(100%,100%,100%);stroke-opacity:1;stroke-miterlimit:10;"></path>
<path d="M 775 275 L 875 275 " style="fill:none;stroke-width:24.75;stroke-linecap:square;stroke-linejoin:miter;stroke:rgb(100%,100%,100%);stroke-opacity:1;stroke-miterlimit:10;"></path>
<path stroke-linejoin="miter" id="recolor3471" style="" stroke-opacity="1" stroke-width="8.25" stroke-linecap="square" stroke="rgb(52.941176%,80.784314%,98.039216%)" d="M 25 275 L 25 175 L 100 175 L 125 200 L 125 225 L 75 225 L 75 250 L 100 275 L 125 275 " stroke-miterlimit="10" fill="none"></path>
<path stroke-linejoin="miter" id="recolor3472" style="" stroke-opacity="1" stroke-width="8.25" stroke-linecap="square" stroke="rgb(86.27451%,7.843137%,23.529412%)" d="M 175 175 L 250 175 L 275 200 L 275 275 L 200 275 L 175 250 L 175 225 L 225 225 " stroke-miterlimit="10" fill="none"></path>
<path stroke-linejoin="miter" id="recolor3473" style="" stroke-opacity="1" stroke-width="8.25" stroke-linecap="square" stroke="rgb(86.27451%,7.843137%,23.529412%)" d="M 425 250 L 425 275 L 325 275 L 325 200 L 350 175 L 425 175 L 425 200 " stroke-miterlimit="10" fill="none"></path>
<path stroke-linejoin="miter" id="recolor3474" style="" stroke-opacity="1" stroke-width="8.25" stroke-linecap="square" stroke="rgb(86.27451%,7.843137%,23.529412%)" d="M 475 275 L 475 175 " stroke-miterlimit="10" fill="none"></path>
<path stroke-linejoin="miter" id="recolor3475" style="" stroke-opacity="1" stroke-width="8.25" stroke-linecap="square" stroke="rgb(86.27451%,7.843137%,23.529412%)" d="M 475 275 L 475 250 L 550 175 L 575 175 " stroke-miterlimit="10" fill="none"></path>
<path stroke-linejoin="miter" id="recolor3476" style="" stroke-opacity="1" stroke-width="8.25" stroke-linecap="square" stroke="rgb(52.941176%,80.784314%,98.039216%)" d="M 525 200 L 575 250 L 575 275 " stroke-miterlimit="10" fill="none"></path>
<path stroke-linejoin="miter" id="recolor3477" style="" stroke-opacity="1" stroke-width="8.25" stroke-linecap="square" stroke="rgb(86.27451%,7.843137%,23.529412%)" d="M 725 175 L 650 175 L 625 200 L 625 275 L 725 275 " stroke-miterlimit="10" fill="none"></path>
<path stroke-linejoin="miter" id="recolor3478" style="" stroke-opacity="1" stroke-width="8.25" stroke-linecap="square" stroke="rgb(52.941176%,80.784314%,98.039216%)" d="M 625 225 L 725 225 " stroke-miterlimit="10" fill="none"></path>
<path stroke-linejoin="miter" id="recolor3479" style="" stroke-opacity="1" stroke-width="8.25" stroke-linecap="square" stroke="rgb(86.27451%,7.843137%,23.529412%)" d="M 775 225 L 775 175 L 875 175 L 875 225 " stroke-miterlimit="10" fill="none"></path>
<path stroke-linejoin="miter" id="recolor3480" style="" stroke-opacity="1" stroke-width="8.25" stroke-linecap="square" stroke="rgb(86.27451%,7.843137%,23.529412%)" d="M 825 175 L 825 275 " stroke-miterlimit="10" fill="none"></path>
<path stroke-linejoin="miter" id="recolor3481" style="" stroke-opacity="1" stroke-width="8.25" stroke-linecap="square" stroke="rgb(52.941176%,80.784314%,98.039216%)" d="M 775 275 L 875 275 " stroke-miterlimit="10" fill="none"></path>
<path stroke-linejoin="miter" id="recolor3482" style="" stroke-opacity="1" stroke-width="41.25" stroke-linecap="square" stroke="rgb(86.27451%,7.843137%,23.529412%)" d="M 125 400 L 125 425 L 25 425 L 25 350 L 50 325 L 125 325 L 125 350 " stroke-miterlimit="10" fill="none"></path>
<path stroke-linejoin="miter" id="recolor3483" style="" stroke-opacity="1" stroke-width="41.25" stroke-linecap="square" stroke="rgb(52.941176%,80.784314%,98.039216%)" d="M 175 325 L 250 325 L 275 350 L 275 425 L 200 425 L 175 400 Z " stroke-miterlimit="10" fill="none"></path>
<path stroke-linejoin="miter" id="recolor3484" style="" stroke-opacity="1" stroke-width="41.25" stroke-linecap="square" stroke="rgb(86.27451%,7.843137%,23.529412%)" d="M 325 425 L 325 325 L 400 325 L 425 350 L 425 425 " stroke-miterlimit="10" fill="none"></path>
<path stroke-linejoin="miter" id="recolor3485" style="" stroke-opacity="1" stroke-width="41.25" stroke-linecap="square" stroke="rgb(86.27451%,7.843137%,23.529412%)" d="M 475 325 L 500 325 L 525 350 L 525 400 L 500 425 L 475 425 " stroke-miterlimit="10" fill="none"></path>
<path d="M 125 400 L 125 425 L 25 425 L 25 350 L 50 325 L 125 325 L 125 350 " style="fill:none;stroke-width:24.75;stroke-linecap:square;stroke-linejoin:miter;stroke:rgb(100%,100%,100%);stroke-opacity:1;stroke-miterlimit:10;"></path>
<path d="M 175 325 L 250 325 L 275 350 L 275 425 L 200 425 L 175 400 Z " style="fill:none;stroke-width:24.75;stroke-linecap:square;stroke-linejoin:miter;stroke:rgb(100%,100%,100%);stroke-opacity:1;stroke-miterlimit:10;"></path>
<path d="M 325 425 L 325 325 L 400 325 L 425 350 L 425 425 " style="fill:none;stroke-width:24.75;stroke-linecap:square;stroke-linejoin:miter;stroke:rgb(100%,100%,100%);stroke-opacity:1;stroke-miterlimit:10;"></path>
<path d="M 475 325 L 500 325 L 525 350 L 525 400 L 500 425 L 475 425 " style="fill:none;stroke-width:24.75;stroke-linecap:square;stroke-linejoin:miter;stroke:rgb(100%,100%,100%);stroke-opacity:1;stroke-miterlimit:10;"></path>
<path stroke-linejoin="miter" id="recolor3486" style="" stroke-opacity="1" stroke-width="8.25" stroke-linecap="square" stroke="rgb(52.941176%,80.784314%,98.039216%)" d="M 125 400 L 125 425 L 25 425 L 25 350 L 50 325 L 125 325 L 125 350 " stroke-miterlimit="10" fill="none"></path>
<path stroke-linejoin="miter" id="recolor3487" style="" stroke-opacity="1" stroke-width="8.25" stroke-linecap="square" stroke="rgb(52.941176%,80.784314%,98.039216%)" d="M 175 325 L 250 325 L 275 350 L 275 425 L 200 425 L 175 400 Z " stroke-miterlimit="10" fill="none"></path>
<path stroke-linejoin="miter" id="recolor3488" style="" stroke-opacity="1" stroke-width="8.25" stroke-linecap="square" stroke="rgb(52.941176%,80.784314%,98.039216%)" d="M 325 425 L 325 325 L 400 325 L 425 350 L 425 425 " stroke-miterlimit="10" fill="none"></path>
<path stroke-linejoin="miter" id="recolor3489" style="" stroke-opacity="1" stroke-width="8.25" stroke-linecap="square" stroke="rgb(52.941176%,80.784314%,98.039216%)" d="M 475 325 L 500 325 L 525 350 L 525 400 L 500 425 L 475 425 " stroke-miterlimit="10" fill="none"></path>
</g>
<style>path {
 transition: stroke 2s linear, stroke-width 2s linear;
}</style></svg>