<?xml version="1.0" encoding="UTF-8"?>
<svg height="450pt" version="1.1" viewBox="0 0 900 450" width="900pt" xmlns="http://www.w3.org/2000/svg" xmlns:xlink="http://www.w3.org/1999/xlink">
<g id="surface5460">
<path d="M 25 125 L 100 125 L 125 100 L 125 75 L 25 75 L 25 50 L 50 25 L 125 25 " style="fill:none;stroke-width:41.25;stroke-linecap:square;stroke-linejoin:miter;stroke:rgb(0%,0%,0%);stroke-opacity:1;stroke-miterlimit:10;"></path>
<path d="M 175 125 L 275 125 " style="fill:none;stroke-width:41.25;stroke-linecap:square;stroke-linejoin:miter;stroke:rgb(0%,0%,0%);stroke-opacity:1;stroke-miterlimit:10;"></path>
<path d="M 175 25 L 275 25 " style="fill:none;stroke-width:41.25;stroke-linecap:square;stroke-linejoin:miter;stroke:rgb(0%,0%,0%);stroke-opacity:1;stroke-miterlimit:10;"></path>
<path d="M 225 125 L 225 25 " style="fill:none;stroke-width:41.25;stroke-linecap:square;stroke-linejoin:miter;stroke:rgb(0%,0%,0%);stroke-opacity:1;stroke-miterlimit:10;"></path>
<path d="M 325 25 L 325 50 L 350 75 L 400 75 L 425 100 L 425 125 " style="fill:none;stroke-width:41.25;stroke-linecap:square;stroke-linejoin:miter;stroke:rgb(0%,0%,0%);stroke-opacity:1;stroke-miterlimit:10;"></path>
<path d="M 325 125 L 325 100 L 350 75 L 400 75 L 425 50 L 425 25 " style="fill:none;stroke-width:41.25;stroke-linecap:square;stroke-linejoin:miter;stroke:rgb(0%,0%,0%);stroke-opacity:1;stroke-miterlimit:10;"></path>
<path d="M 475 25 L 575 25 " style="fill:none;stroke-width:41.25;stroke-linecap:square;stroke-linejoin:miter;stroke:rgb(0%,0%,0%);stroke-opacity:1;stroke-miterlimit:10;"></path>
<path d="M 525 25 L 525 125 " style="fill:none;stroke-width:41.25;stroke-linecap:square;stroke-linejoin:miter;stroke:rgb(0%,0%,0%);stroke-opacity:1;stroke-miterlimit:10;"></path>
<path d="M 625 125 L 625 25 " style="fill:none;stroke-width:41.25;stroke-linecap:square;stroke-linejoin:miter;stroke:rgb(0%,0%,0%);stroke-opacity:1;stroke-miterlimit:10;"></path>
<path d="M 725 125 L 725 25 " style="fill:none;stroke-width:41.25;stroke-linecap:square;stroke-linejoin:miter;stroke:rgb(0%,0%,0%);stroke-opacity:1;stroke-miterlimit:10;"></path>
<path d="M 625 75 L 725 75 " style="fill:none;stroke-width:41.25;stroke-linecap:square;stroke-linejoin:miter;stroke:rgb(0%,0%,0%);stroke-opacity:1;stroke-miterlimit:10;"></path>
<path d="M 25 125 L 100 125 L 125 100 L 125 75 L 25 75 L 25 50 L 50 25 L 125 25 " style="fill:none;stroke-width:24.75;stroke-linecap:square;stroke-linejoin:miter;stroke:rgb(100%,100%,100%);stroke-opacity:1;stroke-miterlimit:10;"></path>
<path d="M 175 125 L 275 125 " style="fill:none;stroke-width:24.75;stroke-linecap:square;stroke-linejoin:miter;stroke:rgb(100%,100%,100%);stroke-opacity:1;stroke-miterlimit:10;"></path>
<path d="M 175 25 L 275 25 " style="fill:none;stroke-width:24.75;stroke-linecap:square;stroke-linejoin:miter;stroke:rgb(100%,100%,100%);stroke-opacity:1;stroke-miterlimit:10;"></path>
<path d="M 225 125 L 225 25 " style="fill:none;stroke-width:24.75;stroke-linecap:square;stroke-linejoin:miter;stroke:rgb(100%,100%,100%);stroke-opacity:1;stroke-miterlimit:10;"></path>
<path d="M 325 25 L 325 50 L 350 75 L 400 75 L 425 100 L 425 125 " style="fill:none;stroke-width:24.75;stroke-linecap:square;stroke-linejoin:miter;stroke:rgb(100%,100%,100%);stroke-opacity:1;stroke-miterlimit:10;"></path>
<path d="M 325 125 L 325 100 L 350 75 L 400 75 L 425 50 L 425 25 " style="fill:none;stroke-width:24.75;stroke-linecap:square;stroke-linejoin:miter;stroke:rgb(100%,100%,100%);stroke-opacity:1;stroke-miterlimit:10;"></path>
<path d="M 475 25 L 575 25 " style="fill:none;stroke-width:24.75;stroke-linecap:square;stroke-linejoin:miter;stroke:rgb(100%,100%,100%);stroke-opacity:1;stroke-miterlimit:10;"></path>
<path d="M 525 25 L 525 125 " style="fill:none;stroke-width:24.75;stroke-linecap:square;stroke-linejoin:miter;stroke:rgb(100%,100%,100%);stroke-opacity:1;stroke-miterlimit:10;"></path>
<path d="M 625 125 L 625 25 " style="fill:none;stroke-width:24.75;stroke-linecap:square;stroke-linejoin:miter;stroke:rgb(100%,100%,100%);stroke-opacity:1;stroke-miterlimit:10;"></path>
<path d="M 725 125 L 725 25 " style="fill:none;stroke-width:24.75;stroke-linecap:square;stroke-linejoin:miter;stroke:rgb(100%,100%,100%);stroke-opacity:1;stroke-miterlimit:10;"></path>
<path d="M 625 75 L 725 75 " style="fill:none;stroke-width:24.75;stroke-linecap:square;stroke-linejoin:miter;stroke:rgb(100%,100%,100%);stroke-opacity:1;stroke-miterlimit:10;"></path>
<path stroke-linejoin="miter" id="recolor1510" style="" stroke-opacity="1" stroke-width="8.25" stroke-linecap="square" stroke="rgb(52.941176%,80.784314%,98.039216%)" d="M 25 125 L 100 125 L 125 100 L 125 75 L 25 75 L 25 50 L 50 25 L 125 25 " stroke-miterlimit="10" fill="none"></path>
<path stroke-linejoin="miter" id="recolor1511" style="" stroke-opacity="1" stroke-width="8.25" stroke-linecap="square" stroke="rgb(86.27451%,7.843137%,23.529412%)" d="M 175 125 L 275 125 " stroke-miterlimit="10" fill="none"></path>
<path stroke-linejoin="miter" id="recolor1512" style="" stroke-opacity="1" stroke-width="8.25" stroke-linecap="square" stroke="rgb(86.27451%,7.843137%,23.529412%)" d="M 175 25 L 275 25 " stroke-miterlimit="10" fill="none"></path>
<path stroke-linejoin="miter" id="recolor1513" style="" stroke-opacity="1" stroke-width="8.25" stroke-linecap="square" stroke="rgb(86.27451%,7.843137%,23.529412%)" d="M 225 125 L 225 25 " stroke-miterlimit="10" fill="none"></path>
<path stroke-linejoin="miter" id="recolor1514" style="" stroke-opacity="1" stroke-width="8.25" stroke-linecap="square" stroke="rgb(52.941176%,80.784314%,98.039216%)" d="M 325 25 L 325 50 L 350 75 L 400 75 L 425 100 L 425 125 " stroke-miterlimit="10" fill="none"></path>
<path stroke-linejoin="miter" id="recolor1515" style="" stroke-opacity="1" stroke-width="8.25" stroke-linecap="square" stroke="rgb(52.941176%,80.784314%,98.039216%)" d="M 325 125 L 325 100 L 350 75 L 400 75 L 425 50 L 425 25 " stroke-miterlimit="10" fill="none"></path>
<path stroke-linejoin="miter" id="recolor1516" style="" stroke-opacity="1" stroke-width="8.25" stroke-linecap="square" stroke="rgb(52.941176%,80.784314%,98.039216%)" d="M 475 25 L 575 25 " stroke-miterlimit="10" fill="none"></path>
<path stroke-linejoin="miter" id="recolor1517" style="" stroke-opacity="1" stroke-width="8.25" stroke-linecap="square" stroke="rgb(52.941176%,80.784314%,98.039216%)" d="M 525 25 L 525 125 " stroke-miterlimit="10" fill="none"></path>
<path stroke-linejoin="miter" id="recolor1518" style="" stroke-opacity="1" stroke-width="8.25" stroke-linecap="square" stroke="rgb(86.27451%,7.843137%,23.529412%)" d="M 625 125 L 625 25 " stroke-miterlimit="10" fill="none"></path>
<path stroke-linejoin="miter" id="recolor1519" style="" stroke-opacity="1" stroke-width="8.25" stroke-linecap="square" stroke="rgb(52.941176%,80.784314%,98.039216%)" d="M 725 125 L 725 25 " stroke-miterlimit="10" fill="none"></path>
<path stroke-linejoin="miter" id="recolor1520" style="" stroke-opacity="1" stroke-width="8.25" stroke-linecap="square" stroke="rgb(86.27451%,7.843137%,23.529412%)" d="M 625 75 L 725 75 " stroke-miterlimit="10" fill="none"></path>
<path d="M 25 275 L 25 175 L 100 175 L 125 200 L 125 225 L 75 225 L 75 250 L 100 275 L 125 275 " style="fill:none;stroke-width:41.25;stroke-linecap:square;stroke-linejoin:miter;stroke:rgb(0%,0%,0%);stroke-opacity:1;stroke-miterlimit:10;"></path>
<path d="M 175 175 L 250 175 L 275 200 L 275 275 L 200 275 L 175 250 L 175 225 L 225 225 " style="fill:none;stroke-width:41.25;stroke-linecap:square;stroke-linejoin:miter;stroke:rgb(0%,0%,0%);stroke-opacity:1;stroke-miterlimit:10;"></path>
<path d="M 425 250 L 425 275 L 325 275 L 325 200 L 350 175 L 425 175 L 425 200 " style="fill:none;stroke-width:41.25;stroke-linecap:square;stroke-linejoin:miter;stroke:rgb(0%,0%,0%);stroke-opacity:1;stroke-miterlimit:10;"></path>
<path d="M 475 275 L 475 175 " style="fill:none;stroke-width:41.25;stroke-linecap:square;stroke-linejoin:miter;stroke:rgb(0%,0%,0%);stroke-opacity:1;stroke-miterlimit:10;"></path>
<path d="M 475 275 L 475 250 L 550 175 L 575 175 " style="fill:none;stroke-width:41.25;stroke-linecap:square;stroke-linejoin:miter;stroke:rgb(0%,0%,0%);stroke-opacity:1;stroke-miterlimit:10;"></path>
<path d="M 525 200 L 575 250 L 575 275 " style="fill:none;stroke-width:41.25;stroke-linecap:square;stroke-linejoin:miter;stroke:rgb(0%,0%,0%);stroke-opacity:1;stroke-miterlimit:10;"></path>
<path d="M 725 175 L 650 175 L 625 200 L 625 275 L 725 275 " style="fill:none;stroke-width:41.25;stroke-linecap:square;stroke-linejoin:miter;stroke:rgb(0%,0%,0%);stroke-opacity:1;stroke-miterlimit:10;"></path>
<path d="M 625 225 L 725 225 " style="fill:none;stroke-width:41.25;stroke-linecap:square;stroke-linejoin:miter;stroke:rgb(0%,0%,0%);stroke-opacity:1;stroke-miterlimit:10;"></path>
<path d="M 775 175 L 875 175 " style="fill:none;stroke-width:41.25;stroke-linecap:square;stroke-linejoin:miter;stroke:rgb(0%,0%,0%);stroke-opacity:1;stroke-miterlimit:10;"></path>
<path d="M 825 175 L 825 275 " style="fill:none;stroke-width:41.25;stroke-linecap:square;stroke-linejoin:miter;stroke:rgb(0%,0%,0%);stroke-opacity:1;stroke-miterlimit:10;"></path>
<path d="M 25 275 L 25 175 L 100 175 L 125 200 L 125 225 L 75 225 L 75 250 L 100 275 L 125 275 " style="fill:none;stroke-width:24.75;stroke-linecap:square;stroke-linejoin:miter;stroke:rgb(100%,100%,100%);stroke-opacity:1;stroke-miterlimit:10;"></path>
<path d="M 175 175 L 250 175 L 275 200 L 275 275 L 200 275 L 175 250 L 175 225 L 225 225 " style="fill:none;stroke-width:24.75;stroke-linecap:square;stroke-linejoin:miter;stroke:rgb(100%,100%,100%);stroke-opacity:1;stroke-miterlimit:10;"></path>
<path d="M 425 250 L 425 275 L 325 275 L 325 200 L 350 175 L 425 175 L 425 200 " style="fill:none;stroke-width:24.75;stroke-linecap:square;stroke-linejoin:miter;stroke:rgb(100%,100%,100%);stroke-opacity:1;stroke-miterlimit:10;"></path>
<path d="M 475 275 L 475 175 " style="fill:none;stroke-width:24.75;stroke-linecap:square;stroke-linejoin:miter;stroke:rgb(100%,100%,100%);stroke-opacity:1;stroke-miterlimit:10;"></path>
<path d="M 475 275 L 475 250 L 550 175 L 575 175 " style="fill:none;stroke-width:24.75;stroke-linecap:square;stroke-linejoin:miter;stroke:rgb(100%,100%,100%);stroke-opacity:1;stroke-miterlimit:10;"></path>
<path d="M 525 200 L 575 250 L 575 275 " style="fill:none;stroke-width:24.75;stroke-linecap:square;stroke-linejoin:miter;stroke:rgb(100%,100%,100%);stroke-opacity:1;stroke-miterlimit:10;"></path>
<path d="M 725 175 L 650 175 L 625 200 L 625 275 L 725 275 " style="fill:none;stroke-width:24.75;stroke-linecap:square;stroke-linejoin:miter;stroke:rgb(100%,100%,100%);stroke-opacity:1;stroke-miterlimit:10;"></path>
<path d="M 625 225 L 725 225 " style="fill:none;stroke-width:24.75;stroke-linecap:square;stroke-linejoin:miter;stroke:rgb(100%,100%,100%);stroke-opacity:1;stroke-miterlimit:10;"></path>
<path d="M 775 175 L 875 175 " style="fill:none;stroke-width:24.75;stroke-linecap:square;stroke-linejoin:miter;stroke:rgb(100%,100%,100%);stroke-opacity:1;stroke-miterlimit:10;"></path>
<path d="M 825 175 L 825 275 " style="fill:none;stroke-width:24.75;stroke-linecap:square;stroke-linejoin:miter;stroke:rgb(100%,100%,100%);stroke-opacity:1;stroke-miterlimit:10;"></path>
<path stroke-linejoin="miter" id="recolor1521" style="" stroke-opacity="1" stroke-width="8.25" stroke-linecap="square" stroke="rgb(52.941176%,80.784314%,98.039216%)" d="M 25 275 L 25 175 L 100 175 L 125 200 L 125 225 L 75 225 L 75 250 L 100 275 L 125 275 " stroke-miterlimit="10" fill="none"></path>
<path stroke-linejoin="miter" id="recolor1522" style="" stroke-opacity="1" stroke-width="8.25" stroke-linecap="square" stroke="rgb(52.941176%,80.784314%,98.039216%)" d="M 175 175 L 250 175 L 275 200 L 275 275 L 200 275 L 175 250 L 175 225 L 225 225 " stroke-miterlimit="10" fill="none"></path>
<path stroke-linejoin="miter" id="recolor1523" style="" stroke-opacity="1" stroke-width="8.25" stroke-linecap="square" stroke="rgb(86.27451%,7.843137%,23.529412%)" d="M 425 250 L 425 275 L 325 275 L 325 200 L 350 175 L 425 175 L 425 200 " stroke-miterlimit="10" fill="none"></path>
<path stroke-linejoin="miter" id="recolor1524" style="" stroke-opacity="1" stroke-width="8.25" stroke-linecap="square" stroke="rgb(52.941176%,80.784314%,98.039216%)" d="M 475 275 L 475 175 " stroke-miterlimit="10" fill="none"></path>
<path stroke-linejoin="miter" id="recolor1525" style="" stroke-opacity="1" stroke-width="8.25" stroke-linecap="square" stroke="rgb(52.941176%,80.784314%,98.039216%)" d="M 475 275 L 475 250 L 550 175 L 575 175 " stroke-miterlimit="10" fill="none"></path>
<path stroke-linejoin="miter" id="recolor1526" style="" stroke-opacity="1" stroke-width="8.25" stroke-linecap="square" stroke="rgb(86.27451%,7.843137%,23.529412%)" d="M 525 200 L 575 250 L 575 275 " stroke-miterlimit="10" fill="none"></path>
<path stroke-linejoin="miter" id="recolor1527" style="" stroke-opacity="1" stroke-width="8.25" stroke-linecap="square" stroke="rgb(52.941176%,80.784314%,98.039216%)" d="M 725 175 L 650 175 L 625 200 L 625 275 L 725 275 " stroke-miterlimit="10" fill="none"></path>
<path stroke-linejoin="miter" id="recolor1528" style="" stroke-opacity="1" stroke-width="8.25" stroke-linecap="square" stroke="rgb(86.27451%,7.843137%,23.529412%)" d="M 625 225 L 725 225 " stroke-miterlimit="10" fill="none"></path>
<path stroke-linejoin="miter" id="recolor1529" style="" stroke-opacity="1" stroke-width="8.25" stroke-linecap="square" stroke="rgb(52.941176%,80.784314%,98.039216%)" d="M 775 175 L 875 175 " stroke-miterlimit="10" fill="none"></path>
<path stroke-linejoin="miter" id="recolor1530" style="" stroke-opacity="1" stroke-width="8.25" stroke-linecap="square" stroke="rgb(86.27451%,7.843137%,23.529412%)" d="M 825 175 L 825 275 " stroke-miterlimit="10" fill="none"></path>
<path d="M 425 400 L 425 425 L 325 425 L 325 350 L 350 325 L 425 325 L 425 350 " style="fill:none;stroke-width:41.25;stroke-linecap:square;stroke-linejoin:miter;stroke:rgb(0%,0%,0%);stroke-opacity:1;stroke-miterlimit:10;"></path>
<path d="M 475 325 L 550 325 L 575 350 L 575 425 L 500 425 L 475 400 Z " style="fill:none;stroke-width:41.25;stroke-linecap:square;stroke-linejoin:miter;stroke:rgb(0%,0%,0%);stroke-opacity:1;stroke-miterlimit:10;"></path>
<path d="M 625 425 L 625 325 L 700 325 L 725 350 L 725 425 " style="fill:none;stroke-width:41.25;stroke-linecap:square;stroke-linejoin:miter;stroke:rgb(0%,0%,0%);stroke-opacity:1;stroke-miterlimit:10;"></path>
<path d="M 425 400 L 425 425 L 325 425 L 325 350 L 350 325 L 425 325 L 425 350 " style="fill:none;stroke-width:24.75;stroke-linecap:square;stroke-linejoin:miter;stroke:rgb(100%,100%,100%);stroke-opacity:1;stroke-miterlimit:10;"></path>
<path d="M 475 325 L 550 325 L 575 350 L 575 425 L 500 425 L 475 400 Z " style="fill:none;stroke-width:24.75;stroke-linecap:square;stroke-linejoin:miter;stroke:rgb(100%,100%,100%);stroke-opacity:1;stroke-miterlimit:10;"></path>
<path d="M 625 425 L 625 325 L 700 325 L 725 350 L 725 425 " style="fill:none;stroke-width:24.75;stroke-linecap:square;stroke-linejoin:miter;stroke:rgb(100%,100%,100%);stroke-opacity:1;stroke-miterlimit:10;"></path>
<path stroke-linejoin="miter" id="recolor1531" style="" stroke-opacity="1" stroke-width="8.25" stroke-linecap="square" stroke="rgb(86.27451%,7.843137%,23.529412%)" d="M 425 400 L 425 425 L 325 425 L 325 350 L 350 325 L 425 325 L 425 350 " stroke-miterlimit="10" fill="none"></path>
<path stroke-linejoin="miter" id="recolor1532" style="" stroke-opacity="1" stroke-width="8.25" stroke-linecap="square" stroke="rgb(86.27451%,7.843137%,23.529412%)" d="M 475 325 L 550 325 L 575 350 L 575 425 L 500 425 L 475 400 Z " stroke-miterlimit="10" fill="none"></path>
<path stroke-linejoin="miter" id="recolor1533" style="" stroke-opacity="1" stroke-width="8.25" stroke-linecap="square" stroke="rgb(52.941176%,80.784314%,98.039216%)" d="M 625 425 L 625 325 L 700 325 L 725 350 L 725 425 " stroke-miterlimit="10" fill="none"></path>
</g>
<style>path {
 transition: stroke 2s linear, stroke-width 2s linear;
}</style></svg>