<?xml version="1.0" encoding="UTF-8"?>
<svg xmlns="http://www.w3.org/2000/svg" xmlns:xlink="http://www.w3.org/1999/xlink" width="1200pt" height="150pt" viewBox="0 0 1200 150" version="1.1">
<g id="surface5475">
<path style="fill:none;stroke-width:41.25;stroke-linecap:square;stroke-linejoin:miter;stroke:rgb(0%,0%,0%);stroke-opacity:1;stroke-miterlimit:10;" d="M 25 125 L 100 125 L 125 100 L 125 75 L 25 75 L 25 50 L 50 25 L 125 25 "/>
<path style="fill:none;stroke-width:41.25;stroke-linecap:square;stroke-linejoin:miter;stroke:rgb(0%,0%,0%);stroke-opacity:1;stroke-miterlimit:10;" d="M 175 125 L 175 25 L 250 25 L 275 50 L 275 75 L 250 100 L 225 100 "/>
<path style="fill:none;stroke-width:41.25;stroke-linecap:square;stroke-linejoin:miter;stroke:rgb(0%,0%,0%);stroke-opacity:1;stroke-miterlimit:10;" d="M 425 25 L 350 25 L 325 50 L 325 125 L 425 125 "/>
<path style="fill:none;stroke-width:41.25;stroke-linecap:square;stroke-linejoin:miter;stroke:rgb(0%,0%,0%);stroke-opacity:1;stroke-miterlimit:10;" d="M 325 75 L 425 75 "/>
<path style="fill:none;stroke-width:41.25;stroke-linecap:square;stroke-linejoin:miter;stroke:rgb(0%,0%,0%);stroke-opacity:1;stroke-miterlimit:10;" d="M 475 25 L 550 25 L 575 50 L 575 125 L 500 125 L 475 100 L 475 75 L 525 75 "/>
<path style="fill:none;stroke-width:41.25;stroke-linecap:square;stroke-linejoin:miter;stroke:rgb(0%,0%,0%);stroke-opacity:1;stroke-miterlimit:10;" d="M 625 125 L 625 25 "/>
<path style="fill:none;stroke-width:41.25;stroke-linecap:square;stroke-linejoin:miter;stroke:rgb(0%,0%,0%);stroke-opacity:1;stroke-miterlimit:10;" d="M 625 125 L 625 100 L 700 25 L 725 25 "/>
<path style="fill:none;stroke-width:41.25;stroke-linecap:square;stroke-linejoin:miter;stroke:rgb(0%,0%,0%);stroke-opacity:1;stroke-miterlimit:10;" d="M 675 50 L 725 100 L 725 125 "/>
<path style="fill:none;stroke-width:41.25;stroke-linecap:square;stroke-linejoin:miter;stroke:rgb(0%,0%,0%);stroke-opacity:1;stroke-miterlimit:10;" d="M 875 25 L 800 25 L 775 50 L 775 125 L 875 125 "/>
<path style="fill:none;stroke-width:41.25;stroke-linecap:square;stroke-linejoin:miter;stroke:rgb(0%,0%,0%);stroke-opacity:1;stroke-miterlimit:10;" d="M 775 75 L 875 75 "/>
<path style="fill:none;stroke-width:41.25;stroke-linecap:square;stroke-linejoin:miter;stroke:rgb(0%,0%,0%);stroke-opacity:1;stroke-miterlimit:10;" d="M 925 125 L 925 25 L 1000 25 L 1025 50 L 1025 75 L 975 75 L 975 100 L 1000 125 L 1025 125 "/>
<path style="fill:none;stroke-width:41.25;stroke-linecap:square;stroke-linejoin:miter;stroke:rgb(0%,0%,0%);stroke-opacity:1;stroke-miterlimit:10;" d="M 1075 125 L 1150 125 L 1175 100 L 1175 75 L 1075 75 L 1075 50 L 1100 25 L 1175 25 "/>
<path style="fill:none;stroke-width:24.75;stroke-linecap:square;stroke-linejoin:miter;stroke:rgb(100%,100%,100%);stroke-opacity:1;stroke-miterlimit:10;" d="M 25 125 L 100 125 L 125 100 L 125 75 L 25 75 L 25 50 L 50 25 L 125 25 "/>
<path style="fill:none;stroke-width:24.75;stroke-linecap:square;stroke-linejoin:miter;stroke:rgb(100%,100%,100%);stroke-opacity:1;stroke-miterlimit:10;" d="M 175 125 L 175 25 L 250 25 L 275 50 L 275 75 L 250 100 L 225 100 "/>
<path style="fill:none;stroke-width:24.75;stroke-linecap:square;stroke-linejoin:miter;stroke:rgb(100%,100%,100%);stroke-opacity:1;stroke-miterlimit:10;" d="M 425 25 L 350 25 L 325 50 L 325 125 L 425 125 "/>
<path style="fill:none;stroke-width:24.75;stroke-linecap:square;stroke-linejoin:miter;stroke:rgb(100%,100%,100%);stroke-opacity:1;stroke-miterlimit:10;" d="M 325 75 L 425 75 "/>
<path style="fill:none;stroke-width:24.75;stroke-linecap:square;stroke-linejoin:miter;stroke:rgb(100%,100%,100%);stroke-opacity:1;stroke-miterlimit:10;" d="M 475 25 L 550 25 L 575 50 L 575 125 L 500 125 L 475 100 L 475 75 L 525 75 "/>
<path style="fill:none;stroke-width:24.75;stroke-linecap:square;stroke-linejoin:miter;stroke:rgb(100%,100%,100%);stroke-opacity:1;stroke-miterlimit:10;" d="M 625 125 L 625 25 "/>
<path style="fill:none;stroke-width:24.75;stroke-linecap:square;stroke-linejoin:miter;stroke:rgb(100%,100%,100%);stroke-opacity:1;stroke-miterlimit:10;" d="M 625 125 L 625 100 L 700 25 L 725 25 "/>
<path style="fill:none;stroke-width:24.75;stroke-linecap:square;stroke-linejoin:miter;stroke:rgb(100%,100%,100%);stroke-opacity:1;stroke-miterlimit:10;" d="M 675 50 L 725 100 L 725 125 "/>
<path style="fill:none;stroke-width:24.75;stroke-linecap:square;stroke-linejoin:miter;stroke:rgb(100%,100%,100%);stroke-opacity:1;stroke-miterlimit:10;" d="M 875 25 L 800 25 L 775 50 L 775 125 L 875 125 "/>
<path style="fill:none;stroke-width:24.75;stroke-linecap:square;stroke-linejoin:miter;stroke:rgb(100%,100%,100%);stroke-opacity:1;stroke-miterlimit:10;" d="M 775 75 L 875 75 "/>
<path style="fill:none;stroke-width:24.75;stroke-linecap:square;stroke-linejoin:miter;stroke:rgb(100%,100%,100%);stroke-opacity:1;stroke-miterlimit:10;" d="M 925 125 L 925 25 L 1000 25 L 1025 50 L 1025 75 L 975 75 L 975 100 L 1000 125 L 1025 125 "/>
<path style="fill:none;stroke-width:24.75;stroke-linecap:square;stroke-linejoin:miter;stroke:rgb(100%,100%,100%);stroke-opacity:1;stroke-miterlimit:10;" d="M 1075 125 L 1150 125 L 1175 100 L 1175 75 L 1075 75 L 1075 50 L 1100 25 L 1175 25 "/>
<path style="fill:none;stroke-width:8.25;stroke-linecap:square;stroke-linejoin:miter;stroke:rgb(52.941176%,80.784314%,98.039216%);stroke-opacity:1;stroke-miterlimit:10;" d="M 25 125 L 100 125 L 125 100 L 125 75 L 25 75 L 25 50 L 50 25 L 125 25 "/>
<path style="fill:none;stroke-width:8.25;stroke-linecap:square;stroke-linejoin:miter;stroke:rgb(86.27451%,7.843137%,23.529412%);stroke-opacity:1;stroke-miterlimit:10;" d="M 175 125 L 175 25 L 250 25 L 275 50 L 275 75 L 250 100 L 225 100 "/>
<path style="fill:none;stroke-width:8.25;stroke-linecap:square;stroke-linejoin:miter;stroke:rgb(52.941176%,80.784314%,98.039216%);stroke-opacity:1;stroke-miterlimit:10;" d="M 425 25 L 350 25 L 325 50 L 325 125 L 425 125 "/>
<path style="fill:none;stroke-width:8.25;stroke-linecap:square;stroke-linejoin:miter;stroke:rgb(52.941176%,80.784314%,98.039216%);stroke-opacity:1;stroke-miterlimit:10;" d="M 325 75 L 425 75 "/>
<path style="fill:none;stroke-width:8.25;stroke-linecap:square;stroke-linejoin:miter;stroke:rgb(86.27451%,7.843137%,23.529412%);stroke-opacity:1;stroke-miterlimit:10;" d="M 475 25 L 550 25 L 575 50 L 575 125 L 500 125 L 475 100 L 475 75 L 525 75 "/>
<path style="fill:none;stroke-width:8.25;stroke-linecap:square;stroke-linejoin:miter;stroke:rgb(52.941176%,80.784314%,98.039216%);stroke-opacity:1;stroke-miterlimit:10;" d="M 625 125 L 625 25 "/>
<path style="fill:none;stroke-width:8.25;stroke-linecap:square;stroke-linejoin:miter;stroke:rgb(52.941176%,80.784314%,98.039216%);stroke-opacity:1;stroke-miterlimit:10;" d="M 625 125 L 625 100 L 700 25 L 725 25 "/>
<path style="fill:none;stroke-width:8.25;stroke-linecap:square;stroke-linejoin:miter;stroke:rgb(52.941176%,80.784314%,98.039216%);stroke-opacity:1;stroke-miterlimit:10;" d="M 675 50 L 725 100 L 725 125 "/>
<path style="fill:none;stroke-width:8.25;stroke-linecap:square;stroke-linejoin:miter;stroke:rgb(86.27451%,7.843137%,23.529412%);stroke-opacity:1;stroke-miterlimit:10;" d="M 875 25 L 800 25 L 775 50 L 775 125 L 875 125 "/>
<path style="fill:none;stroke-width:8.25;stroke-linecap:square;stroke-linejoin:miter;stroke:rgb(86.27451%,7.843137%,23.529412%);stroke-opacity:1;stroke-miterlimit:10;" d="M 775 75 L 875 75 "/>
<path style="fill:none;stroke-width:8.25;stroke-linecap:square;stroke-linejoin:miter;stroke:rgb(52.941176%,80.784314%,98.039216%);stroke-opacity:1;stroke-miterlimit:10;" d="M 925 125 L 925 25 L 1000 25 L 1025 50 L 1025 75 L 975 75 L 975 100 L 1000 125 L 1025 125 "/>
<path style="fill:none;stroke-width:8.25;stroke-linecap:square;stroke-linejoin:miter;stroke:rgb(86.27451%,7.843137%,23.529412%);stroke-opacity:1;stroke-miterlimit:10;" d="M 1075 125 L 1150 125 L 1175 100 L 1175 75 L 1075 75 L 1075 50 L 1100 25 L 1175 25 "/>
</g>
</svg>
