<?xml version="1.0" encoding="UTF-8"?>
<svg xmlns="http://www.w3.org/2000/svg" xmlns:xlink="http://www.w3.org/1999/xlink" width="1650pt" height="150pt" viewBox="0 0 1650 150" version="1.1">
<g id="surface16293">
<path style="fill:none;stroke-width:41.25;stroke-linecap:square;stroke-linejoin:miter;stroke:rgb(86.27451%,7.843137%,23.529412%);stroke-opacity:1;stroke-miterlimit:10;" d="M 125 125 L 25 125 L 25 50 L 50 25 L 125 25 L 125 75 L 75 75 "/>
<path style="fill:none;stroke-width:41.25;stroke-linecap:square;stroke-linejoin:miter;stroke:rgb(52.941176%,80.784314%,98.039216%);stroke-opacity:1;stroke-miterlimit:10;" d="M 175 125 L 175 25 L 250 25 L 275 50 L 275 125 "/>
<path style="fill:none;stroke-width:41.25;stroke-linecap:square;stroke-linejoin:miter;stroke:rgb(52.941176%,80.784314%,98.039216%);stroke-opacity:1;stroke-miterlimit:10;" d="M 225 25 L 225 125 "/>
<path style="fill:none;stroke-width:41.25;stroke-linecap:square;stroke-linejoin:miter;stroke:rgb(52.941176%,80.784314%,98.039216%);stroke-opacity:1;stroke-miterlimit:10;" d="M 325 125 L 425 125 "/>
<path style="fill:none;stroke-width:41.25;stroke-linecap:square;stroke-linejoin:miter;stroke:rgb(52.941176%,80.784314%,98.039216%);stroke-opacity:1;stroke-miterlimit:10;" d="M 325 25 L 425 25 "/>
<path style="fill:none;stroke-width:41.25;stroke-linecap:square;stroke-linejoin:miter;stroke:rgb(52.941176%,80.784314%,98.039216%);stroke-opacity:1;stroke-miterlimit:10;" d="M 375 125 L 375 25 "/>
<path style="fill:none;stroke-width:41.25;stroke-linecap:square;stroke-linejoin:miter;stroke:rgb(86.27451%,7.843137%,23.529412%);stroke-opacity:1;stroke-miterlimit:10;" d="M 475 125 L 475 25 L 550 25 L 575 50 L 575 125 "/>
<path style="fill:none;stroke-width:41.25;stroke-linecap:square;stroke-linejoin:miter;stroke:rgb(52.941176%,80.784314%,98.039216%);stroke-opacity:1;stroke-miterlimit:10;" d="M 625 25 L 700 25 L 725 50 L 725 125 L 650 125 L 625 100 L 625 75 L 675 75 "/>
<path style="fill:none;stroke-width:41.25;stroke-linecap:square;stroke-linejoin:miter;stroke:rgb(52.941176%,80.784314%,98.039216%);stroke-opacity:1;stroke-miterlimit:10;" d="M 775 75 L 775 25 L 875 25 L 875 75 "/>
<path style="fill:none;stroke-width:41.25;stroke-linecap:square;stroke-linejoin:miter;stroke:rgb(52.941176%,80.784314%,98.039216%);stroke-opacity:1;stroke-miterlimit:10;" d="M 825 25 L 825 125 "/>
<path style="fill:none;stroke-width:41.25;stroke-linecap:square;stroke-linejoin:miter;stroke:rgb(52.941176%,80.784314%,98.039216%);stroke-opacity:1;stroke-miterlimit:10;" d="M 775 125 L 875 125 "/>
<path style="fill:none;stroke-width:41.25;stroke-linecap:square;stroke-linejoin:miter;stroke:rgb(52.941176%,80.784314%,98.039216%);stroke-opacity:1;stroke-miterlimit:10;" d="M 925 25 L 1000 25 L 1025 50 L 1025 125 L 950 125 L 925 100 Z "/>
<path style="fill:none;stroke-width:41.25;stroke-linecap:square;stroke-linejoin:miter;stroke:rgb(86.27451%,7.843137%,23.529412%);stroke-opacity:1;stroke-miterlimit:10;" d="M 1075 125 L 1075 25 L 1150 25 L 1175 50 L 1175 75 L 1125 75 L 1125 100 L 1150 125 L 1175 125 "/>
<path style="fill:none;stroke-width:41.25;stroke-linecap:square;stroke-linejoin:miter;stroke:rgb(52.941176%,80.784314%,98.039216%);stroke-opacity:1;stroke-miterlimit:10;" d="M 1325 100 L 1325 125 L 1225 125 L 1225 50 L 1250 25 "/>
<path style="fill:none;stroke-width:41.25;stroke-linecap:square;stroke-linejoin:miter;stroke:rgb(52.941176%,80.784314%,98.039216%);stroke-opacity:1;stroke-miterlimit:10;" d="M 1375 25 L 1450 25 L 1475 50 L 1475 125 L 1400 125 L 1375 100 L 1375 75 L 1425 75 "/>
<path style="fill:none;stroke-width:41.25;stroke-linecap:square;stroke-linejoin:miter;stroke:rgb(52.941176%,80.784314%,98.039216%);stroke-opacity:1;stroke-miterlimit:10;" d="M 1525 125 L 1525 25 "/>
<path style="fill:none;stroke-width:41.25;stroke-linecap:square;stroke-linejoin:miter;stroke:rgb(52.941176%,80.784314%,98.039216%);stroke-opacity:1;stroke-miterlimit:10;" d="M 1525 125 L 1525 100 L 1600 25 L 1625 25 "/>
<path style="fill:none;stroke-width:41.25;stroke-linecap:square;stroke-linejoin:miter;stroke:rgb(52.941176%,80.784314%,98.039216%);stroke-opacity:1;stroke-miterlimit:10;" d="M 1575 50 L 1625 100 L 1625 125 "/>
<path style="fill:none;stroke-width:24.75;stroke-linecap:square;stroke-linejoin:miter;stroke:rgb(100%,100%,100%);stroke-opacity:1;stroke-miterlimit:10;" d="M 125 125 L 25 125 L 25 50 L 50 25 L 125 25 L 125 75 L 75 75 "/>
<path style="fill:none;stroke-width:24.75;stroke-linecap:square;stroke-linejoin:miter;stroke:rgb(100%,100%,100%);stroke-opacity:1;stroke-miterlimit:10;" d="M 175 125 L 175 25 L 250 25 L 275 50 L 275 125 "/>
<path style="fill:none;stroke-width:24.75;stroke-linecap:square;stroke-linejoin:miter;stroke:rgb(100%,100%,100%);stroke-opacity:1;stroke-miterlimit:10;" d="M 225 25 L 225 125 "/>
<path style="fill:none;stroke-width:24.75;stroke-linecap:square;stroke-linejoin:miter;stroke:rgb(100%,100%,100%);stroke-opacity:1;stroke-miterlimit:10;" d="M 325 125 L 425 125 "/>
<path style="fill:none;stroke-width:24.75;stroke-linecap:square;stroke-linejoin:miter;stroke:rgb(100%,100%,100%);stroke-opacity:1;stroke-miterlimit:10;" d="M 325 25 L 425 25 "/>
<path style="fill:none;stroke-width:24.75;stroke-linecap:square;stroke-linejoin:miter;stroke:rgb(100%,100%,100%);stroke-opacity:1;stroke-miterlimit:10;" d="M 375 125 L 375 25 "/>
<path style="fill:none;stroke-width:24.75;stroke-linecap:square;stroke-linejoin:miter;stroke:rgb(100%,100%,100%);stroke-opacity:1;stroke-miterlimit:10;" d="M 475 125 L 475 25 L 550 25 L 575 50 L 575 125 "/>
<path style="fill:none;stroke-width:24.75;stroke-linecap:square;stroke-linejoin:miter;stroke:rgb(100%,100%,100%);stroke-opacity:1;stroke-miterlimit:10;" d="M 625 25 L 700 25 L 725 50 L 725 125 L 650 125 L 625 100 L 625 75 L 675 75 "/>
<path style="fill:none;stroke-width:24.75;stroke-linecap:square;stroke-linejoin:miter;stroke:rgb(100%,100%,100%);stroke-opacity:1;stroke-miterlimit:10;" d="M 775 75 L 775 25 L 875 25 L 875 75 "/>
<path style="fill:none;stroke-width:24.75;stroke-linecap:square;stroke-linejoin:miter;stroke:rgb(100%,100%,100%);stroke-opacity:1;stroke-miterlimit:10;" d="M 825 25 L 825 125 "/>
<path style="fill:none;stroke-width:24.75;stroke-linecap:square;stroke-linejoin:miter;stroke:rgb(100%,100%,100%);stroke-opacity:1;stroke-miterlimit:10;" d="M 775 125 L 875 125 "/>
<path style="fill:none;stroke-width:24.75;stroke-linecap:square;stroke-linejoin:miter;stroke:rgb(100%,100%,100%);stroke-opacity:1;stroke-miterlimit:10;" d="M 925 25 L 1000 25 L 1025 50 L 1025 125 L 950 125 L 925 100 Z "/>
<path style="fill:none;stroke-width:24.75;stroke-linecap:square;stroke-linejoin:miter;stroke:rgb(100%,100%,100%);stroke-opacity:1;stroke-miterlimit:10;" d="M 1075 125 L 1075 25 L 1150 25 L 1175 50 L 1175 75 L 1125 75 L 1125 100 L 1150 125 L 1175 125 "/>
<path style="fill:none;stroke-width:24.75;stroke-linecap:square;stroke-linejoin:miter;stroke:rgb(100%,100%,100%);stroke-opacity:1;stroke-miterlimit:10;" d="M 1325 100 L 1325 125 L 1225 125 L 1225 50 L 1250 25 "/>
<path style="fill:none;stroke-width:24.75;stroke-linecap:square;stroke-linejoin:miter;stroke:rgb(100%,100%,100%);stroke-opacity:1;stroke-miterlimit:10;" d="M 1375 25 L 1450 25 L 1475 50 L 1475 125 L 1400 125 L 1375 100 L 1375 75 L 1425 75 "/>
<path style="fill:none;stroke-width:24.75;stroke-linecap:square;stroke-linejoin:miter;stroke:rgb(100%,100%,100%);stroke-opacity:1;stroke-miterlimit:10;" d="M 1525 125 L 1525 25 "/>
<path style="fill:none;stroke-width:24.75;stroke-linecap:square;stroke-linejoin:miter;stroke:rgb(100%,100%,100%);stroke-opacity:1;stroke-miterlimit:10;" d="M 1525 125 L 1525 100 L 1600 25 L 1625 25 "/>
<path style="fill:none;stroke-width:24.75;stroke-linecap:square;stroke-linejoin:miter;stroke:rgb(100%,100%,100%);stroke-opacity:1;stroke-miterlimit:10;" d="M 1575 50 L 1625 100 L 1625 125 "/>
<path style="fill:none;stroke-width:8.25;stroke-linecap:square;stroke-linejoin:miter;stroke:rgb(52.941176%,80.784314%,98.039216%);stroke-opacity:1;stroke-miterlimit:10;" d="M 125 125 L 25 125 L 25 50 L 50 25 L 125 25 L 125 75 L 75 75 "/>
<path style="fill:none;stroke-width:8.25;stroke-linecap:square;stroke-linejoin:miter;stroke:rgb(52.941176%,80.784314%,98.039216%);stroke-opacity:1;stroke-miterlimit:10;" d="M 175 125 L 175 25 L 250 25 L 275 50 L 275 125 "/>
<path style="fill:none;stroke-width:8.25;stroke-linecap:square;stroke-linejoin:miter;stroke:rgb(52.941176%,80.784314%,98.039216%);stroke-opacity:1;stroke-miterlimit:10;" d="M 225 25 L 225 125 "/>
<path style="fill:none;stroke-width:8.25;stroke-linecap:square;stroke-linejoin:miter;stroke:rgb(86.27451%,7.843137%,23.529412%);stroke-opacity:1;stroke-miterlimit:10;" d="M 325 125 L 425 125 "/>
<path style="fill:none;stroke-width:8.25;stroke-linecap:square;stroke-linejoin:miter;stroke:rgb(86.27451%,7.843137%,23.529412%);stroke-opacity:1;stroke-miterlimit:10;" d="M 325 25 L 425 25 "/>
<path style="fill:none;stroke-width:8.25;stroke-linecap:square;stroke-linejoin:miter;stroke:rgb(86.27451%,7.843137%,23.529412%);stroke-opacity:1;stroke-miterlimit:10;" d="M 375 125 L 375 25 "/>
<path style="fill:none;stroke-width:8.25;stroke-linecap:square;stroke-linejoin:miter;stroke:rgb(86.27451%,7.843137%,23.529412%);stroke-opacity:1;stroke-miterlimit:10;" d="M 475 125 L 475 25 L 550 25 L 575 50 L 575 125 "/>
<path style="fill:none;stroke-width:8.25;stroke-linecap:square;stroke-linejoin:miter;stroke:rgb(52.941176%,80.784314%,98.039216%);stroke-opacity:1;stroke-miterlimit:10;" d="M 625 25 L 700 25 L 725 50 L 725 125 L 650 125 L 625 100 L 625 75 L 675 75 "/>
<path style="fill:none;stroke-width:8.25;stroke-linecap:square;stroke-linejoin:miter;stroke:rgb(86.27451%,7.843137%,23.529412%);stroke-opacity:1;stroke-miterlimit:10;" d="M 775 75 L 775 25 L 875 25 L 875 75 "/>
<path style="fill:none;stroke-width:8.25;stroke-linecap:square;stroke-linejoin:miter;stroke:rgb(86.27451%,7.843137%,23.529412%);stroke-opacity:1;stroke-miterlimit:10;" d="M 825 25 L 825 125 "/>
<path style="fill:none;stroke-width:8.25;stroke-linecap:square;stroke-linejoin:miter;stroke:rgb(86.27451%,7.843137%,23.529412%);stroke-opacity:1;stroke-miterlimit:10;" d="M 775 125 L 875 125 "/>
<path style="fill:none;stroke-width:8.25;stroke-linecap:square;stroke-linejoin:miter;stroke:rgb(52.941176%,80.784314%,98.039216%);stroke-opacity:1;stroke-miterlimit:10;" d="M 925 25 L 1000 25 L 1025 50 L 1025 125 L 950 125 L 925 100 Z "/>
<path style="fill:none;stroke-width:8.25;stroke-linecap:square;stroke-linejoin:miter;stroke:rgb(52.941176%,80.784314%,98.039216%);stroke-opacity:1;stroke-miterlimit:10;" d="M 1075 125 L 1075 25 L 1150 25 L 1175 50 L 1175 75 L 1125 75 L 1125 100 L 1150 125 L 1175 125 "/>
<path style="fill:none;stroke-width:8.25;stroke-linecap:square;stroke-linejoin:miter;stroke:rgb(86.27451%,7.843137%,23.529412%);stroke-opacity:1;stroke-miterlimit:10;" d="M 1325 100 L 1325 125 L 1225 125 L 1225 50 L 1250 25 "/>
<path style="fill:none;stroke-width:8.25;stroke-linecap:square;stroke-linejoin:miter;stroke:rgb(86.27451%,7.843137%,23.529412%);stroke-opacity:1;stroke-miterlimit:10;" d="M 1375 25 L 1450 25 L 1475 50 L 1475 125 L 1400 125 L 1375 100 L 1375 75 L 1425 75 "/>
<path style="fill:none;stroke-width:8.25;stroke-linecap:square;stroke-linejoin:miter;stroke:rgb(52.941176%,80.784314%,98.039216%);stroke-opacity:1;stroke-miterlimit:10;" d="M 1525 125 L 1525 25 "/>
<path style="fill:none;stroke-width:8.25;stroke-linecap:square;stroke-linejoin:miter;stroke:rgb(52.941176%,80.784314%,98.039216%);stroke-opacity:1;stroke-miterlimit:10;" d="M 1525 125 L 1525 100 L 1600 25 L 1625 25 "/>
<path style="fill:none;stroke-width:8.25;stroke-linecap:square;stroke-linejoin:miter;stroke:rgb(52.941176%,80.784314%,98.039216%);stroke-opacity:1;stroke-miterlimit:10;" d="M 1575 50 L 1625 100 L 1625 125 "/>
</g>
</svg>
