<?xml version="1.0" encoding="UTF-8"?>
<svg version="1.1" viewbox="0 0 100 100" width="100px" height="100px" xmlns="http://www.w3.org/2000/svg" xmlns:xlink="http://www.w3.org/1999/xlink"><style>rect {
fill: none;
mix-blend-mode: multiply;
stroke: rgb(30%,30%,30%); }
.thin{stroke-width: 0.2;}
.thick{stroke-width: 0.4;}
.c{stroke:rgb(50,154,239);}
.y{stroke:rgb(248,242,93);}
.m{stroke:rgb(246,68,157);}</style><rect class="m thick" x="1.625" stroke-linejoin="round" y="1.625" transform="rotate(0 17 17)" height="30" width="30"></rect><rect class="m thick" x="2.375" stroke-linejoin="round" y="2.375" transform="rotate(0 17 17)" height="28" width="28"></rect><rect class="m thick" x="3.125" stroke-linejoin="round" y="3.125" transform="rotate(0 17 17)" height="26" width="26"></rect><rect class="m thick" x="3.875" stroke-linejoin="round" y="3.875" transform="rotate(0 17 17)" height="24" width="24"></rect><rect class="m thick" x="4.625" stroke-linejoin="round" y="4.625" transform="rotate(0 17 17)" height="22" width="22"></rect><rect class="m thick" x="5.375" stroke-linejoin="round" y="5.375" transform="rotate(0 17 17)" height="20" width="20"></rect><rect class="m thick" x="6.125" stroke-linejoin="round" y="6.125" transform="rotate(0 17 17)" height="18" width="18"></rect><rect class="m thick" x="6.875" stroke-linejoin="round" y="6.875" transform="rotate(0 17 17)" height="16" width="16"></rect><rect class="m thick" x="7.625" stroke-linejoin="round" y="7.625" transform="rotate(0 17 17)" height="14" width="14"></rect><rect class="m thick" x="8.375" stroke-linejoin="round" y="8.375" transform="rotate(0 17 17)" height="12" width="12"></rect><rect class="m thick" x="9.125" stroke-linejoin="round" y="9.125" transform="rotate(0 17 17)" height="10" width="10"></rect><rect class="m thick" x="9.875" stroke-linejoin="round" y="9.875" transform="rotate(0 17 17)" height="8" width="8"></rect><rect class="m thick" x="10.625" stroke-linejoin="round" y="10.625" transform="rotate(0 17 17)" height="6" width="6"></rect><rect class="m thick" x="11.375" stroke-linejoin="round" y="11.375" transform="rotate(0 17 17)" height="4" width="4"></rect><rect class="c thin" x="1.625" stroke-linejoin="round" y="1.625" transform="rotate(180 17 17)" height="30" width="30"></rect><rect class="c thin" x="3.125" stroke-linejoin="round" y="3.125" transform="rotate(180 17 17)" height="26" width="26"></rect><rect class="c thin" x="4.625" stroke-linejoin="round" y="4.625" transform="rotate(180 17 17)" height="22" width="22"></rect><rect class="c thin" x="6.125" stroke-linejoin="round" y="6.125" transform="rotate(180 17 17)" height="18" width="18"></rect><rect class="c thin" x="7.625" stroke-linejoin="round" y="7.625" transform="rotate(180 17 17)" height="14" width="14"></rect><rect class="c thin" x="9.125" stroke-linejoin="round" y="9.125" transform="rotate(180 17 17)" height="10" width="10"></rect><rect class="c thin" x="10.625" stroke-linejoin="round" y="10.625" transform="rotate(180 17 17)" height="6" width="6"></rect><rect class="c thick" x="1.625" stroke-linejoin="round" y="34.625" transform="rotate(0 17 50)" height="30" width="30"></rect><rect class="c thick" x="3.875" stroke-linejoin="round" y="36.875" transform="rotate(0 17 50)" height="24" width="24"></rect><rect class="c thick" x="6.125" stroke-linejoin="round" y="39.125" transform="rotate(0 17 50)" height="18" width="18"></rect><rect class="c thick" x="8.375" stroke-linejoin="round" y="41.375" transform="rotate(0 17 50)" height="12" width="12"></rect><rect class="c thick" x="10.625" stroke-linejoin="round" y="43.625" transform="rotate(0 17 50)" height="6" width="6"></rect><rect class="y thin" x="1.625" stroke-linejoin="round" y="34.625" transform="rotate(180 17 50)" height="30" width="30"></rect><rect class="y thin" x="3.875" stroke-linejoin="round" y="36.875" transform="rotate(180 17 50)" height="24" width="24"></rect><rect class="y thin" x="6.125" stroke-linejoin="round" y="39.125" transform="rotate(180 17 50)" height="18" width="18"></rect><rect class="y thin" x="8.375" stroke-linejoin="round" y="41.375" transform="rotate(180 17 50)" height="12" width="12"></rect><rect class="y thin" x="10.625" stroke-linejoin="round" y="43.625" transform="rotate(180 17 50)" height="6" width="6"></rect><rect class="c thin" x="1.625" stroke-linejoin="round" y="67.625" transform="rotate(0 17 83)" height="30" width="30"></rect><rect class="c thin" x="3.875" stroke-linejoin="round" y="69.875" transform="rotate(0 17 83)" height="24" width="24"></rect><rect class="c thin" x="6.125" stroke-linejoin="round" y="72.125" transform="rotate(0 17 83)" height="18" width="18"></rect><rect class="c thin" x="8.375" stroke-linejoin="round" y="74.375" transform="rotate(0 17 83)" height="12" width="12"></rect><rect class="c thin" x="10.625" stroke-linejoin="round" y="76.625" transform="rotate(0 17 83)" height="6" width="6"></rect><rect class="m thick" x="1.625" stroke-linejoin="round" y="67.625" transform="rotate(180 17 83)" height="30" width="30"></rect><rect class="m thick" x="2.375" stroke-linejoin="round" y="68.375" transform="rotate(180 17 83)" height="28" width="28"></rect><rect class="m thick" x="3.125" stroke-linejoin="round" y="69.125" transform="rotate(180 17 83)" height="26" width="26"></rect><rect class="m thick" x="3.875" stroke-linejoin="round" y="69.875" transform="rotate(180 17 83)" height="24" width="24"></rect><rect class="m thick" x="4.625" stroke-linejoin="round" y="70.625" transform="rotate(180 17 83)" height="22" width="22"></rect><rect class="m thick" x="5.375" stroke-linejoin="round" y="71.375" transform="rotate(180 17 83)" height="20" width="20"></rect><rect class="m thick" x="6.125" stroke-linejoin="round" y="72.125" transform="rotate(180 17 83)" height="18" width="18"></rect><rect class="m thick" x="6.875" stroke-linejoin="round" y="72.875" transform="rotate(180 17 83)" height="16" width="16"></rect><rect class="m thick" x="7.625" stroke-linejoin="round" y="73.625" transform="rotate(180 17 83)" height="14" width="14"></rect><rect class="m thick" x="8.375" stroke-linejoin="round" y="74.375" transform="rotate(180 17 83)" height="12" width="12"></rect><rect class="m thick" x="9.125" stroke-linejoin="round" y="75.125" transform="rotate(180 17 83)" height="10" width="10"></rect><rect class="m thick" x="9.875" stroke-linejoin="round" y="75.875" transform="rotate(180 17 83)" height="8" width="8"></rect><rect class="m thick" x="10.625" stroke-linejoin="round" y="76.625" transform="rotate(180 17 83)" height="6" width="6"></rect><rect class="m thick" x="11.375" stroke-linejoin="round" y="77.375" transform="rotate(180 17 83)" height="4" width="4"></rect><rect class="c thick" x="34.625" stroke-linejoin="round" y="1.625" transform="rotate(90 50 17)" height="30" width="30"></rect><rect class="c thick" x="36.125" stroke-linejoin="round" y="3.125" transform="rotate(90 50 17)" height="26" width="26"></rect><rect class="c thick" x="37.625" stroke-linejoin="round" y="4.625" transform="rotate(90 50 17)" height="22" width="22"></rect><rect class="c thick" x="39.125" stroke-linejoin="round" y="6.125" transform="rotate(90 50 17)" height="18" width="18"></rect><rect class="c thick" x="40.625" stroke-linejoin="round" y="7.625" transform="rotate(90 50 17)" height="14" width="14"></rect><rect class="c thick" x="42.125" stroke-linejoin="round" y="9.125" transform="rotate(90 50 17)" height="10" width="10"></rect><rect class="c thick" x="43.625" stroke-linejoin="round" y="10.625" transform="rotate(90 50 17)" height="6" width="6"></rect><rect class="y thin" x="34.625" stroke-linejoin="round" y="1.625" transform="rotate(270 50 17)" height="30" width="30"></rect><rect class="y thin" x="36.875" stroke-linejoin="round" y="3.875" transform="rotate(270 50 17)" height="24" width="24"></rect><rect class="y thin" x="39.125" stroke-linejoin="round" y="6.125" transform="rotate(270 50 17)" height="18" width="18"></rect><rect class="y thin" x="41.375" stroke-linejoin="round" y="8.375" transform="rotate(270 50 17)" height="12" width="12"></rect><rect class="y thin" x="43.625" stroke-linejoin="round" y="10.625" transform="rotate(270 50 17)" height="6" width="6"></rect><rect class="m thick" x="34.625" stroke-linejoin="round" y="34.625" transform="rotate(90 50 50)" height="30" width="30"></rect><rect class="m thick" x="35.375" stroke-linejoin="round" y="35.375" transform="rotate(90 50 50)" height="28" width="28"></rect><rect class="m thick" x="36.125" stroke-linejoin="round" y="36.125" transform="rotate(90 50 50)" height="26" width="26"></rect><rect class="m thick" x="36.875" stroke-linejoin="round" y="36.875" transform="rotate(90 50 50)" height="24" width="24"></rect><rect class="m thick" x="37.625" stroke-linejoin="round" y="37.625" transform="rotate(90 50 50)" height="22" width="22"></rect><rect class="m thick" x="38.375" stroke-linejoin="round" y="38.375" transform="rotate(90 50 50)" height="20" width="20"></rect><rect class="m thick" x="39.125" stroke-linejoin="round" y="39.125" transform="rotate(90 50 50)" height="18" width="18"></rect><rect class="m thick" x="39.875" stroke-linejoin="round" y="39.875" transform="rotate(90 50 50)" height="16" width="16"></rect><rect class="m thick" x="40.625" stroke-linejoin="round" y="40.625" transform="rotate(90 50 50)" height="14" width="14"></rect><rect class="m thick" x="41.375" stroke-linejoin="round" y="41.375" transform="rotate(90 50 50)" height="12" width="12"></rect><rect class="m thick" x="42.125" stroke-linejoin="round" y="42.125" transform="rotate(90 50 50)" height="10" width="10"></rect><rect class="m thick" x="42.875" stroke-linejoin="round" y="42.875" transform="rotate(90 50 50)" height="8" width="8"></rect><rect class="m thick" x="43.625" stroke-linejoin="round" y="43.625" transform="rotate(90 50 50)" height="6" width="6"></rect><rect class="m thick" x="44.375" stroke-linejoin="round" y="44.375" transform="rotate(90 50 50)" height="4" width="4"></rect><rect class="c thin" x="34.625" stroke-linejoin="round" y="34.625" transform="rotate(270 50 50)" height="30" width="30"></rect><rect class="c thin" x="36.875" stroke-linejoin="round" y="36.875" transform="rotate(270 50 50)" height="24" width="24"></rect><rect class="c thin" x="39.125" stroke-linejoin="round" y="39.125" transform="rotate(270 50 50)" height="18" width="18"></rect><rect class="c thin" x="41.375" stroke-linejoin="round" y="41.375" transform="rotate(270 50 50)" height="12" width="12"></rect><rect class="c thin" x="43.625" stroke-linejoin="round" y="43.625" transform="rotate(270 50 50)" height="6" width="6"></rect><rect class="m thick" x="34.625" stroke-linejoin="round" y="67.625" transform="rotate(0 50 83)" height="30" width="30"></rect><rect class="m thick" x="36.875" stroke-linejoin="round" y="69.875" transform="rotate(0 50 83)" height="24" width="24"></rect><rect class="m thick" x="39.125" stroke-linejoin="round" y="72.125" transform="rotate(0 50 83)" height="18" width="18"></rect><rect class="m thick" x="41.375" stroke-linejoin="round" y="74.375" transform="rotate(0 50 83)" height="12" width="12"></rect><rect class="m thick" x="43.625" stroke-linejoin="round" y="76.625" transform="rotate(0 50 83)" height="6" width="6"></rect><rect class="y thin" x="34.625" stroke-linejoin="round" y="67.625" transform="rotate(180 50 83)" height="30" width="30"></rect><rect class="y thin" x="36.125" stroke-linejoin="round" y="69.125" transform="rotate(180 50 83)" height="26" width="26"></rect><rect class="y thin" x="37.625" stroke-linejoin="round" y="70.625" transform="rotate(180 50 83)" height="22" width="22"></rect><rect class="y thin" x="39.125" stroke-linejoin="round" y="72.125" transform="rotate(180 50 83)" height="18" width="18"></rect><rect class="y thin" x="40.625" stroke-linejoin="round" y="73.625" transform="rotate(180 50 83)" height="14" width="14"></rect><rect class="y thin" x="42.125" stroke-linejoin="round" y="75.125" transform="rotate(180 50 83)" height="10" width="10"></rect><rect class="y thin" x="43.625" stroke-linejoin="round" y="76.625" transform="rotate(180 50 83)" height="6" width="6"></rect><rect class="y thick" x="67.625" stroke-linejoin="round" y="1.625" transform="rotate(0 83 17)" height="30" width="30"></rect><rect class="y thick" x="69.125" stroke-linejoin="round" y="3.125" transform="rotate(0 83 17)" height="26" width="26"></rect><rect class="y thick" x="70.625" stroke-linejoin="round" y="4.625" transform="rotate(0 83 17)" height="22" width="22"></rect><rect class="y thick" x="72.125" stroke-linejoin="round" y="6.125" transform="rotate(0 83 17)" height="18" width="18"></rect><rect class="y thick" x="73.625" stroke-linejoin="round" y="7.625" transform="rotate(0 83 17)" height="14" width="14"></rect><rect class="y thick" x="75.125" stroke-linejoin="round" y="9.125" transform="rotate(0 83 17)" height="10" width="10"></rect><rect class="y thick" x="76.625" stroke-linejoin="round" y="10.625" transform="rotate(0 83 17)" height="6" width="6"></rect><rect class="c thin" x="67.625" stroke-linejoin="round" y="1.625" transform="rotate(180 83 17)" height="30" width="30"></rect><rect class="c thin" x="69.875" stroke-linejoin="round" y="3.875" transform="rotate(180 83 17)" height="24" width="24"></rect><rect class="c thin" x="72.125" stroke-linejoin="round" y="6.125" transform="rotate(180 83 17)" height="18" width="18"></rect><rect class="c thin" x="74.375" stroke-linejoin="round" y="8.375" transform="rotate(180 83 17)" height="12" width="12"></rect><rect class="c thin" x="76.625" stroke-linejoin="round" y="10.625" transform="rotate(180 83 17)" height="6" width="6"></rect><rect class="c thick" x="67.625" stroke-linejoin="round" y="34.625" transform="rotate(0 83 50)" height="30" width="30"></rect><rect class="c thick" x="69.125" stroke-linejoin="round" y="36.125" transform="rotate(0 83 50)" height="26" width="26"></rect><rect class="c thick" x="70.625" stroke-linejoin="round" y="37.625" transform="rotate(0 83 50)" height="22" width="22"></rect><rect class="c thick" x="72.125" stroke-linejoin="round" y="39.125" transform="rotate(0 83 50)" height="18" width="18"></rect><rect class="c thick" x="73.625" stroke-linejoin="round" y="40.625" transform="rotate(0 83 50)" height="14" width="14"></rect><rect class="c thick" x="75.125" stroke-linejoin="round" y="42.125" transform="rotate(0 83 50)" height="10" width="10"></rect><rect class="c thick" x="76.625" stroke-linejoin="round" y="43.625" transform="rotate(0 83 50)" height="6" width="6"></rect><rect class="m thin" x="67.625" stroke-linejoin="round" y="34.625" transform="rotate(180 83 50)" height="30" width="30"></rect><rect class="m thin" x="68.375" stroke-linejoin="round" y="35.375" transform="rotate(180 83 50)" height="28" width="28"></rect><rect class="m thin" x="69.125" stroke-linejoin="round" y="36.125" transform="rotate(180 83 50)" height="26" width="26"></rect><rect class="m thin" x="69.875" stroke-linejoin="round" y="36.875" transform="rotate(180 83 50)" height="24" width="24"></rect><rect class="m thin" x="70.625" stroke-linejoin="round" y="37.625" transform="rotate(180 83 50)" height="22" width="22"></rect><rect class="m thin" x="71.375" stroke-linejoin="round" y="38.375" transform="rotate(180 83 50)" height="20" width="20"></rect><rect class="m thin" x="72.125" stroke-linejoin="round" y="39.125" transform="rotate(180 83 50)" height="18" width="18"></rect><rect class="m thin" x="72.875" stroke-linejoin="round" y="39.875" transform="rotate(180 83 50)" height="16" width="16"></rect><rect class="m thin" x="73.625" stroke-linejoin="round" y="40.625" transform="rotate(180 83 50)" height="14" width="14"></rect><rect class="m thin" x="74.375" stroke-linejoin="round" y="41.375" transform="rotate(180 83 50)" height="12" width="12"></rect><rect class="m thin" x="75.125" stroke-linejoin="round" y="42.125" transform="rotate(180 83 50)" height="10" width="10"></rect><rect class="m thin" x="75.875" stroke-linejoin="round" y="42.875" transform="rotate(180 83 50)" height="8" width="8"></rect><rect class="m thin" x="76.625" stroke-linejoin="round" y="43.625" transform="rotate(180 83 50)" height="6" width="6"></rect><rect class="m thin" x="77.375" stroke-linejoin="round" y="44.375" transform="rotate(180 83 50)" height="4" width="4"></rect><rect class="y thin" x="67.625" stroke-linejoin="round" y="67.625" transform="rotate(0 83 83)" height="30" width="30"></rect><rect class="y thin" x="69.875" stroke-linejoin="round" y="69.875" transform="rotate(0 83 83)" height="24" width="24"></rect><rect class="y thin" x="72.125" stroke-linejoin="round" y="72.125" transform="rotate(0 83 83)" height="18" width="18"></rect><rect class="y thin" x="74.375" stroke-linejoin="round" y="74.375" transform="rotate(0 83 83)" height="12" width="12"></rect><rect class="y thin" x="76.625" stroke-linejoin="round" y="76.625" transform="rotate(0 83 83)" height="6" width="6"></rect><rect class="c thick" x="67.625" stroke-linejoin="round" y="67.625" transform="rotate(180 83 83)" height="30" width="30"></rect><rect class="c thick" x="68.375" stroke-linejoin="round" y="68.375" transform="rotate(180 83 83)" height="28" width="28"></rect><rect class="c thick" x="69.125" stroke-linejoin="round" y="69.125" transform="rotate(180 83 83)" height="26" width="26"></rect><rect class="c thick" x="69.875" stroke-linejoin="round" y="69.875" transform="rotate(180 83 83)" height="24" width="24"></rect><rect class="c thick" x="70.625" stroke-linejoin="round" y="70.625" transform="rotate(180 83 83)" height="22" width="22"></rect><rect class="c thick" x="71.375" stroke-linejoin="round" y="71.375" transform="rotate(180 83 83)" height="20" width="20"></rect><rect class="c thick" x="72.125" stroke-linejoin="round" y="72.125" transform="rotate(180 83 83)" height="18" width="18"></rect><rect class="c thick" x="72.875" stroke-linejoin="round" y="72.875" transform="rotate(180 83 83)" height="16" width="16"></rect><rect class="c thick" x="73.625" stroke-linejoin="round" y="73.625" transform="rotate(180 83 83)" height="14" width="14"></rect><rect class="c thick" x="74.375" stroke-linejoin="round" y="74.375" transform="rotate(180 83 83)" height="12" width="12"></rect><rect class="c thick" x="75.125" stroke-linejoin="round" y="75.125" transform="rotate(180 83 83)" height="10" width="10"></rect><rect class="c thick" x="75.875" stroke-linejoin="round" y="75.875" transform="rotate(180 83 83)" height="8" width="8"></rect><rect class="c thick" x="76.625" stroke-linejoin="round" y="76.625" transform="rotate(180 83 83)" height="6" width="6"></rect><rect class="c thick" x="77.375" stroke-linejoin="round" y="77.375" transform="rotate(180 83 83)" height="4" width="4"></rect></svg>