<?xml version="1.0" encoding="UTF-8" standalone="no"?>
<!-- Created with Inkscape (http://www.inkscape.org/) -->

<svg
   version="1.1"
   id="svg1"
   width="264"
   height="144"
   viewBox="150 250 756 196"
   sodipodi:docname="Blue  UMB logo lockup with TM.eps"
   xmlns:inkscape="http://www.inkscape.org/namespaces/inkscape"
   xmlns:sodipodi="http://sodipodi.sourceforge.net/DTD/sodipodi-0.dtd"
   xmlns="http://www.w3.org/2000/svg"
   xmlns:svg="http://www.w3.org/2000/svg">
  <defs
     id="defs1" />
  <sodipodi:namedview
     id="namedview1"
     pagecolor="#ffffff"
     bordercolor="#000000"
     borderopacity="0.25"
     inkscape:showpageshadow="2"
     inkscape:pageopacity="0.0"
     inkscape:pagecheckerboard="0"
     inkscape:deskcolor="#d1d1d1">
    <inkscape:page
       x="0"
       y="0"
       inkscape:label="1"
       id="page1"
       width="1056"
       height="816"
       margin="0"
       bleed="0" />
  </sodipodi:namedview>
  <g
     id="g1"
     inkscape:groupmode="layer"
     inkscape:label="1">
    <path
       id="path1"
       d="m 6607.91,2925.56 c -0.1,242.56 0.01,485.13 -0.13,727.69 -0.01,23.69 -0.93,47.39 -1.94,71.08 -2.2,51.35 -9.75,101.99 -21,152.13 -74.03,330.05 -321.98,595.13 -646.17,690.48 -74.07,21.78 -149.7,34.52 -226.99,36.34 -24.06,0.57 -48.15,0.01 -72.22,0.01 -536.44,0 -1072.88,0 -1609.32,0 -5.79,0 -11.58,0 -19.31,0 0,-7.18 0,-12.54 0,-17.9 0.03,-319.93 0.06,-639.85 0.08,-959.77 0,-234.01 -0.13,-468.02 0.16,-702.03 0.04,-29.5 1.77,-59.03 3.74,-88.47 3.92,-58.72 15.07,-116.22 30.68,-172.9 79.26,-287.72 298.76,-524.97 579.1,-626.28 105.97,-38.29 215.35,-55.93 327.81,-55.91 231.68,0.03 463.36,-0.18 695.03,0.2 37.27,0.06 74.57,2.01 111.79,4.21 46.23,2.73 91.79,10.67 136.63,21.98 232.53,58.63 416.6,187.35 552.08,384.93 74.64,108.87 122.25,229.17 145.52,359.05 10.37,57.9 14.49,116.35 14.46,175.16 z M 5716.4,3985.5 c -1.42,-38.55 -5.42,-76.69 -14.98,-114.1 -13.51,-52.82 -36.78,-100.5 -74.78,-140.3 -30.52,-31.97 -66.93,-55.29 -107.29,-72.73 -47.71,-20.62 -97.77,-32.42 -149.06,-39.87 -56.29,-8.18 -112.88,-10.01 -169.64,-9.45 -27.97,0.28 -55.96,0.05 -83.94,0.05 -4.15,0 -8.31,0 -13.78,0 0,5.68 0,9.84 0,14.01 0.01,209.46 0.01,418.92 0.01,628.39 0,27.98 0.6,55.93 4.98,83.66 0.8,4.98 1.79,9.93 2.72,14.88 3.72,19.8 14.85,31.88 34.69,37.78 24.7,7.33 49.71,12.74 75.18,15 29.76,2.65 59.71,4.5 89.55,4.31 58.93,-0.36 116.89,-8.24 172.67,-28.36 108.86,-39.29 179.52,-115.07 213.56,-225.2 16.9,-54.71 22.21,-110.93 20.11,-168.07 z m 106.3,-912.29 c 14.45,-58.91 18.38,-118.73 14.86,-179.28 -2.88,-49.54 -10.81,-98.03 -27.21,-144.87 -38.68,-110.45 -113.59,-187.11 -220.08,-233.81 -45.03,-19.75 -92.11,-32.3 -140.67,-39.83 -41.94,-6.5 -84.1,-9.75 -126.48,-8.53 -38.83,1.12 -77.48,3.96 -115.01,15.54 -42.07,12.99 -69.97,40.01 -84.43,81.55 -10.31,29.59 -15.61,60.18 -17.63,91.2 -2.02,30.99 -2.95,62.1 -2.99,93.16 -0.24,211.4 -0.13,422.81 -0.13,634.21 0,5.4 0,10.79 0,17.65 5.49,0.28 9.29,0.64 13.09,0.63 49.73,-0.11 99.5,0.64 149.22,-0.63 89.93,-2.28 178.8,-12.76 265.21,-39.32 43.97,-13.52 86.01,-31.38 125.19,-55.68 87.62,-54.33 142.61,-132.28 167.06,-231.99 z m 696.72,-168.89 c -1.99,-215.5 -77.63,-404.05 -223.05,-563.31 -114.42,-125.3 -254.99,-207.89 -419.81,-248.77 -0.08,-0.03 -0.17,-0.05 -0.26,-0.07 -0.04,-0.01 -0.06,-0.01 -0.1,-0.02 -40.73,-10.11 -81.98,-17.63 -123.93,-20.16 -31.78,-1.92 -63.62,-3.83 -95.44,-3.88 -238.28,-0.31 -476.57,-0.64 -714.85,-0.01 -168.28,0.45 -323.25,46.71 -463.98,139.44 -74.94,49.38 -140.02,109.61 -195.89,179.8 -45.85,57.6 -72.56,123.48 -84.14,195.8 -8.02,50.13 -9.61,100.6 -5.11,151.08 4.62,51.83 10.5,103.54 16.2,155.27 5.45,49.41 11.32,98.78 17.15,148.15 5.78,48.98 11.8,97.95 17.59,146.94 5.08,42.8 9.95,85.64 15,128.45 5,42.43 10.15,84.84 15.17,127.27 5.07,42.82 10.03,85.64 15.08,128.46 5.01,42.43 10.06,84.85 15.1,127.27 3.43,28.94 6.65,57.89 10.47,86.77 1.15,8.65 -1.14,14.34 -8.15,19.83 -17.13,13.4 -33.44,27.85 -50.34,41.56 -5.21,4.23 -7.93,8.73 -7.88,15.71 0.25,39.65 0.16,118.95 0.16,118.95 l -0.07,11.92 c 0,0 72.89,0 109.27,0 0,69.1 0,204.98 0,204.98 l -53.53,0.09 c 0,0 123.7,96.66 181.74,139.75 5.74,4.47 12.88,15.03 12.77,24.06 -0.47,35.76 -0.05,69.32 -0.04,105.09 0,3.49 -0.19,7.04 0.31,10.47 0.72,4.93 3.72,8.36 7.91,9.73 1.36,0.5 2.85,0.78 4.45,0.79 6.25,0.07 11.1,-3.79 12.18,-10.26 0.56,-3.42 0.37,-6.97 0.37,-10.46 0.02,-36.54 0.78,-68.83 0.35,-105.36 0,-8.93 6.07,-19.59 12.13,-24.06 57.64,-42.97 183.08,-139.75 183.08,-139.75 h -53.64 l -0.36,-3.87 v -201.2 l 109.86,0.09 c 0,0 -0.08,-12.86 -0.18,-31.01 0,-26.02 0.02,-72.32 0.17,-99.71 0.04,-6.43 -2.06,-10.87 -7.04,-14.92 -18.09,-14.72 -35.73,-29.98 -53.88,-44.61 -5.18,-4.16 -6.92,-8.52 -6.19,-14.95 4.44,-38.58 8.68,-77.19 12.88,-115.8 4.25,-39 8.34,-78.03 12.56,-117.03 4.3,-39.78 8.7,-79.54 13.02,-119.31 4.24,-39 8.4,-78.01 12.63,-117.02 4.3,-39.77 8.66,-79.54 12.97,-119.31 4.23,-39.01 8.41,-78.02 12.64,-117.02 4.36,-40.16 8.77,-80.32 13.12,-120.48 4.23,-39 8.37,-78.01 12.6,-117.01 4.3,-39.78 8.67,-79.55 12.99,-119.32 4.23,-39 8.33,-78.02 12.63,-117.02 5.58,-50.53 8.54,-101.46 21.04,-151 3.98,-15.78 8.59,-31.49 14.24,-46.75 22.25,-60.1 63.99,-100.81 124.03,-123.03 32.99,-12.21 67.21,-19.12 101.97,-23.04 52.95,-5.97 106.14,-8.81 159.42,-6.59 56.28,2.34 112.64,4.32 168.73,9.11 83.66,7.15 166.29,20.09 247.32,41 27.03,6.98 53.88,14.85 80.53,23.69 93.92,31.16 181.85,74.05 261.21,133.68 85.52,64.28 155.14,142.03 202.03,238.94 30.41,62.86 48.68,129.13 55.61,198.62 8.73,87.75 1.72,173.88 -26.75,257.63 -33.69,99.1 -94.64,178.39 -177.68,241.26 -65.72,49.76 -139.01,84.89 -216.65,111.43 -22.02,7.52 -44.44,13.89 -66.67,20.77 -3.66,1.14 -7.34,2.24 -13.86,4.21 5.75,3.05 9.19,5.06 12.79,6.76 52.19,24.61 101.56,53.79 146.7,89.92 102.69,82.19 169.26,186.59 190.77,317.08 23,139.47 1.23,271.6 -72.2,393.68 -4.37,7.28 -9.96,15.33 -16.26,23.75 -36.96,47.36 -100.58,106.28 -102.26,109.74 3.6,-1.02 7.27,-1.87 10.81,-3.1 241.24,-84.08 412.35,-243.76 513.93,-477.88 29.54,-68.08 48.14,-139.46 57.4,-213 4.31,-34.25 7.27,-68.91 7.35,-103.39 0.6,-258.5 2.15,-517.03 -0.24,-775.51 z M 4444.96,3990.96 c 0,0 88.17,-0.31 132.83,-0.31 0,69.24 -0.2,205.19 -0.2,205.19 l -132.63,0.06 v -204.94 0"
       style="fill:#20518e;fill-opacity:1;fill-rule:nonzero;stroke:none"
       transform="matrix(0.13333333,0,0,-0.13333333,0,816)" />
    <path
       id="path2"
       d="m 1390.8,2660.36 c 61.61,0 112.05,14.43 151.3,43.34 39.26,28.9 58.89,67.61 58.89,116.14 0,34.89 -12.01,65.28 -35.99,91.19 -24,25.9 -55.89,42.11 -95.69,48.66 75.25,22.9 112.86,67.88 112.86,134.94 0,42.54 -16.63,76.2 -49.88,101.01 -33.26,24.81 -80.7,37.22 -142.3,37.22 H 1116 v -572.5 h 274.8 z m -150.49,469.45 h 130.86 c 28.9,0 50.57,-4.79 65.02,-14.31 14.44,-9.55 21.67,-25.24 21.67,-47.04 0,-41.43 -28.91,-62.15 -86.69,-62.15 h -130.86 z m 0,-223.27 h 132.5 c 66.51,0 99.78,-24.01 99.78,-71.98 0,-47.44 -33.27,-71.15 -99.78,-71.15 h -132.5 z m 476.8,-197.52 c 40.9,-41.18 92.14,-61.75 153.77,-61.75 63.79,0 115.58,19.89 155.39,59.71 39.79,39.78 59.7,92.41 59.7,157.85 0,64.33 -20.04,116.54 -60.11,156.61 -40.07,40.07 -91.74,60.11 -154.98,60.11 -62.71,0 -114.24,-20.04 -154.58,-60.11 -40.35,-40.07 -60.52,-92.28 -60.52,-156.61 0,-62.71 20.44,-114.65 61.33,-155.81 z m 153.77,30.66 c -29.44,0 -52.49,10.5 -69.11,31.5 -16.65,20.98 -24.95,51.65 -24.95,92.01 0,40.34 8.3,71.55 24.95,93.64 16.62,22.08 39.67,33.12 69.11,33.12 29.43,0 52.47,-11.04 69.1,-33.12 16.63,-22.09 24.95,-53.3 24.95,-93.64 0,-40.36 -8.32,-71.03 -24.95,-92.01 -16.63,-21 -39.67,-31.5 -69.1,-31.5 z m 323.45,-58.87 c 35.71,-21.27 77.82,-31.9 126.35,-31.9 58.89,0 105.23,12.12 139.05,36.39 33.8,24.26 50.7,57.11 50.7,98.55 0,67.07 -46.89,109.6 -140.67,127.58 l -56.43,10.65 c -21.82,3.8 -36.68,8.58 -44.57,14.3 -7.91,5.73 -11.86,14.32 -11.86,25.77 0,11.98 5.03,21.53 15.12,28.62 10.09,7.08 24.41,10.63 42.95,10.63 40.89,0 68.41,-19.09 82.6,-57.25 l 95.68,43.35 c -10.91,25.62 -31.21,47.7 -60.92,66.24 -29.72,18.53 -66.93,27.81 -111.65,27.81 -53.97,0 -96.77,-11.72 -128.4,-35.16 -31.63,-23.46 -47.43,-54.8 -47.43,-94.05 0,-37.63 10.76,-65.71 32.31,-84.25 21.53,-18.55 56.03,-32.45 103.45,-41.71 l 58.07,-11.45 c 18.53,-3.82 31.61,-9.14 39.25,-15.94 7.65,-6.83 11.47,-15.96 11.47,-27.41 0,-11.99 -5.61,-21.82 -16.78,-29.44 -11.17,-7.64 -26.31,-11.45 -45.39,-11.45 -34.35,0 -57.53,7.63 -69.51,22.89 -12.56,15.82 -20.46,31.09 -23.72,45.81 l -105.51,-33.53 c 8.18,-35.44 30.12,-63.79 65.84,-85.05 z m 444.51,8.99 c 18.52,-19.63 43.89,-29.44 76.06,-29.44 h 136.58 v 92.42 h -88.32 c -12.55,0 -21.67,2.86 -27.4,8.57 -5.73,5.74 -8.59,14.86 -8.59,27.41 v 192.19 h 106.33 v 88.33 h -106.33 v 128.4 h -116.14 v -128.4 h -85.88 v -88.33 h 85.88 V 2767.5 c 0,-32.19 9.26,-58.07 27.81,-77.7 z m 300.97,19.22 c 40.89,-41.18 92.14,-61.75 153.75,-61.75 63.8,0 115.6,19.89 155.4,59.71 39.8,39.78 59.7,92.41 59.7,157.85 0,64.33 -20.03,116.54 -60.11,156.61 -40.08,40.07 -91.75,60.11 -154.99,60.11 -62.7,0 -114.22,-20.04 -154.57,-60.11 -40.36,-40.07 -60.52,-92.28 -60.52,-156.61 0,-62.71 20.45,-114.65 61.34,-155.81 z m 153.75,30.66 c -29.44,0 -52.48,10.5 -69.11,31.5 -16.63,20.98 -24.93,51.65 -24.93,92.01 0,40.34 8.3,71.55 24.93,93.64 16.63,22.08 39.67,33.12 69.11,33.12 29.45,0 52.47,-11.04 69.12,-33.12 16.62,-22.09 24.93,-53.3 24.93,-93.64 0,-40.36 -8.31,-71.03 -24.93,-92.01 -16.65,-21 -39.67,-31.5 -69.12,-31.5 z m 408.11,-79.32 v 193.82 c 0,51.25 8.99,87.79 26.99,109.6 11.99,14.73 30.26,22.08 54.79,22.08 43.62,0 65.44,-25.64 65.44,-76.87 v -248.63 h 116.12 v 273.98 c 0,46.88 -11.32,83.13 -33.94,108.77 -22.62,25.62 -56.3,38.44 -101,38.44 -57.25,0 -101.14,-25.08 -131.67,-75.24 v 62.97 h -112.87 v -408.92 h 116.14"
       style="fill:#20518e;fill-opacity:1;fill-rule:nonzero;stroke:none"
       transform="matrix(0.13333333,0,0,-0.13333333,0,816)" />
    <path
       id="path3"
       d="m 1186.64,3471.41 c 46.62,-42.53 108.91,-63.8 186.89,-63.8 76.32,0 138.21,21.27 185.65,63.8 47.44,42.53 71.15,100.04 71.15,172.57 v 349.22 h -124.31 v -329.6 c 0,-99.78 -44.16,-149.66 -132.49,-149.66 -43.64,0 -76.62,12.67 -98.96,38.03 -22.37,25.35 -33.54,62.57 -33.54,111.63 v 329.6 h -124.31 v -349.22 c 0,-72.53 23.31,-130.04 69.92,-172.57 z m 690.68,-50.71 v 466.17 l 157.85,-466.17 h 110.42 l 159.47,466.99 V 3656.25 3420.7 h 124.32 v 572.5 h -196.29 l -95.69,-278.88 c -18,-53.99 -32.45,-94.61 -43.35,-121.87 -10.91,27.26 -25.35,67.88 -43.34,121.87 l -94.05,278.88 h -203.65 v -572.5 z m 673.92,19.63 c 24.53,-21.8 55.34,-32.72 92.42,-32.72 61.6,0 108.23,24.26 139.85,72.79 4.35,-39.8 28.89,-59.7 73.6,-59.7 h 89.15 v 88.33 h -35.98 c -10.92,0 -17.72,1.35 -20.45,4.09 -2.73,2.72 -4.1,9.54 -4.1,20.44 v 149.67 c 0,52.34 -15.67,91.87 -47.02,118.58 -31.35,26.72 -76.47,40.09 -135.36,40.09 -55.61,0 -101,-12.26 -136.17,-36.81 -35.16,-24.53 -54.38,-53.98 -57.65,-88.33 l 104.69,-22.9 c 10.34,43.06 40.33,64.62 89.95,64.62 44.71,0 67.08,-18.81 67.08,-56.43 v -15.54 c -39.82,-3.82 -74.3,-9.15 -103.47,-15.96 -29.17,-6.82 -55.62,-16.23 -79.33,-28.21 -23.71,-12 -41.85,-27.8 -54.39,-47.44 -12.54,-19.63 -19.09,-42.81 -19.62,-69.51 0,-34.9 12.27,-63.26 36.8,-85.06 z m 195.46,76.88 c -16.36,-16.35 -36.8,-24.54 -61.33,-24.54 -35.46,0 -53.17,14.72 -53.17,44.16 0,23.99 11.46,41.44 34.36,52.34 22.89,10.9 57.78,19.35 104.69,25.37 v -26.19 c 0,-31.06 -8.19,-54.79 -24.55,-71.14 z m 284.2,-76.06 c 35.7,-21.27 77.83,-31.9 126.36,-31.9 58.89,0 105.23,12.12 139.04,36.39 33.79,24.26 50.7,57.11 50.7,98.56 0,67.06 -46.9,109.59 -140.67,127.59 l -56.44,10.63 c -21.8,3.8 -36.66,8.58 -44.56,14.3 -7.92,5.73 -11.87,14.32 -11.87,25.77 0,11.99 5.04,21.53 15.14,28.62 10.08,7.08 24.39,10.63 42.93,10.63 40.89,0 68.43,-19.09 82.6,-57.25 l 95.7,43.35 c -10.91,25.62 -31.22,47.71 -60.94,66.25 -29.72,18.53 -66.93,27.81 -111.63,27.81 -53.97,0 -96.79,-11.73 -128.4,-35.17 -31.63,-23.46 -47.44,-54.8 -47.44,-94.05 0,-37.63 10.76,-65.71 32.3,-84.24 21.55,-18.54 56.03,-32.45 103.47,-41.71 l 58.07,-11.46 c 18.53,-3.82 31.61,-9.14 39.25,-15.94 7.63,-6.83 11.45,-15.95 11.45,-27.41 0,-11.99 -5.6,-21.8 -16.76,-29.43 -11.19,-7.65 -26.31,-11.46 -45.4,-11.46 -34.34,0 -57.52,7.64 -69.52,22.91 -12.54,15.8 -20.44,31.08 -23.71,45.8 l -105.51,-33.53 c 8.19,-35.45 30.12,-63.8 65.84,-85.06 z m 421.19,0 c 35.71,-21.27 77.83,-31.9 126.36,-31.9 58.89,0 105.23,12.12 139.04,36.39 33.79,24.26 50.7,57.11 50.7,98.56 0,67.06 -46.9,109.59 -140.67,127.59 l -56.43,10.63 c -21.81,3.8 -36.67,8.58 -44.57,14.3 -7.92,5.73 -11.87,14.32 -11.87,25.77 0,11.99 5.05,21.53 15.14,28.62 10.09,7.08 24.39,10.63 42.93,10.63 40.89,0 68.43,-19.09 82.6,-57.25 l 95.7,43.35 c -10.91,25.62 -31.22,47.71 -60.94,66.25 -29.72,18.53 -66.93,27.81 -111.63,27.81 -53.97,0 -96.79,-11.73 -128.4,-35.17 -31.63,-23.46 -47.44,-54.8 -47.44,-94.05 0,-37.63 10.76,-65.71 32.3,-84.24 21.55,-18.54 56.03,-32.45 103.47,-41.71 l 58.07,-11.46 c 18.53,-3.82 31.61,-9.14 39.25,-15.94 7.63,-6.83 11.45,-15.95 11.45,-27.41 0,-11.99 -5.6,-21.8 -16.76,-29.43 -11.19,-7.65 -26.31,-11.46 -45.4,-11.46 -34.34,0 -57.52,7.64 -69.52,22.91 -12.54,15.8 -20.44,31.08 -23.71,45.8 l -105.51,-33.53 c 8.19,-35.45 30.12,-63.8 65.84,-85.06 v 0"
       style="fill:#20518e;fill-opacity:1;fill-rule:nonzero;stroke:none"
       transform="matrix(0.13333333,0,0,-0.13333333,0,816)" />
    <path
       id="path4"
       d="m 6373.03,1981.24 v 89.16 h 33.44 v 11.93 h -80.12 v -11.93 h 33.3 v -89.16 z m 59.65,0 v 86.06 l 29.23,-86.06 h 12.07 l 29.37,84.61 v -84.61 h 12.9 v 101.09 h -18 l -24.2,-70.34 c -2.44,-7.12 -4.23,-12.52 -5.38,-16.2 -1.01,3.31 -2.62,8.3 -4.83,14.96 l -23.92,71.58 h -20.14 v -101.09 h 12.9"
       style="fill:#20518e;fill-opacity:1;fill-rule:nonzero;stroke:none"
       transform="matrix(0.13333333,0,0,-0.13333333,0,816)" />
  </g>
</svg>
